<?xml version="1.0" standalone="no"?>
  <!DOCTYPE svg PUBLIC "-//W3C//DTD SVG 1.1//EN" "http://www.w3.org/Graphics/SVG/1.1/DTD/svg11.dtd" >
  <svg>
  <metadata>
  Created by font-carrier
  </metadata>
  <defs>
  <font id="Carlito" horiz-adv-x="2720" vert-adv-y="2720" >
    <font-face
      
      font-family="Carlito"
      
      font-weight="400"
      
      font-stretch="normal"
      
      units-per-em="2048"
      
      ascent="1536"
      
      descent="-512"
      
    />
      <missing-glyph />

      

      
      <glyph glyph-name="uni0" unicode="&#x0;" d="M-17-330Q-17-323-12-318Q-7-313 0-313Q8-313 13-318Q18-323 18-330Q18-338 13-343Q8-348 0-348Q-7-348-12-343Q-17-338-17-330Z"   vert-adv-y="2048"  />

      
      <glyph glyph-name="uni41" unicode="&#x41;" d="M1178 0L1037 0Q1013 0 998.50 12Q984 24 976 42L864 358L322 358L211 43Q205 26 188.50 13Q172 0 149 0L8 0L501 1314L686 1314L1178 0M368 488L818 488L632 1017Q622 1041 612 1073Q602 1105 593 1142Q583 1104 573 1072Q563 1040 554 1016L368 488Z"  horiz-adv-x="1185" vert-adv-y="2048"  />

      
      <glyph glyph-name="uni0104" unicode="&#x0104;" d="M1278-200Q1291-200 1296-212L1323-277Q1294-299 1249.50-313Q1205-327 1155-327Q1070-327 1021.50-289Q973-251 973-187Q973-133 1009-84.50Q1045-36 1102 0L1037 0Q1013 0 998.50 12Q984 24 976 42L864 358L322 358L211 43Q205 26 188.50 13Q172 0 149 0L8 0L501 1314L686 1314L1175 8L1217 3Q1198-8 1178.50-22.50Q1159-37 1142.50-56Q1126-75 1115.50-97Q1105-119 1105-144Q1105-180 1129-201Q1153-222 1191-222Q1213-222 1227-218.50Q1241-215 1251-211Q1261-207 1267-203.50Q1273-200 1278-200M368 488L818 488L632 1017Q622 1041 612 1073Q602 1105 593 1142Q583 1104 573 1072Q563 1040 554 1016L368 488Z"  horiz-adv-x="1185" vert-adv-y="2048"  />

      
      <glyph glyph-name="unic6" unicode="&#xc6;" d="M609 1314L1480 1314L1480 1166L865 1166L914 735L1369 735L1369 592L930 592L980 148L1480 148L1480 0L826 0L785 358L330 358L187 42Q178 23 160 11.50Q142 0 117 0L-21 0L609 1314M389 488L770 488L692 1173Q680 1136 667.50 1104.50Q655 1073 641 1045L389 488Z"  horiz-adv-x="1563" vert-adv-y="2048"  />

      
      <glyph glyph-name="uni42" unicode="&#x42;" d="M144 0L144 1314L545 1314Q661 1314 744.50 1290.50Q828 1267 881.50 1222.50Q935 1178 960 1114.50Q985 1051 985 971Q985 923 970.50 878Q956 833 927 795Q898 757 854 726Q810 695 750 676Q887 649 956.50 573.50Q1026 498 1026 375Q1026 291 997 222Q968 153 912 103.50Q856 54 774.50 27Q693 0 588 0L144 0M326 598L326 144L585 144Q654 144 703.50 161.50Q753 179 784.50 210Q816 241 830.50 284.50Q845 328 845 379Q845 480 781.50 539Q718 598 585 598L326 598M326 726L538 726Q605 726 655 742.50Q705 759 738 788Q771 817 787.50 858Q804 899 804 949Q804 1064 741.50 1117.50Q679 1171 545 1171L326 1171L326 726Z"  horiz-adv-x="1114" vert-adv-y="2048"  />

      
      <glyph glyph-name="uni43" unicode="&#x43;" d="M954 274Q968 274 980 262L1052 184Q981 90 877 38Q773-14 628-14Q500-14 396.50 35Q293 84 219.50 172.50Q146 261 106.50 384.50Q67 508 67 657Q67 806 109 929.50Q151 1053 227 1142Q303 1231 409 1280Q515 1329 643 1329Q770 1329 866.50 1284Q963 1239 1035 1162L975 1078Q969 1069 960 1063Q951 1057 937 1057Q920 1057 899.50 1075Q879 1093 846 1114.50Q813 1136 764 1154Q715 1172 642 1172Q556 1172 484.50 1137Q413 1102 361.50 1035.50Q310 969 281.50 873.50Q253 778 253 657Q253 535 283 439Q313 343 365 277Q417 211 487.50 176Q558 141 639 141Q689 141 728.50 148Q768 155 801.50 169.50Q835 184 864.50 206.50Q894 229 923 260Q939 274 954 274Z"  horiz-adv-x="1092" vert-adv-y="2048"  />

      
      <glyph glyph-name="unic7" unicode="&#xc7;" d="M506-243Q512-243 519.50-246.50Q527-250 538-254Q549-258 563.50-261.50Q578-265 599-265Q639-265 659.50-249Q680-233 680-208Q680-171 639.50-156.50Q599-142 525-132L565-10Q451 2 358.50 55Q266 108 201.50 195.50Q137 283 102 400Q67 517 67 657Q67 806 109 929.50Q151 1053 227 1142Q303 1231 409 1280Q515 1329 643 1329Q770 1329 866.50 1284Q963 1239 1035 1162L975 1078Q969 1069 960 1063Q951 1057 937 1057Q920 1057 899.50 1075Q879 1093 846 1114.50Q813 1136 764 1154Q715 1172 642 1172Q556 1172 484.50 1137Q413 1102 361.50 1035.50Q310 969 281.50 873.50Q253 778 253 657Q253 535 283 439Q313 343 365 277Q417 211 487.50 176Q558 141 639 141Q689 141 728.50 148Q768 155 801.50 169.50Q835 184 864.50 206.50Q894 229 923 260Q939 274 954 274Q968 274 980 262L1052 184Q985 96 891 45Q797-6 666-13L649-72Q739-90 778.50-124Q818-158 818-210Q818-241 802.50-266Q787-291 759.50-308Q732-325 693-334.50Q654-344 608-344Q569-344 533-336Q497-328 467-314L484-260Q490-243 506-243Z"  horiz-adv-x="1092" vert-adv-y="2048"  />

      
      <glyph glyph-name="uni44" unicode="&#x44;" d="M1192 657Q1192 509 1148.50 388Q1105 267 1026.50 180.50Q948 94 837.50 47Q727 0 593 0L139 0L139 1314L593 1314Q727 1314 837.50 1266.50Q948 1219 1026.50 1133Q1105 1047 1148.50 925.50Q1192 804 1192 657M1005 657Q1005 777 976 871.50Q947 966 893 1032Q839 1098 763 1132.50Q687 1167 593 1167L322 1167L322 147L593 147Q687 147 763 181.50Q839 216 893 281.50Q947 347 976 442Q1005 537 1005 657Z"  horiz-adv-x="1260" vert-adv-y="2048"  />

      
      <glyph glyph-name="unid0" unicode="&#xd0;" d="M42 0M42 716L196 716L196 1314L635 1314Q765 1314 871.50 1266.50Q978 1219 1054.50 1133Q1131 1047 1173 925.50Q1215 804 1215 657Q1215 509 1173 388Q1131 267 1054.50 180.50Q978 94 871.50 47Q765 0 635 0L196 0L196 610L42 610L42 716M1028 657Q1028 777 1000.50 871.50Q973 966 922 1032Q871 1098 798 1132.50Q725 1167 635 1167L380 1167L380 716L605 716L605 610L380 610L380 147L635 147Q725 147 798 181.50Q871 216 922 281.50Q973 347 1000.50 442Q1028 537 1028 657Z"  horiz-adv-x="1279" vert-adv-y="2048"  />

      
      <glyph glyph-name="uni45" unicode="&#x45;" d="M913 1314L913 1166L328 1166L328 735L799 735L799 592L328 592L328 148L914 148L913 0L145 0L145 1314L913 1314Z"  horiz-adv-x="1000" vert-adv-y="2048"  />

      
      <glyph glyph-name="uni0118" unicode="&#x0118;" d="M886-200Q899-200 904-212L931-277Q902-299 857.50-313Q813-327 763-327Q678-327 629.50-289Q581-251 581-187Q581-133 617-84.50Q653-36 710 0L145 0L145 1314L913 1314L913 1166L328 1166L328 735L799 735L799 592L328 592L328 148L914 148L913 0L819 0Q801-11 782-25.50Q763-40 747.50-58Q732-76 722.50-98Q713-120 713-144Q713-180 737-201Q761-222 799-222Q821-222 835-218.50Q849-215 859-211Q869-207 875-203.50Q881-200 886-200Z"  horiz-adv-x="1000" vert-adv-y="2048"  />

      
      <glyph glyph-name="uni46" unicode="&#x46;" d="M882 1314L882 1166L321 1166L321 711L798 711L798 563L321 563L321 0L138 0L138 1314L882 1314Z"  horiz-adv-x="941" vert-adv-y="2048"  />

      
      <glyph glyph-name="uni47" unicode="&#x47;" d="M1185 127Q1089 56 980.50 21Q872-14 745-14Q592-14 468.50 35Q345 84 258 172.50Q171 261 124 384.50Q77 508 77 657Q77 807 122.50 930.50Q168 1054 252.50 1142.50Q337 1231 457 1280Q577 1329 726 1329Q802 1329 866.50 1317.50Q931 1306 986 1284.50Q1041 1263 1087.50 1232Q1134 1201 1174 1163L1123 1081Q1111 1061 1091 1056Q1071 1051 1048 1065Q1025 1078 997.50 1096.50Q970 1115 932 1131.50Q894 1148 842 1160Q790 1172 719 1172Q615 1172 530.50 1136Q446 1100 386.50 1033Q327 966 295 870.50Q263 775 263 657Q263 534 296.50 436.50Q330 339 392.50 271.50Q455 204 543 168.50Q631 133 740 133Q824 133 890 152.50Q956 172 1020 207L1020 495L831 495Q813 495 802 505Q791 515 791 530L791 633L1185 633L1185 127L1185 127Z"  horiz-adv-x="1292" vert-adv-y="2048"  />

      
      <glyph glyph-name="uni48" unicode="&#x48;" d="M1136 0L953 0L953 596L323 596L323 0L140 0L140 1314L323 1314L323 729L953 729L953 1314L1136 1314L1136 0Z"  horiz-adv-x="1276" vert-adv-y="2048"  />

      
      <glyph glyph-name="uni0126" unicode="&#x0126;" d="M1170 1060L1310 1060L1310 951L1170 951L1170 0L987 0L987 596L357 596L357 0L174 0L174 951L34 951L34 1060L174 1060L174 1314L357 1314L357 1060L987 1060L987 1314L1170 1314L1170 1060M357 729L987 729L987 951L357 951L357 729Z"  horiz-adv-x="1344" vert-adv-y="2048"  />

      
      <glyph glyph-name="uni49" unicode="&#x49;" d="M349 0L167 0L167 1314L349 1314L349 0Z"  horiz-adv-x="516" vert-adv-y="2048"  />

      
      <glyph glyph-name="uni012E" unicode="&#x012E;" d="M383-200Q396-200 401-212L428-277Q399-299 354.50-313Q310-327 260-327Q175-327 126.50-289Q78-251 78-187Q78-133 114-84.50Q150-36 207 0L167 0L167 1314L349 1314L349 0L316 0Q298-11 279-25.50Q260-40 244.50-58Q229-76 219.50-98Q210-120 210-144Q210-180 234-201Q258-222 296-222Q318-222 332-218.50Q346-215 356-211Q366-207 372-203.50Q378-200 383-200Z"  horiz-adv-x="516" vert-adv-y="2048"  />

      
      <glyph glyph-name="uni4a" unicode="&#x4a;" d="M538 455Q538 345 516 258Q494 171 450 110.50Q406 50 341 18Q276-14 191-14Q152-14 114-8.50Q76-3 34 10Q36 38 38.50 65Q41 92 44 118Q46 133 55.50 143Q65 153 84 153Q97 153 117.50 145.50Q138 138 172 138Q262 138 309 212Q356 286 356 451L356 1314L538 1314L538 455Z"  horiz-adv-x="653" vert-adv-y="2048"  />

      
      <glyph glyph-name="uni4b" unicode="&#x4b;" d="M306 740L358 740Q387 740 406 749Q425 758 439 778L778 1272Q796 1295 815.50 1304.50Q835 1314 864 1314L1020 1314L620 750Q588 707 553 689Q599 673 636 624L1049 0L889 0Q856 0 840.50 10.50Q825 21 811 38L463 558Q447 581 428.50 590.50Q410 600 373 600L306 600L306 0L124 0L124 1314L306 1314L306 740Z"  horiz-adv-x="1064" vert-adv-y="2048"  />

      
      <glyph glyph-name="uni4c" unicode="&#x4c;" d="M320 153L827 153L827 0L138 0L138 1314L320 1314L320 153Z"  horiz-adv-x="861" vert-adv-y="2048"  />

      
      <glyph glyph-name="uni0141" unicode="&#x0141;" d="M375 753L663 920L663 798Q663 769 639 756L375 600L375 153L882 153L882 0L193 0L193 507L33 419L33 545Q33 569 55 581L193 660L193 1314L375 1314L375 753Z"  horiz-adv-x="880" vert-adv-y="2048"  />

      
      <glyph glyph-name="uni013D" unicode="&#x013D;" d="M174 0M356 153L863 153L863 0L174 0L174 1314L356 1314L356 153M680 1365Q701 1365 706.50 1354.50Q712 1344 712 1333Q712 1324 708.50 1308Q705 1292 696 1263.50Q687 1235 671.50 1191.50Q656 1148 632 1084Q624 1062 609 1055Q594 1048 570 1048L509 1048L563 1365L680 1365Z"  horiz-adv-x="866" vert-adv-y="2048"  />

      
      <glyph glyph-name="uni4d" unicode="&#x4d;" d="M835 479Q848 456 858.50 432Q869 408 879 383Q889 409 899.50 433Q910 457 922 479L1386 1284Q1398 1305 1412 1309.50Q1426 1314 1450 1314L1584 1314L1584 0L1423 0L1423 959Q1423 979 1424.50 1003.50Q1426 1028 1428 1053L959 229Q936 188 893 188L867 188Q824 188 801 229L321 1052Q327 1002 327 959L327 0L167 0L167 1314L301 1314Q325 1314 338.50 1309.50Q352 1305 365 1283L835 479L835 479Z"  horiz-adv-x="1751" vert-adv-y="2048"  />

      
      <glyph glyph-name="uni4e" unicode="&#x4e;" d="M243 1314Q266 1314 278 1308.50Q290 1303 305 1283L1019 300Q1017 324 1015.50 347.50Q1014 371 1014 391L1014 1314L1174 1314L1174 0L1082 0Q1061 0 1046.50 7Q1032 14 1018 32L304 1012Q306 989 307 968Q308 947 308 928L308 0L148 0L148 1314L243 1314L243 1314Z"  horiz-adv-x="1322" vert-adv-y="2048"  />

      
      <glyph glyph-name="uni014A" unicode="&#x014A;" d="M1145 8Q1145-67 1129-129Q1113-191 1078-235.50Q1043-280 988.50-304Q934-328 858-328Q816-328 782-320Q748-312 710-295L728-222Q733-201 743.50-194.50Q754-188 766-188Q777-188 794.50-195Q812-202 844-202Q913-202 949-154.50Q985-107 985-10L985 37L298 1012Q300 989 301 968Q302 947 302 928L302 0L142 0L142 1314L237 1314Q260 1314 272 1308.50Q284 1303 299 1283L990 302Q988 325 986.50 348Q985 371 985 391L985 1314L1145 1314L1145 8Z"  horiz-adv-x="1287" vert-adv-y="2048"  />

      
      <glyph glyph-name="uni4f" unicode="&#x4f;" d="M1284 657Q1284 509 1240.50 386Q1197 263 1117.50 174Q1038 85 926.50 35.50Q815-14 679-14Q544-14 432 35.50Q320 85 240 174Q160 263 116 386Q72 509 72 657Q72 804 116 927.50Q160 1051 240 1140.50Q320 1230 432 1279.50Q544 1329 679 1329Q815 1329 926.50 1279.50Q1038 1230 1117.50 1140.50Q1197 1051 1240.50 927.50Q1284 804 1284 657M1098 657Q1098 777 1068.50 872.50Q1039 968 984.50 1034.50Q930 1101 852.50 1136.50Q775 1172 679 1172Q583 1172 505.50 1136.50Q428 1101 373 1034.50Q318 968 288.50 872.50Q259 777 259 657Q259 537 288.50 441.50Q318 346 373 279.50Q428 213 505.50 178Q583 143 679 143Q775 143 852.50 178Q930 213 984.50 279.50Q1039 346 1068.50 441.50Q1098 537 1098 657Z"  horiz-adv-x="1356" vert-adv-y="2048"  />

      
      <glyph glyph-name="unid8" unicode="&#xd8;" d="M1287 657Q1287 509 1243 386Q1199 263 1119.50 174Q1040 85 928 35.50Q816-14 680-14Q590-14 512 7.50Q434 29 367 70L286-49Q266-77 238-88.50Q210-100 183-100L111-100L274 140Q178 230 125.50 361.50Q73 493 73 657Q73 804 117 927.50Q161 1051 241 1140.50Q321 1230 433 1279.50Q545 1329 680 1329Q777 1329 861.50 1303.50Q946 1278 1016 1230L1082 1327Q1091 1340 1098.50 1349Q1106 1358 1114 1363.50Q1122 1369 1133 1371.50Q1144 1374 1159 1374L1253 1374L1105 1156Q1192 1065 1239.50 938.50Q1287 812 1287 657M259 657Q259 537 288 443Q317 349 371 282L924 1095Q874 1133 813 1152.50Q752 1172 680 1172Q584 1172 506 1136.50Q428 1101 373.50 1034.50Q319 968 289 872.50Q259 777 259 657M1100 657Q1100 766 1075.50 854.50Q1051 943 1005 1009L458 204Q553 143 680 143Q776 143 854 178Q932 213 986.50 279.50Q1041 346 1070.50 441.50Q1100 537 1100 657Z"  horiz-adv-x="1359" vert-adv-y="2048"  />

      
      <glyph glyph-name="uni0152" unicode="&#x0152;" d="M1695 1314L1695 1166L1150 1166L1150 735L1588 735L1588 592L1150 592L1150 148L1696 148L1695 0L989 0L989 197Q920 97 819.50 42Q719-13 593-13Q475-13 378 36.50Q281 86 212 174.50Q143 263 105 386Q67 509 67 657Q67 804 105 927.50Q143 1051 212 1140.50Q281 1230 378 1279.50Q475 1329 593 1329Q719 1329 819.50 1273Q920 1217 989 1117L989 1314L1695 1314M967 657Q967 777 942 873Q917 969 871 1036.50Q825 1104 759 1140Q693 1176 611 1176Q529 1176 462.50 1140Q396 1104 349.50 1036.50Q303 969 278 873Q253 777 253 657Q253 537 278 441Q303 345 349.50 278Q396 211 462.50 175Q529 139 611 139Q693 139 759 175Q825 211 871 278Q917 345 942 441Q967 537 967 657Z"  horiz-adv-x="1775" vert-adv-y="2048"  />

      
      <glyph glyph-name="uni50" unicode="&#x50;" d="M329 490L329 0L147 0L147 1314L524 1314Q644 1314 732.50 1285Q821 1256 879 1203Q937 1150 965.50 1074.50Q994 999 994 906Q994 814 963.50 738Q933 662 873.50 606.50Q814 551 726.50 520.50Q639 490 524 490L329 490M329 634L524 634Q594 634 648 654Q702 674 738.50 710Q775 746 793.50 796Q812 846 812 906Q812 1032 741 1101.50Q670 1171 524 1171L329 1171L329 634Z"  horiz-adv-x="1058" vert-adv-y="2048"  />

      
      <glyph glyph-name="unide" unicode="&#xde;" d="M330 249L330 0L148 0L148 1314L330 1314L330 1073L526 1073Q646 1073 735 1044Q824 1015 882 962Q940 909 968.50 833.50Q997 758 997 665Q997 573 966.50 497Q936 421 876.50 365.50Q817 310 729 279.50Q641 249 526 249L330 249M330 393L526 393Q597 393 651 413Q705 433 741.50 469Q778 505 796.50 555Q815 605 815 665Q815 790 743.50 860Q672 930 526 930L330 930L330 393Z"  horiz-adv-x="1058" vert-adv-y="2048"  />

      
      <glyph glyph-name="uni51" unicode="&#x51;" d="M1295 657Q1295 483 1236 345.50Q1177 208 1071 118L1411-271L1260-271Q1227-271 1201-261Q1175-251 1153-228L929 32Q820-14 690-14Q555-14 443 35.50Q331 85 251 174Q171 263 127 386Q83 509 83 657Q83 804 127 927.50Q171 1051 251 1140.50Q331 1230 443 1279.50Q555 1329 690 1329Q826 1329 937.50 1279.50Q1049 1230 1128.50 1140.50Q1208 1051 1251.50 927.50Q1295 804 1295 657M1109 657Q1109 777 1079.50 872.50Q1050 968 995.50 1034.50Q941 1101 863.50 1136.50Q786 1172 690 1172Q594 1172 516.50 1136.50Q439 1101 384 1034.50Q329 968 299.50 872.50Q270 777 270 657Q270 537 299.50 441.50Q329 346 384 279.50Q439 213 516.50 178Q594 143 690 143Q786 143 863.50 178Q941 213 995.50 279.50Q1050 346 1079.50 441.50Q1109 537 1109 657Z"  horiz-adv-x="1378" vert-adv-y="2048"  />

      
      <glyph glyph-name="uni52" unicode="&#x52;" d="M329 546L329 0L147 0L147 1314L507 1314Q627 1314 714.50 1288.50Q802 1263 858.50 1215.50Q915 1168 942 1100.50Q969 1033 969 949Q969 880 948.50 820Q928 760 889.50 712Q851 664 795 629.50Q739 595 668 577Q685 566 700 552.50Q715 539 729 520L1082 0L920 0Q873 0 847 37L536 505Q521 527 503.50 536.50Q486 546 451 546L329 546M329 679L500 679Q572 679 626.50 697.50Q681 716 718 750Q755 784 773.50 831.50Q792 879 792 936Q792 1171 507 1171L329 1171L329 679Z"  horiz-adv-x="1112" vert-adv-y="2048"  />

      
      <glyph glyph-name="uni53" unicode="&#x53;" d="M797 1107Q782 1079 756 1079Q741 1079 720.50 1094.50Q700 1110 670.50 1128.50Q641 1147 599.50 1162.50Q558 1178 500 1178Q445 1178 403.50 1162.50Q362 1147 334.50 1119.50Q307 1092 293 1055.50Q279 1019 279 977Q279 922 304.50 886Q330 850 371.50 824.50Q413 799 466 780Q519 761 574 741Q629 721 682 695.50Q735 670 776.50 631.50Q818 593 843.50 537Q869 481 869 400Q869 313 841 237.50Q813 162 759.50 106Q706 50 628 18Q550-14 450-14Q329-14 227.50 32.50Q126 79 55 158L108 244Q115 255 125.50 261.50Q136 268 150 268Q169 268 192.50 247.50Q216 227 251 202.50Q286 178 335.50 157.50Q385 137 454 137Q512 137 557 154Q602 171 633.50 202Q665 233 681.50 276.50Q698 320 698 373Q698 432 672.50 470Q647 508 605.50 533.50Q564 559 511 576.50Q458 594 403 613Q348 632 295 656.50Q242 681 200.50 721Q159 761 133.50 820Q108 879 108 967Q108 1036 134 1101.50Q160 1167 209.50 1217.50Q259 1268 331.50 1298.50Q404 1329 498 1329Q603 1329 690.50 1294Q778 1259 842 1192L797 1107Z"  horiz-adv-x="941" vert-adv-y="2048"  />

      
      <glyph glyph-name="uni015E" unicode="&#x015E;" d="M370-243Q376-243 383.50-246.50Q391-250 402-254Q413-258 427.50-261.50Q442-265 463-265Q503-265 523.50-249Q544-233 544-208Q544-171 503.50-156.50Q463-142 389-132L428-13Q313-8 217.50 37.50Q122 83 55 158L108 244Q115 255 125.50 261.50Q136 268 150 268Q169 268 192.50 247.50Q216 227 251 202.50Q286 178 335.50 157.50Q385 137 454 137Q512 137 557 154Q602 171 633.50 202Q665 233 681.50 276.50Q698 320 698 373Q698 432 672.50 470Q647 508 605.50 533.50Q564 559 511 576.50Q458 594 403 613Q348 632 295 656.50Q242 681 200.50 721Q159 761 133.50 820Q108 879 108 967Q108 1036 134 1101.50Q160 1167 209.50 1217.50Q259 1268 331.50 1298.50Q404 1329 498 1329Q603 1329 690.50 1294Q778 1259 842 1192L797 1107Q782 1079 756 1079Q741 1079 720.50 1094.50Q700 1110 670.50 1128.50Q641 1147 599.50 1162.50Q558 1178 500 1178Q445 1178 403.50 1162.50Q362 1147 334.50 1119.50Q307 1092 293 1055.50Q279 1019 279 977Q279 922 304.50 886Q330 850 371.50 824.50Q413 799 466 780Q519 761 574 741Q629 721 682 695.50Q735 670 776.50 631.50Q818 593 843.50 537Q869 481 869 400Q869 323 846.50 254.50Q824 186 781 132Q738 78 675.50 41.50Q613 5 532-7L513-72Q603-90 642.50-124Q682-158 682-210Q682-241 666.50-266Q651-291 623.50-308Q596-325 557-334.50Q518-344 472-344Q433-344 397-336Q361-328 331-314L348-260Q354-243 370-243Z"  horiz-adv-x="941" vert-adv-y="2048"  />

      
      <glyph glyph-name="uni54" unicode="&#x54;" d="M974 1314L974 1162L591 1162L591 0L408 0L408 1162L24 1162L24 1314L974 1314Z"  horiz-adv-x="998" vert-adv-y="2048"  />

      
      <glyph glyph-name="uni0166" unicode="&#x0166;" d="M974 1314L974 1162L591 1162L591 781L901 781L901 674L591 674L591 0L408 0L408 674L175 674L175 781L408 781L408 1162L24 1162L24 1314L974 1314Z"  horiz-adv-x="998" vert-adv-y="2048"  />

      
      <glyph glyph-name="uni55" unicode="&#x55;" d="M657 144Q736 144 798.50 171.50Q861 199 904 248.50Q947 298 969.50 366Q992 434 992 516L992 1314L1174 1314L1174 516Q1174 402 1138 305Q1102 208 1035.50 137Q969 66 873 25.50Q777-15 657-15Q537-15 441.50 25.50Q346 66 279 137Q212 208 176 305Q140 402 140 516L140 1314L322 1314L322 517Q322 435 344.50 366.50Q367 298 410 248.50Q453 199 515.50 171.50Q578 144 657 144Z"  horiz-adv-x="1314" vert-adv-y="2048"  />

      
      <glyph glyph-name="uni0172" unicode="&#x0172;" d="M819-200Q832-200 837-212L864-277Q835-299 790.50-313Q746-327 696-327Q611-327 562.50-289Q514-251 514-187Q514-137 544-93Q574-49 622-14Q510-8 420.50 34.50Q331 77 269 147.50Q207 218 173.50 312Q140 406 140 516L140 1314L322 1314L322 517Q322 435 344.50 366.50Q367 298 410 248.50Q453 199 515.50 171.50Q578 144 657 144Q736 144 798.50 171.50Q861 199 904 248.50Q947 298 969.50 366Q992 434 992 516L992 1314L1174 1314L1174 516Q1174 412 1144 321.50Q1114 231 1057.50 161.50Q1001 92 919.50 47.50Q838 3 736-10Q719-21 703-35Q687-49 674.50-66Q662-83 654-102.50Q646-122 646-144Q646-180 670-201Q694-222 732-222Q754-222 768-218.50Q782-215 792-211Q802-207 808-203.50Q814-200 819-200Z"  horiz-adv-x="1314" vert-adv-y="2048"  />

      
      <glyph glyph-name="uni56" unicode="&#x56;" d="M6 1314L153 1314Q177 1314 192 1302Q207 1290 214 1272L539 351Q551 320 562.50 283.50Q574 247 583 207Q591 247 601.50 283.50Q612 320 624 351L948 1271Q954 1288 970 1301Q986 1314 1009 1314L1156 1314L663 0L499 0L6 1314Z"  horiz-adv-x="1162" vert-adv-y="2048"  />

      
      <glyph glyph-name="uni57" unicode="&#x57;" d="M12 1314L165 1314Q188 1314 204.50 1302.50Q221 1291 226 1272L481 365Q495 317 507 253Q513 284 520 312.50Q527 341 535 366L828 1271Q833 1288 850 1301Q867 1314 890 1314L943 1314Q967 1314 982.50 1302.50Q998 1291 1004 1272L1297 365Q1305 341 1312 313.50Q1319 286 1325 256Q1331 286 1337 314Q1343 342 1350 365L1604 1271Q1609 1288 1626.50 1301Q1644 1314 1667 1314L1810 1314L1411 0L1246 0L930 996Q925 1010 920.50 1026.50Q916 1043 911 1062Q907 1043 902.50 1026.50Q898 1010 893 996L575 0L411 0L12 1314Z"  horiz-adv-x="1822" vert-adv-y="2048"  />

      
      <glyph glyph-name="uni58" unicode="&#x58;" d="M407 674L27 1314L208 1314Q228 1314 237 1307Q246 1300 254 1289L543 777Q550 794 559 807L825 1286Q833 1299 842.50 1306.50Q852 1314 866 1314L1040 1314L658 684L1052 0L871 0Q851 0 840 11Q829 22 821 34L524 570Q519 555 512 545L228 34Q220 21 209 10.50Q198 0 181 0L11 0L407 674Z"  horiz-adv-x="1063" vert-adv-y="2048"  />

      
      <glyph glyph-name="uni59" unicode="&#x59;" d="M590 525L590 0L408 0L408 523L0 1314L160 1314Q183 1314 197.50 1302.50Q212 1291 222 1272L447 765Q464 734 477 706.50Q490 679 500 652Q510 679 522.50 706.50Q535 734 552 764L775 1272Q783 1287 798 1300.50Q813 1314 836 1314L998 1314L590 525Z"  horiz-adv-x="998" vert-adv-y="2048"  />

      
      <glyph glyph-name="uni5a" unicode="&#x5a;" d="M910 1314L910 1247Q910 1215 891 1187L276 148L897 148L897 0L56 0L56 71Q56 86 61 99Q66 112 74 124L688 1166L90 1166L90 1314L910 1314Z"  horiz-adv-x="959" vert-adv-y="2048"  />

      
      <glyph glyph-name="uni61" unicode="&#x61;" d="M777 0Q751 0 737 8Q723 16 718 41L696 132Q658 97 621.50 69.50Q585 42 545 23Q505 4 459-5.50Q413-15 358-15Q301-15 251.50 0.50Q202 16 164.50 48.50Q127 81 105.50 129.50Q84 178 84 244Q84 302 115.50 355.50Q147 409 218 451Q289 493 403 519.50Q517 546 683 550L683 625Q683 739 634.50 796.50Q586 854 493 854Q431 854 388.50 838Q346 822 315 803Q284 784 261.50 768Q239 752 216 752Q198 752 185 761Q172 770 164 784L132 840Q213 918 306.50 956.50Q400 995 514 995Q596 995 660 968.50Q724 942 767 893Q810 844 832.50 776Q855 708 855 625L855 0L777 0M411 108Q455 108 492 117Q529 126 562 142.50Q595 159 624.50 183.50Q654 208 683 238L683 440Q566 435 484 420.50Q402 406 350.50 382Q299 358 276 325.50Q253 293 253 253Q253 215 265.50 187.50Q278 160 299 142.50Q320 125 349 116.50Q378 108 411 108Z"  horiz-adv-x="981" vert-adv-y="2048"  />

      
      <glyph glyph-name="uni0105" unicode="&#x0105;" d="M917-203Q930-203 935-215L962-280Q933-302 888.50-316Q844-330 794-330Q709-330 660.50-292Q612-254 612-190Q612-133 651-83.50Q690-34 750 2Q725 9 718 41L696 132Q658 97 621.50 69.50Q585 42 545 23Q505 4 459-5.50Q413-15 358-15Q301-15 251.50 0.50Q202 16 164.50 48.50Q127 81 105.50 129.50Q84 178 84 244Q84 302 115.50 355.50Q147 409 218 451Q289 493 403 519.50Q517 546 683 550L683 625Q683 739 634.50 796.50Q586 854 493 854Q431 854 388.50 838Q346 822 315 803Q284 784 261.50 768Q239 752 216 752Q198 752 185 761Q172 770 164 784L132 840Q213 918 306.50 956.50Q400 995 514 995Q596 995 660 968.50Q724 942 767 893Q810 844 832.50 776Q855 708 855 625L855 0L856 0Q837-11 817.50-25.50Q798-40 781.50-59Q765-78 754.50-100Q744-122 744-147Q744-183 768-204Q792-225 830-225Q852-225 866-221.50Q880-218 890-214Q900-210 906-206.50Q912-203 917-203M411 108Q455 108 492 117Q529 126 562 142.50Q595 159 624.50 183.50Q654 208 683 238L683 440Q566 435 484 420.50Q402 406 350.50 382Q299 358 276 325.50Q253 293 253 253Q253 215 265.50 187.50Q278 160 299 142.50Q320 125 349 116.50Q378 108 411 108Z"  horiz-adv-x="981" vert-adv-y="2048"  />

      
      <glyph glyph-name="unie6" unicode="&#xe6;" d="M1131 993Q1210 993 1279 962Q1348 931 1399 872.50Q1450 814 1479 729.50Q1508 645 1508 537Q1508 496 1500 482Q1492 468 1467 468L857 468Q865 294 942 209Q1019 124 1144 124Q1211 124 1256 138Q1301 152 1330.50 169Q1360 186 1378.50 200Q1397 214 1412 214Q1426 214 1434.50 209.50Q1443 205 1449 197L1495 137Q1463 98 1420.50 69.50Q1378 41 1330 22.50Q1282 4 1230-5Q1178-14 1128-14Q1015-14 922 40.50Q829 95 775 206Q749 146 707 104Q665 62 613.50 35.50Q562 9 504-3Q446-15 389-15Q321-15 265.50 2Q210 19 170 52.50Q130 86 108 137.50Q86 189 86 258Q86 316 117.50 372Q149 428 220.50 472Q292 516 407.50 545Q523 574 691 578L691 625Q691 739 642.50 799.50Q594 860 498 860Q435 860 391.50 843Q348 826 317 806Q286 786 263 769Q240 752 217 752Q199 752 186 761Q173 770 165 784L133 840Q215 918 303 956.50Q391 995 501 995Q617 995 688.50 946Q760 897 792 812Q844 896 929 944.50Q1014 993 1131 993M691 468Q572 463 489 446Q406 429 354 402.50Q302 376 278.50 341.50Q255 307 255 267Q255 184 303 146Q351 108 429 108Q484 108 532 125.50Q580 143 615 178Q650 213 670.50 265.50Q691 318 691 389L691 468M1124 865Q1065 865 1018.50 845Q972 825 938.50 787.50Q905 750 885 697Q865 644 859 577L1352 577Q1352 639 1336.50 692Q1321 745 1291.50 783.50Q1262 822 1220 843.50Q1178 865 1124 865Z"  horiz-adv-x="1583" vert-adv-y="2048"  />

      
      <glyph glyph-name="uni62" unicode="&#x62;" d="M144 0L144 1422L320 1422L320 839Q380 910 457 951.50Q534 993 634 993Q719 993 787 960Q855 927 903 865Q951 803 976.50 714.50Q1002 626 1002 514Q1002 395 973 298Q944 201 890 131.50Q836 62 759 24Q682-14 586-14Q490-14 425.50 22.50Q361 59 311 124L301 37Q297 0 258 0L144 0M575 854Q494 854 432.50 816Q371 778 320 708L320 236Q366 173 421 147.50Q476 122 542 122Q677 122 749 219Q821 316 821 508Q821 686 757 770Q693 854 575 854Z"  horiz-adv-x="1076" vert-adv-y="2048"  />

      
      <glyph glyph-name="uni63" unicode="&#x63;" d="M769 802Q761 791 753.50 785.50Q746 780 732 780Q717 780 701 792Q685 804 661 818.50Q637 833 602.50 845Q568 857 518 857Q452 857 401.50 831.50Q351 806 317.50 758.50Q284 711 266.50 643Q249 575 249 490Q249 402 267.50 333.50Q286 265 320 218Q354 171 402 146.50Q450 122 510 122Q568 122 605 137Q642 152 667 170Q692 188 708.50 203Q725 218 743 218Q763 218 775 201L826 137Q794 98 755 69.50Q716 41 671 22.50Q626 4 577.50-5Q529-14 479-14Q393-14 318 20Q243 54 187.50 118.50Q132 183 100.50 276.50Q69 370 69 490Q69 599 98 691.50Q127 784 182.50 851Q238 918 319.50 955.50Q401 993 507 993Q607 993 682 959.50Q757 926 815 866L769 802Z"  horiz-adv-x="866" vert-adv-y="2048"  />

      
      <glyph glyph-name="unie7" unicode="&#xe7;" d="M381-243Q387-243 393.50-246.50Q400-250 410-254Q420-258 433.50-261.50Q447-265 465-265Q501-265 520-249Q539-233 539-208Q539-171 502-156.50Q465-142 395-132L433-11Q355-3 288.50 34.50Q222 72 173 136Q124 200 96.50 289Q69 378 69 490Q69 599 98 691.50Q127 784 182.50 851Q238 918 319.50 955.50Q401 993 507 993Q607 993 682 959.50Q757 926 815 866L769 802Q761 791 753.50 785.50Q746 780 732 780Q717 780 701 792Q685 804 661 818.50Q637 833 602.50 845Q568 857 518 857Q452 857 401.50 831.50Q351 806 317.50 758.50Q284 711 266.50 643Q249 575 249 490Q249 402 267.50 333.50Q286 265 320 218Q354 171 402 146.50Q450 122 510 122Q568 122 605 137Q642 152 667 170Q692 188 708.50 203Q725 218 743 218Q763 218 775 201L826 137Q772 69 696 33Q620-3 535-11L518-72Q603-90 640-124Q677-158 677-210Q677-241 662.50-266Q648-291 621-308Q594-325 557-334.50Q520-344 475-344Q438-344 404-336Q370-328 341-314L358-260Q364-243 381-243Z"  horiz-adv-x="866" vert-adv-y="2048"  />

      
      <glyph glyph-name="uni64" unicode="&#x64;" d="M827 0Q808 0 796 8.50Q784 17 782 36L764 153Q702 78 623 32Q544-14 440-14Q357-14 289.50 18.50Q222 51 174 114Q126 177 100 270.50Q74 364 74 486Q74 594 102.50 687.50Q131 781 185 849Q239 917 316.50 956Q394 995 492 995Q581 995 644 965.50Q707 936 756 881L756 1422L932 1422L932 0L827 0M497 127Q580 127 641.50 165.50Q703 204 756 273L756 746Q709 809 654 834.50Q599 860 532 860Q399 860 327 763Q255 666 255 486Q255 391 271.50 323Q288 255 319 211.50Q350 168 395 147.50Q440 127 497 127Z"  horiz-adv-x="1076" vert-adv-y="2048"  />

      
      <glyph glyph-name="uni010F" unicode="&#x010F;" d="M53 0M806 0Q787 0 775 8.50Q763 17 761 36L743 153Q681 78 602 32Q523-14 419-14Q336-14 268.50 18.50Q201 51 153 114Q105 177 79 270.50Q53 364 53 486Q53 594 81.50 687.50Q110 781 164 849Q218 917 295.50 956Q373 995 471 995Q560 995 623 965.50Q686 936 735 881L735 1422L911 1422L911 0L806 0M476 127Q559 127 620.50 165.50Q682 204 735 273L735 746Q688 809 633 834.50Q578 860 511 860Q378 860 306 763Q234 666 234 486Q234 391 250.50 323Q267 255 298 211.50Q329 168 374 147.50Q419 127 476 127M1173 1424Q1194 1424 1199.50 1413.50Q1205 1403 1205 1392Q1205 1383 1201.50 1367Q1198 1351 1189 1322.50Q1180 1294 1164.50 1250.50Q1149 1207 1125 1143Q1117 1121 1102 1114Q1087 1107 1063 1107L1002 1107L1056 1424L1173 1424Z"  horiz-adv-x="1164" vert-adv-y="2048"  />

      
      <glyph glyph-name="uni0111" unicode="&#x0111;" d="M561 1214L800 1214L800 1422L976 1422L976 1214L1126 1214L1126 1102L976 1102L976 0L871 0Q852 0 840 8.50Q828 17 826 36L808 155Q743 79 659 32.50Q575-14 466-14Q377-14 305.50 16.50Q234 47 184 108.50Q134 170 106.50 261.50Q79 353 79 475Q79 583 109 674.50Q139 766 196 832.50Q253 899 334.50 936.50Q416 974 519 974Q613 974 680.50 943.50Q748 913 800 857L800 1102L561 1102L561 1214M522 127Q610 127 676.50 165.50Q743 204 800 275L800 723Q750 786 690.50 812Q631 838 559 838Q415 838 337.50 746.50Q260 655 260 475Q260 380 277.50 313.50Q295 247 329 205.50Q363 164 411.50 145.50Q460 127 522 127Z"  horiz-adv-x="1130" vert-adv-y="2048"  />

      
      <glyph glyph-name="unif0" unicode="&#xf0;" d="M402 1028Q391 1046 395 1062Q399 1078 416 1090L515 1157Q472 1177 424 1192.50Q376 1208 322 1222Q299 1227 285.50 1248.50Q272 1270 284 1305L305 1366Q398 1351 485 1322Q572 1293 650 1246L811 1363L846 1307Q857 1290 852.50 1274Q848 1258 832 1247L739 1184Q797 1137 844.50 1076.50Q892 1016 926 941.50Q960 867 978.50 777.50Q997 688 997 583Q997 445 967 334.50Q937 224 877.50 147Q818 70 729.50 28.50Q641-13 525-13Q430-13 348 18.50Q266 50 205 110Q144 170 109.50 256Q75 342 75 450Q75 540 105 621Q135 702 191 763Q247 824 327 859.50Q407 895 507 895Q604 895 688.50 854Q773 813 835 731Q815 861 760 951Q705 1041 613 1103L436 973L402 1028M529 123Q665 123 745.50 226.50Q826 330 832 542Q817 584 792 623Q767 662 731 692.50Q695 723 648 741Q601 759 541 759Q469 759 415 735Q361 711 324 669Q287 627 268.50 570.50Q250 514 250 449Q250 371 272 310Q294 249 332 207.50Q370 166 421 144.50Q472 123 529 123Z"  horiz-adv-x="1076" vert-adv-y="2048"  />

      
      <glyph glyph-name="uni65" unicode="&#x65;" d="M535 993Q623 993 698 964Q773 935 828 879Q883 823 914 742Q945 661 945 556Q945 515 936 501.50Q927 488 903 488L249 488Q251 396 274 327.50Q297 259 337.50 214Q378 169 434 146.50Q490 124 559 124Q623 124 670 138.50Q717 153 750.50 171Q784 189 807 203.50Q830 218 847 218Q858 218 866 213.50Q874 209 880 201L930 137Q897 98 852.50 69.50Q808 41 757 22.50Q706 4 651.50-5Q597-14 544-14Q442-14 356 20Q270 54 207.50 120.50Q145 187 110 284.50Q75 382 75 509Q75 611 106.50 699.50Q138 788 197.50 853.50Q257 919 342.50 956Q428 993 535 993M538 865Q415 865 343.50 793Q272 721 254 596L787 596Q787 655 770 704.50Q753 754 721 789.50Q689 825 642.50 845Q596 865 538 865Z"  horiz-adv-x="1019" vert-adv-y="2048"  />

      
      <glyph glyph-name="uni0119" unicode="&#x0119;" d="M752-203Q765-203 770-215L797-280Q768-302 723.50-316Q679-330 629-330Q544-330 495.50-292Q447-254 447-190Q447-139 478-94Q509-49 560-14L544-14Q442-14 356 20Q270 54 207.50 120.50Q145 187 110 284.50Q75 382 75 509Q75 611 106.50 699.50Q138 788 197.50 853.50Q257 919 342.50 956Q428 993 535 993Q623 993 698 964Q773 935 828 879Q883 823 914 742Q945 661 945 556Q945 515 936 501.50Q927 488 903 488L249 488Q251 396 274 327.50Q297 259 337.50 214Q378 169 434 146.50Q490 124 559 124Q623 124 670 138.50Q717 153 750.50 171Q784 189 807 203.50Q830 218 847 218Q858 218 866 213.50Q874 209 880 201L930 137Q885 84 820 50.50Q755 17 683 1L691 0Q672-11 652.50-25.50Q633-40 616.50-59Q600-78 589.50-100Q579-122 579-147Q579-183 603-204Q627-225 665-225Q687-225 701-221.50Q715-218 725-214Q735-210 741-206.50Q747-203 752-203M538 865Q415 865 343.50 793Q272 721 254 596L787 596Q787 655 770 704.50Q753 754 721 789.50Q689 825 642.50 845Q596 865 538 865Z"  horiz-adv-x="1019" vert-adv-y="2048"  />

      
      <glyph glyph-name="uni66" unicode="&#x66;" d="M170 0L170 831L71 844Q50 846 37 857Q24 868 24 888L24 960L170 960L170 1053Q170 1137 192.50 1202.50Q215 1268 257 1312.50Q299 1357 359 1380.50Q419 1404 494 1404Q525 1404 554.50 1399Q584 1394 611 1385L606 1297Q604 1274 582 1271.50Q560 1269 523 1269Q481 1269 447.50 1258Q414 1247 390 1221Q366 1195 353 1152.50Q340 1110 340 1048L340 960L603 960L603 832L346 832L346 0L170 0Z"  horiz-adv-x="625" vert-adv-y="2048"  />

      
      <glyph glyph-name="uniFB00" unicode="&#xFB00;" d="M168 0L168 831L71 844Q50 846 37 857Q24 868 24 888L24 960L168 960L168 1038Q168 1122 190.50 1187.50Q213 1253 255 1297.50Q297 1342 356.50 1365.50Q416 1389 490 1389Q521 1389 550 1384Q579 1379 606 1370L601 1282Q599 1259 577.50 1256.50Q556 1254 520 1254Q479 1254 445.50 1243Q412 1232 388 1206Q364 1180 351 1137.50Q338 1095 338 1033L338 960L744 960L744 1064Q744 1148 766.50 1213Q789 1278 831 1323Q873 1368 932.50 1391.50Q992 1415 1066 1415Q1127 1415 1182 1395L1177 1308Q1175 1285 1153 1282.50Q1131 1280 1095 1280Q1054 1280 1020.50 1269Q987 1258 963.50 1232Q940 1206 927 1163.50Q914 1121 914 1058L914 960L1173 960L1173 832L920 832L920 0L744 0L744 832L344 832L344 0L168 0Z"  horiz-adv-x="1195" vert-adv-y="2048"  />

      
      <glyph glyph-name="uniFB01" unicode="&#xFB01;" d="M24 0M175 0L175 831L71 844Q50 846 37 857Q24 868 24 888L24 960L175 960L175 1087Q175 1247 247 1329.50Q319 1412 449 1412Q472 1412 490.50 1410Q509 1408 526 1402L526 1306Q526 1291 512 1287Q498 1283 474 1283Q408 1283 376.50 1237.50Q345 1192 345 1088L345 960L926 960L926 0L750 0L750 832L351 832L351 0L175 0M962 1291Q962 1266 952 1243.50Q942 1221 924.50 1204.50Q907 1188 884.50 1178Q862 1168 837 1168Q812 1168 790 1178Q768 1188 751.50 1204.50Q735 1221 725 1243.50Q715 1266 715 1291Q715 1317 725 1339.50Q735 1362 751.50 1379Q768 1396 790 1406Q812 1416 837 1416Q862 1416 884.50 1406Q907 1396 924.50 1379Q942 1362 952 1339.50Q962 1317 962 1291Z"  horiz-adv-x="1084" vert-adv-y="2048"  />

      
      <glyph glyph-name="uniFB03" unicode="&#xFB03;" d="M24 0M171 0L171 831L71 844Q50 846 37 857Q24 868 24 888L24 960L171 960L171 1038Q171 1122 194 1187.50Q217 1253 259.50 1297.50Q302 1342 363 1365.50Q424 1389 499 1389Q530 1389 560 1384Q590 1379 617 1370L612 1282Q610 1259 588 1256.50Q566 1254 528 1254Q486 1254 451.50 1243Q417 1232 392.50 1206Q368 1180 354.50 1137.50Q341 1095 341 1033L341 960L758 960L758 1087Q758 1247 829.50 1329.50Q901 1412 1029 1412Q1052 1412 1070 1410Q1088 1408 1104 1402L1104 1306Q1104 1291 1090.50 1287Q1077 1283 1053 1283Q989 1283 959 1237.50Q929 1192 929 1088L929 960L1500 960L1500 0L1324 0L1324 832L934 832L934 0L758 0L758 832L347 832L347 0L171 0M1537 1291Q1537 1266 1527 1243.50Q1517 1221 1499.50 1204.50Q1482 1188 1459.50 1178Q1437 1168 1412 1168Q1387 1168 1365 1178Q1343 1188 1326.50 1204.50Q1310 1221 1300 1243.50Q1290 1266 1290 1291Q1290 1317 1300 1339.50Q1310 1362 1326.50 1379Q1343 1396 1365 1406Q1387 1416 1412 1416Q1437 1416 1459.50 1406Q1482 1396 1499.50 1379Q1517 1362 1527 1339.50Q1537 1317 1537 1291Z"  horiz-adv-x="1654" vert-adv-y="2048"  />

      
      <glyph glyph-name="uniFB02" unicode="&#xFB02;" d="M166 0L166 831L70 844Q49 846 36 857Q23 868 23 888L23 960L166 960L166 1011Q166 1092 189.50 1164.50Q213 1237 260.50 1291.50Q308 1346 379 1378Q450 1410 546 1410Q617 1410 682 1404Q747 1398 810 1397L928 1397L928 0L753 0L753 1274Q705 1276 656 1279Q607 1282 572 1282Q459 1282 397.50 1210.50Q336 1139 336 1011L336 960L571 960L571 832L342 832L342 0L166 0Z"  horiz-adv-x="1084" vert-adv-y="2048"  />

      
      <glyph glyph-name="uniFB04" unicode="&#xFB04;" d="M167 0L167 831L70 844Q50 846 37 857Q24 868 24 888L24 960L167 960L167 1038Q167 1122 189.50 1187.50Q212 1253 253.50 1297.50Q295 1342 354.50 1365.50Q414 1389 488 1389Q547 1389 602 1370L598 1282Q597 1270 591 1264.50Q585 1259 574.50 1256.50Q564 1254 549.50 1254Q535 1254 517 1254Q476 1254 443 1243Q410 1232 386.50 1206Q363 1180 350 1137.50Q337 1095 337 1033L337 960L739 960L739 1011Q739 1092 762 1164.50Q785 1237 832 1291.50Q879 1346 950 1378Q1021 1410 1116 1410Q1188 1410 1252.50 1404Q1317 1398 1380 1397L1499 1397L1499 0L1324 0L1324 1274Q1276 1276 1227 1279Q1178 1282 1143 1282Q1031 1282 970 1210.50Q909 1139 909 1011L909 960L1166 960L1166 832L915 832L915 0L739 0L739 832L343 832L343 0L167 0Z"  horiz-adv-x="1654" vert-adv-y="2048"  />

      
      <glyph glyph-name="uni67" unicode="&#x67;" d="M462 994Q523 994 576 980Q629 966 672 940L928 940L928 875Q928 840 888 834L784 819Q815 755 815 679Q815 607 788.50 549Q762 491 715 450Q668 409 603.50 386.50Q539 364 462 364Q398 364 344 379Q315 360 301 338.50Q287 317 287 296Q287 261 314 244Q341 227 385 219Q429 211 485 209Q541 207 599.50 202.50Q658 198 714 188Q770 178 814 153.50Q858 129 885 86.50Q912 44 912-24Q912-87 882-146Q852-205 795.50-251Q739-297 657.50-324.50Q576-352 473-352Q370-352 293-331Q216-310 165-274Q114-238 89-191Q64-144 64-93Q64-21 106.50 29Q149 79 224 108Q183 127 159 160Q135 193 135 248Q135 290 165 337Q195 384 255 415Q186 456 146.50 523Q107 590 107 679Q107 751 133.50 809Q160 867 207 908.50Q254 950 319 972Q384 994 462 994M750-53Q750-18 731.50 4Q713 26 681 38.50Q649 51 607 56.50Q565 62 518 65Q471 68 422.50 70Q374 72 329 79Q280 53 249 16.50Q218-20 218-71Q218-104 233-132Q248-160 279.50-180.50Q311-201 360-213Q409-225 476-225Q542-225 593-212Q644-199 679-176.50Q714-154 732-122.50Q750-91 750-53M462 480Q559 480 608.50 534Q658 588 658 675Q658 764 608.50 816.50Q559 869 462 869Q367 869 317.50 816.50Q268 764 268 675Q268 632 280.50 596.50Q293 561 317.50 535Q342 509 378.50 494.50Q415 480 462 480Z"  horiz-adv-x="964" vert-adv-y="2048"  />

      
      <glyph glyph-name="uni68" unicode="&#x68;" d="M143 0L143 1422L319 1422L319 849Q380 915 454.50 954Q529 993 627 993Q707 993 767.50 966.50Q828 940 869 891.50Q910 843 930.50 774.50Q951 706 951 623L951 0L775 0L775 623Q775 732 726 793Q677 854 576 854Q501 854 437 818Q373 782 319 719L319 0L143 0Z"  horiz-adv-x="1076" vert-adv-y="2048"  />

      
      <glyph glyph-name="uni0125" unicode="&#x0125;" d="M0 0M143 0L143 1422L319 1422L319 849Q380 915 454.50 954Q529 993 627 993Q707 993 767.50 966.50Q828 940 869 891.50Q910 843 930.50 774.50Q951 706 951 623L951 0L775 0L775 623Q775 732 726 793Q677 854 576 854Q501 854 437 818Q373 782 319 719L319 0L143 0M550 1492L422 1492Q410 1492 394 1496Q378 1500 361 1520L250 1654Q244 1662 238 1671L226 1655L116 1520Q99 1500 82.50 1496Q66 1492 55 1492L-68 1492L162 1754L320 1754L550 1492Z"  horiz-adv-x="1076" vert-adv-y="2048"  />

      
      <glyph glyph-name="uni0127" unicode="&#x0127;" d="M4 1226L150 1226L150 1422L326 1422L326 1226L607 1226L607 1115L326 1115L326 826Q387 891 463.50 931.50Q540 972 638 972Q718 972 779 945.50Q840 919 881.50 870Q923 821 944 753Q965 685 965 602L965 0L789 0L789 602Q789 711 739 772Q689 833 587 833Q512 833 446.50 797Q381 761 326 698L326 0L150 0L150 1115L4 1115L4 1226Z"  horiz-adv-x="1091" vert-adv-y="2048"  />

      
      <glyph glyph-name="uni69" unicode="&#x69;" d="M110 0M323 978L323 0L147 0L147 978L323 978M357 1284Q357 1259 347 1236.50Q337 1214 319.50 1197.50Q302 1181 279.50 1171Q257 1161 232 1161Q207 1161 185 1171Q163 1181 146.50 1197.50Q130 1214 120 1236.50Q110 1259 110 1284Q110 1310 120 1332.50Q130 1355 146.50 1372Q163 1389 185 1399Q207 1409 232 1409Q257 1409 279.50 1399Q302 1389 319.50 1372Q337 1355 347 1332.50Q357 1310 357 1284Z"  horiz-adv-x="470" vert-adv-y="2048"  />

      
      <glyph glyph-name="uni012F" unicode="&#x012F;" d="M54 0M359-203Q372-203 377-215L404-280Q375-302 330.50-316Q286-330 236-330Q151-330 102.50-292Q54-254 54-190Q54-134 91.50-85Q129-36 187 0L147 0L147 978L323 978L323 0L298 0Q279-11 259.50-25.50Q240-40 223.50-59Q207-78 196.50-100Q186-122 186-147Q186-183 210-204Q234-225 272-225Q294-225 308-221.50Q322-218 332-214Q342-210 348-206.50Q354-203 359-203M357 1284Q357 1259 347 1236.50Q337 1214 319.50 1197.50Q302 1181 279.50 1171Q257 1161 232 1161Q207 1161 185 1171Q163 1181 146.50 1197.50Q130 1214 120 1236.50Q110 1259 110 1284Q110 1310 120 1332.50Q130 1355 146.50 1372Q163 1389 185 1399Q207 1409 232 1409Q257 1409 279.50 1399Q302 1389 319.50 1372Q337 1355 347 1332.50Q357 1310 357 1284Z"  horiz-adv-x="470" vert-adv-y="2048"  />

      
      <glyph glyph-name="uni0131" unicode="&#x0131;" d="M323 978L323 0L147 0L147 978L323 978Z"  horiz-adv-x="470" vert-adv-y="2048"  />

      
      <glyph glyph-name="uni6a" unicode="&#x6a;" d="M0 0M340 978L340-71Q340-130 324-181Q308-232 273.50-269.50Q239-307 185.50-329Q132-351 57-351Q25-351-1.50-346.50Q-28-342-55-332L-45-238Q-44-229-40.50-224.50Q-37-220-29.50-219Q-22-218-9.50-218.50Q3-219 22-219Q98-219 131-184Q164-149 164-71L164 978L340 978M376 1284Q376 1259 366 1236.50Q356 1214 338.50 1197.50Q321 1181 298.50 1171Q276 1161 251 1161Q226 1161 204 1171Q182 1181 165.50 1197.50Q149 1214 139 1236.50Q129 1259 129 1284Q129 1310 139 1332.50Q149 1355 165.50 1372Q182 1389 204 1399Q226 1409 251 1409Q276 1409 298.50 1399Q321 1389 338.50 1372Q356 1355 366 1332.50Q376 1310 376 1284Z"  horiz-adv-x="490" vert-adv-y="2048"  />

      
      <glyph glyph-name="uni0237" unicode="&#x0237;" d="M340 978L340-71Q340-130 324-181Q308-232 273.50-269.50Q239-307 185.50-329Q132-351 57-351Q25-351-1.50-346.50Q-28-342-55-332L-45-238Q-44-229-40.50-224.50Q-37-220-29.50-219Q-22-218-9.50-218.50Q3-219 22-219Q98-219 131-184Q164-149 164-71L164 978L340 978Z"  horiz-adv-x="490" vert-adv-y="2048"  />

      
      <glyph glyph-name="uni6b" unicode="&#x6b;" d="M304 1422L304 586L344 586Q363 586 374.50 591Q386 596 399 613L659 944Q673 960 688 969Q703 978 726 978L886 978L579 593Q565 578 551 565.50Q537 553 521 543Q538 532 551.50 516.50Q565 501 579 484L906 0L748 0Q727 0 711 7.50Q695 15 682 33L415 434Q401 454 388.50 460.50Q376 467 349 467L304 467L304 0L128 0L128 1422L304 1422Z"  horiz-adv-x="931" vert-adv-y="2048"  />

      
      <glyph glyph-name="uni0138" unicode="&#x0138;" d="M301 978L301 586L341 586Q360 586 372 591Q384 596 397 613L659 944Q673 960 687.50 969Q702 978 726 978L885 978L577 593Q563 578 549 565.50Q535 553 519 543Q536 532 549.50 516.50Q563 501 577 484L905 0L748 0Q727 0 711 7.50Q695 15 682 33L413 434Q399 454 386 460.50Q373 467 347 467L301 467L301 0L125 0L125 978L301 978Z"  horiz-adv-x="931" vert-adv-y="2048"  />

      
      <glyph glyph-name="uni0142" unicode="&#x0142;" d="M359 1422L359 909L487 974L487 874Q487 842 463 831L359 775L359 0L183 0L183 695L46 624L46 727Q46 754 68 766L183 828L183 1422L359 1422Z"  horiz-adv-x="507" vert-adv-y="2048"  />

      
      <glyph glyph-name="uni013E" unicode="&#x013E;" d="M120 0M296 1422L296 0L120 0L120 1422L296 1422M554 1424Q575 1424 580.50 1413.50Q586 1403 586 1392Q586 1383 582.50 1367Q579 1351 570 1322.50Q561 1294 545.50 1250.50Q530 1207 506 1143Q498 1121 483 1114Q468 1107 444 1107L383 1107L437 1424L554 1424Z"  horiz-adv-x="540" vert-adv-y="2048"  />

      
      <glyph glyph-name="uni6d" unicode="&#x6d;" d="M147 0L147 978L251 978Q271 978 282.50 969.50Q294 961 296 942L311 842Q339 875 369.50 902.50Q400 930 435 950.50Q470 971 510 982Q550 993 595 993Q696 993 759.50 938Q823 883 850 790Q871 844 905.50 882Q940 920 982 945Q1024 970 1072 981.50Q1120 993 1170 993Q1330 993 1417.50 897Q1505 801 1505 623L1505 0L1329 0L1329 623Q1329 737 1277 795.50Q1225 854 1128 854Q1084 854 1045 839.50Q1006 825 976.50 795.50Q947 766 929.50 723Q912 680 912 623L912 0L736 0L736 623Q736 740 687.50 797Q639 854 545 854Q481 854 425 820.50Q369 787 323 728L323 0L147 0Z"  horiz-adv-x="1636" vert-adv-y="2048"  />

      
      <glyph glyph-name="uni6e" unicode="&#x6e;" d="M140 0L140 978L245 978Q264 978 276 969.50Q288 961 290 942L305 838Q368 908 446 950.50Q524 993 626 993Q706 993 766.50 966.50Q827 940 868 891.50Q909 843 930 774.50Q951 706 951 623L951 0L775 0L775 623Q775 732 725.50 793Q676 854 575 854Q500 854 435 818.50Q370 783 316 720L316 0L140 0Z"  horiz-adv-x="1076" vert-adv-y="2048"  />

      
      <glyph glyph-name="uni014B" unicode="&#x014B;" d="M140 0L140 978L245 978Q264 978 276 969.50Q288 961 290 942L305 838Q368 908 446 950.50Q524 993 626 993Q706 993 766.50 966.50Q827 940 868 891.50Q909 843 930 774.50Q951 706 951 623L951 1Q951-78 931.50-143Q912-208 872.50-254.50Q833-301 772-326.50Q711-352 628-352Q582-352 544.50-343.50Q507-335 465-317L484-241Q489-219 500-212.50Q511-206 524-206Q536-206 556-213Q576-220 612-220Q691-220 733-170.50Q775-121 775-18L775 623Q775 732 725.50 793Q676 854 575 854Q500 854 435 818.50Q370 783 316 720L316 0L140 0Z"  horiz-adv-x="1076" vert-adv-y="2048"  />

      
      <glyph glyph-name="uni6f" unicode="&#x6f;" d="M541 993Q648 993 734 957.50Q820 922 880 856.50Q940 791 972.50 698Q1005 605 1005 490Q1005 374 972.50 281Q940 188 880 122.50Q820 57 734 21.50Q648-14 541-14Q434-14 347.50 21.50Q261 57 200.50 122.50Q140 188 107.50 281Q75 374 75 490Q75 605 107.50 698Q140 791 200.50 856.50Q261 922 347.50 957.50Q434 993 541 993M541 123Q612 123 665 147.50Q718 172 753.50 219Q789 266 806.50 334Q824 402 824 489Q824 576 806.50 644Q789 712 753.50 759Q718 806 665 831Q612 856 541 856Q469 856 415.50 831Q362 806 326.50 759Q291 712 273.50 644Q256 576 256 489Q256 402 273.50 334Q291 266 326.50 219Q362 172 415.50 147.50Q469 123 541 123Z"  horiz-adv-x="1080" vert-adv-y="2048"  />

      
      <glyph glyph-name="unif8" unicode="&#xf8;" d="M885 854Q945 788 977 696.50Q1009 605 1009 490Q1009 374 976.50 281Q944 188 883.50 122.50Q823 57 736.50 21.50Q650-14 543-14Q470-14 407.50 2Q345 18 292 49L241-21Q220-50 190.50-62Q161-74 132-74L66-74L206 117Q143 183 109 277.50Q75 372 75 490Q75 605 108 698Q141 791 201.50 856.50Q262 922 348.50 957.50Q435 993 543 993Q618 993 682.50 975.50Q747 958 801 924L866 1012Q885 1038 901.50 1049Q918 1060 950 1060L1037 1060L885 854M245 489Q245 336 300 244L717 810Q647 862 543 862Q471 862 415 836Q359 810 321.50 762Q284 714 264.50 645Q245 576 245 489M543 118Q615 118 670 143.50Q725 169 762.50 217Q800 265 819 333.50Q838 402 838 489Q838 631 789 723L376 163Q443 118 543 118Z"  horiz-adv-x="1084" vert-adv-y="2048"  />

      
      <glyph glyph-name="uni0153" unicode="&#x0153;" d="M1277 993Q1359 993 1429.50 962Q1500 931 1551.50 872.50Q1603 814 1632.50 729.50Q1662 645 1662 537Q1662 496 1654 482Q1646 468 1621 468L992 468Q996 381 1019.50 316.50Q1043 252 1081.50 209Q1120 166 1173 145Q1226 124 1291 124Q1352 124 1396.50 138.50Q1441 153 1473.50 171Q1506 189 1528.50 203.50Q1551 218 1568 218Q1587 218 1602 201L1651 137Q1619 98 1575.50 69.50Q1532 41 1482.50 22.50Q1433 4 1380-5Q1327-14 1275-14Q1155-14 1059 42.50Q963 99 908 215Q855 106 758.50 46Q662-14 525-14Q424-14 342 21.50Q260 57 201.50 122.50Q143 188 111 281Q79 374 79 490Q79 605 111 698Q143 791 202 856.50Q261 922 344.50 957.50Q428 993 530 993Q663 993 758 934Q853 875 906 768Q931 819 967 860.50Q1003 902 1049.50 931.50Q1096 961 1153 977Q1210 993 1277 993M540 123Q610 123 662.50 147.50Q715 172 749.50 219Q784 266 801.50 334Q819 402 819 489Q819 576 801.50 644Q784 712 749.50 759Q715 806 662.50 831Q610 856 540 856Q469 856 416.50 831Q364 806 329.50 759Q295 712 277.50 644Q260 576 260 489Q260 316 329.50 219.50Q399 123 540 123M1271 865Q1209 865 1161 845Q1113 825 1078 787.50Q1043 750 1022 697Q1001 644 994 577L1506 577Q1506 639 1490 692Q1474 745 1444 783.50Q1414 822 1370.50 843.50Q1327 865 1271 865Z"  horiz-adv-x="1740" vert-adv-y="2048"  />

      
      <glyph glyph-name="uni70" unicode="&#x70;" d="M141-330L141 978L246 978Q265 978 277 969.50Q289 961 291 942L308 828Q370 903 450 949Q530 995 634 995Q718 995 786 962.50Q854 930 902 867Q950 804 976 711Q1002 618 1002 496Q1002 388 973 294.50Q944 201 889.50 132.50Q835 64 757 25Q679-14 581-14Q492-14 429 16Q366 46 317 100L317-330L141-330M576 854Q494 854 431.50 816Q369 778 317 708L317 236Q363 173 418.50 147.50Q474 122 542 122Q676 122 748.50 219Q821 316 821 496Q821 591 804.50 659Q788 727 756.50 770.50Q725 814 679.50 834Q634 854 576 854Z"  horiz-adv-x="1076" vert-adv-y="2048"  />

      
      <glyph glyph-name="unife" unicode="&#xfe;" d="M144-330L144 1422L320 1422L320 839Q380 910 458 951.50Q536 993 636 993Q719 993 786.50 961Q854 929 902 866.50Q950 804 976 711Q1002 618 1002 496Q1002 388 973 294.50Q944 201 890 132.50Q836 64 758.50 25Q681-14 583-14Q493-14 431 19.50Q369 53 320 113L320-330L144-330M578 854Q496 854 434 816Q372 778 320 708L320 236Q366 173 421 147.50Q476 122 544 122Q677 122 749 219Q821 316 821 496Q821 591 804.50 659Q788 727 757 770.50Q726 814 680.50 834Q635 854 578 854Z"  horiz-adv-x="1076" vert-adv-y="2048"  />

      
      <glyph glyph-name="uni71" unicode="&#x71;" d="M935 978L935-330L759-330L759 143Q698 71 620 28.50Q542-14 442-14Q358-14 290 18.50Q222 51 174 114Q126 177 100 270.50Q74 364 74 486Q74 594 103 687.50Q132 781 186 849Q240 917 318 956Q396 995 494 995Q589 995 654.50 961.50Q720 928 771 867L784 942Q791 978 830 978L935 978M499 127Q582 127 644 165.50Q706 204 759 273L759 746Q714 807 657.50 833.50Q601 860 534 860Q400 860 327.50 763Q255 666 255 486Q255 391 271.50 323Q288 255 319.50 211.50Q351 168 396.50 147.50Q442 127 499 127Z"  horiz-adv-x="1076" vert-adv-y="2048"  />

      
      <glyph glyph-name="uni72" unicode="&#x72;" d="M131 0L131 978L232 978Q260 978 271.50 967Q283 956 285 930L297 786Q342 883 408 939Q474 995 567 995Q598 995 625 988.50Q652 982 674 967L660 837Q657 812 632 812Q618 812 592.50 817.50Q567 823 536 823Q491 823 456.50 809.50Q422 796 394.50 769.50Q367 743 346 705Q325 667 307 618L307 0L131 0Z"  horiz-adv-x="714" vert-adv-y="2048"  />

      
      <glyph glyph-name="uni73" unicode="&#x73;" d="M679 816Q667 794 643 794Q628 794 610.50 805Q593 816 568.50 828.50Q544 841 510.50 852Q477 863 431 863Q392 863 361 852Q330 841 308 822Q286 803 274 777.50Q262 752 262 723Q262 685 282 660Q302 635 335 617Q368 599 410.50 584.50Q453 570 497 555Q541 540 583.50 520Q626 500 659 471Q692 442 712 400.50Q732 359 732 300Q732 232 709 174.50Q686 117 641.50 75Q597 33 531.50 9Q466-15 381-15Q284-15 204.50 18Q125 51 70 104L111 170Q119 183 130 190Q141 197 158 197Q176 197 194 183.50Q212 170 237.50 153.50Q263 137 299 123.50Q335 110 389 110Q435 110 468.50 123Q502 136 524 157.50Q546 179 557 208Q568 237 568 269Q568 309 547.50 335.50Q527 362 494 380.50Q461 399 418.50 413Q376 427 331.50 442.50Q287 458 244.50 477.50Q202 497 169 527.50Q136 558 115.50 602Q95 646 95 709Q95 766 117 817.50Q139 869 181 908Q223 947 285 970Q347 993 427 993Q518 993 592 963Q666 933 718 879L679 816Z"  horiz-adv-x="801" vert-adv-y="2048"  />

      
      <glyph glyph-name="uni015F" unicode="&#x015F;" d="M265-243Q271-243 278.50-246.50Q286-250 297-254Q308-258 322.50-261.50Q337-265 358-265Q398-265 418.50-249Q439-233 439-208Q439-171 398.50-156.50Q358-142 284-132L324-12Q246-3 181.50 28Q117 59 70 104L111 170Q119 183 130 190Q141 197 158 197Q176 197 194 183.50Q212 170 237.50 153.50Q263 137 299 123.50Q335 110 389 110Q435 110 468.50 123Q502 136 524 157.50Q546 179 557 208Q568 237 568 269Q568 309 547.50 335.50Q527 362 494 380.50Q461 399 418.50 413Q376 427 331.50 442.50Q287 458 244.50 477.50Q202 497 169 527.50Q136 558 115.50 602Q95 646 95 709Q95 766 117 817.50Q139 869 181 908Q223 947 285 970Q347 993 427 993Q518 993 592 963Q666 933 718 879L679 816Q667 794 643 794Q628 794 610.50 805Q593 816 568.50 828.50Q544 841 510.50 852Q477 863 431 863Q392 863 361 852Q330 841 308 822Q286 803 274 777.50Q262 752 262 723Q262 685 282 660Q302 635 335 617Q368 599 410.50 584.50Q453 570 497 555Q541 540 583.50 520Q626 500 659 471Q692 442 712 400.50Q732 359 732 300Q732 237 712 182.50Q692 128 653 86.50Q614 45 556.50 19Q499-7 425-13L408-72Q498-90 537.50-124Q577-158 577-210Q577-241 561.50-266Q546-291 518.50-308Q491-325 452-334.50Q413-344 367-344Q328-344 292-336Q256-328 226-314L243-260Q249-243 265-243Z"  horiz-adv-x="801" vert-adv-y="2048"  />

      
      <glyph glyph-name="unidf" unicode="&#xdf;" d="M580 1404Q676 1404 746 1375Q816 1346 861 1301Q906 1256 927.50 1202.50Q949 1149 949 1100Q949 1043 930 1001Q911 959 882.50 927.50Q854 896 820.50 871.50Q787 847 758.50 824.50Q730 802 711 777.50Q692 753 692 722Q692 684 716 659Q740 634 775.50 612.50Q811 591 852.50 568Q894 545 929.50 511.50Q965 478 989 428.50Q1013 379 1013 304Q1013 229 986.50 170Q960 111 914 69.50Q868 28 806 6.50Q744-15 672-15Q585-15 512 18Q439 51 385 103L426 170Q434 183 444.50 190Q455 197 472 197Q490 197 508 183.50Q526 170 550.50 153.50Q575 137 607.50 123.50Q640 110 687 110Q724 110 754 122.50Q784 135 805 157.50Q826 180 837 210.50Q848 241 848 276Q848 330 823 363.50Q798 397 760 421.50Q722 446 678 467Q634 488 596 515.50Q558 543 533 583.50Q508 624 508 688Q508 740 528 777.50Q548 815 578 845.50Q608 876 643.50 902Q679 928 709 956.50Q739 985 759 1019Q779 1053 779 1100Q779 1131 768 1162Q757 1193 732 1218Q707 1243 668 1259Q629 1275 573 1275Q512 1275 463 1254.50Q414 1234 379.50 1193.50Q345 1153 326 1092.50Q307 1032 307 951L307 0L131 0L131 956Q131 1056 163 1139Q195 1222 253.50 1280.50Q312 1339 395 1371.50Q478 1404 580 1404Z"  horiz-adv-x="1080" vert-adv-y="2048"  />

      
      <glyph glyph-name="uni017F" unicode="&#x017F;" d="M165 0L165 831L69 844Q49 846 36 857Q23 868 23 888L23 960L165 960L165 1053Q165 1137 187.50 1202.50Q210 1268 252 1312.50Q294 1357 353.50 1380.50Q413 1404 487 1404Q547 1404 602 1385L595 1294Q594 1284 588 1280Q582 1276 571.50 1275Q561 1274 546.50 1274.50Q532 1275 515 1275Q474 1275 442 1263Q410 1251 387.50 1224Q365 1197 353 1153.50Q341 1110 341 1048L341 0L165 0Z"  horiz-adv-x="497" vert-adv-y="2048"  />

      
      <glyph glyph-name="uni74" unicode="&#x74;" d="M417-15Q304-15 243 50Q182 115 182 236L182 832L70 832Q55 832 44.50 842Q34 852 34 871L34 941L188 961L229 1262Q231 1277 241.50 1286Q252 1295 268 1295L358 1295L358 960L627 960L627 832L358 832L358 248Q358 188 385.50 158Q413 128 457 128Q483 128 501.50 135Q520 142 533 151Q546 160 555.50 167Q565 174 573 174Q582 174 587.50 170Q593 166 598 157L650 73Q605 31 544 8Q483-15 417-15Z"  horiz-adv-x="686" vert-adv-y="2048"  />

      
      <glyph glyph-name="uni0165" unicode="&#x0165;" d="M34 0M417-15Q304-15 243 50Q182 115 182 236L182 832L70 832Q55 832 44.50 842Q34 852 34 871L34 941L188 961L229 1262Q231 1277 241.50 1286Q252 1295 268 1295L358 1295L358 960L627 960L627 832L358 832L358 248Q358 188 385.50 158Q413 128 457 128Q483 128 501.50 135Q520 142 533 151Q546 160 555.50 167Q565 174 573 174Q582 174 587.50 170Q593 166 598 157L650 73Q605 31 544 8Q483-15 417-15M687 1424Q708 1424 713.50 1413.50Q719 1403 719 1392Q719 1383 715.50 1367Q712 1351 703 1322.50Q694 1294 678.50 1250.50Q663 1207 639 1143Q631 1121 616 1114Q601 1107 577 1107L516 1107L570 1424L687 1424Z"  horiz-adv-x="708" vert-adv-y="2048"  />

      
      <glyph glyph-name="uni0167" unicode="&#x0167;" d="M42 668L182 668L182 832L70 832Q55 832 44.50 842Q34 852 34 871L34 941L188 961L229 1262Q231 1277 241.50 1286Q252 1295 268 1295L358 1295L358 960L627 960L627 832L358 832L358 668L632 668L632 557L358 557L358 248Q358 188 385.50 158Q413 128 457 128Q483 128 501.50 135Q520 142 533 151Q546 160 555.50 167Q565 174 573 174Q582 174 587.50 170Q593 166 598 157L650 73Q605 31 544 8Q483-15 417-15Q304-15 243 50Q182 115 182 236L182 557L42 557L42 668Z"  horiz-adv-x="700" vert-adv-y="2048"  />

      
      <glyph glyph-name="uni75" unicode="&#x75;" d="M301 978L301 355Q301 245 350.50 184.50Q400 124 501 124Q576 124 640.50 159.50Q705 195 760 257L760 978L936 978L936 0L830 0Q812 0 800 8.50Q788 17 786 36L770 140Q707 70 629.50 27.50Q552-15 450-15Q370-15 309.50 11.50Q249 38 208 86.50Q167 135 146 203.50Q125 272 125 355L125 978L301 978Z"  horiz-adv-x="1076" vert-adv-y="2048"  />

      
      <glyph glyph-name="uni0173" unicode="&#x0173;" d="M301 978L301 355Q301 245 350.50 184.50Q400 124 501 124Q576 124 640.50 159.50Q705 195 760 257L760 978L936 978L936 1L948 0Q929-11 909.50-25.50Q890-40 873.50-59Q857-78 846.50-100Q836-122 836-147Q836-183 860-204Q884-225 922-225Q944-225 958-221.50Q972-218 982-214Q992-210 998-206.50Q1004-203 1009-203Q1022-203 1027-215L1054-280Q1025-302 980.50-316Q936-330 886-330Q801-330 752.50-292Q704-254 704-190Q704-134 741.50-85Q779-36 837 0L830 0Q812 0 800 8.50Q788 17 786 36L770 140Q707 70 629.50 27.50Q552-15 450-15Q370-15 309.50 11.50Q249 38 208 86.50Q167 135 146 203.50Q125 272 125 355L125 978L301 978Z"  horiz-adv-x="1076" vert-adv-y="2048"  />

      
      <glyph glyph-name="uni76" unicode="&#x76;" d="M542 0L383 0L19 978L164 978Q184 978 198 967Q212 956 217 942L426 316Q439 281 448 248Q457 215 465 181Q472 214 481.50 247.50Q491 281 505 316L717 942Q723 957 736.50 967.50Q750 978 767 978L906 978L542 0Z"  horiz-adv-x="925" vert-adv-y="2048"  />

      
      <glyph glyph-name="uni77" unicode="&#x77;" d="M21 978L160 978Q180 978 194 967Q208 956 212 941L387 317Q397 283 404 250.50Q411 218 416 186Q424 218 434 250.50Q444 283 455 318L649 946Q654 961 667 970.50Q680 980 698 980L774 980Q794 980 806.50 970.50Q819 961 824 946L1014 318Q1025 284 1034 251Q1043 218 1051 186Q1062 251 1082 318L1261 942Q1266 958 1279 968Q1292 978 1311 978L1443 978L1136 0L996 0Q971 0 961 33L756 692Q748 715 742.50 737.50Q737 760 732 783Q727 760 722 737Q717 714 709 691L501 33Q490 0 462 0L329 0L21 978Z"  horiz-adv-x="1464" vert-adv-y="2048"  />

      
      <glyph glyph-name="uni78" unicode="&#x78;" d="M327 502L36 978L204 978Q224 978 233.50 971Q243 964 251 952L455 597Q459 608 463.50 618.50Q468 629 476 640L647 948Q656 962 666 970Q676 978 690 978L851 978L559 511L864 0L695 0Q675 0 662.50 11.50Q650 23 642 36L435 406Q427 383 417 367L230 36Q222 22 210.50 11Q199 0 180 0L23 0L327 502Z"  horiz-adv-x="887" vert-adv-y="2048"  />

      
      <glyph glyph-name="uni79" unicode="&#x79;" d="M409-288Q401-308 387.50-319Q374-330 348-330L217-330L385 58L11 978L163 978Q186 978 198 967Q210 956 216 942L444 330Q452 309 459.50 288Q467 267 472 246Q478 268 485.50 289.50Q493 311 501 332L722 942Q728 957 742 967.50Q756 978 773 978L913 978L409-288Z"  horiz-adv-x="927" vert-adv-y="2048"  />

      
      <glyph glyph-name="uni7a" unicode="&#x7a;" d="M749 904Q749 885 742.50 867.50Q736 850 726 836L263 137L734 137L734 0L60 0L60 73Q60 86 66.50 103Q73 120 84 136L548 841L87 841L87 978L749 978L749 904Z"  horiz-adv-x="809" vert-adv-y="2048"  />

      
      <glyph glyph-name="uniaa" unicode="&#xaa;" d="M599 811Q581 811 572 816.50Q563 822 555 839L543 886Q520 865 498 849.50Q476 834 452 823.50Q428 813 401 807.50Q374 802 341 802Q305 802 273.50 812Q242 822 218.50 841.50Q195 861 182 890Q169 919 169 958Q169 991 187 1023.50Q205 1056 247.50 1081.50Q290 1107 360 1124Q430 1141 533 1143L533 1178Q533 1239 505.50 1267.50Q478 1296 424 1296Q388 1296 363.50 1287.50Q339 1279 321 1269.50Q303 1260 289 1251.50Q275 1243 259 1243Q246 1243 236.50 1250.50Q227 1258 222 1267L199 1307Q250 1355 309 1377.50Q368 1400 439 1400Q491 1400 531.50 1383.50Q572 1367 600 1337.50Q628 1308 643 1267.50Q658 1227 658 1178L658 811L599 811M380 892Q428 892 463 910Q498 928 533 961L533 1062Q466 1060 420 1052Q374 1044 345.50 1031.50Q317 1019 304.50 1002Q292 985 292 965Q292 925 317 908.50Q342 892 380 892Z"  horiz-adv-x="824" vert-adv-y="2048"  />

      
      <glyph glyph-name="uniba" unicode="&#xba;" d="M433 1399Q501 1399 556 1378Q611 1357 650 1318.50Q689 1280 710.50 1224.50Q732 1169 732 1100Q732 1031 710.50 975Q689 919 650 880Q611 841 556 820Q501 799 433 799Q365 799 309.50 820Q254 841 215 880Q176 919 154.50 975Q133 1031 133 1100Q133 1169 154.50 1224.50Q176 1280 215 1318.50Q254 1357 309.50 1378Q365 1399 433 1399M433 903Q514 903 554 953Q594 1003 594 1099Q594 1195 554 1245Q514 1295 433 1295Q350 1295 310.50 1245Q271 1195 271 1099Q271 1003 310.50 953Q350 903 433 903Z"  horiz-adv-x="865" vert-adv-y="2048"  />

      
      <glyph glyph-name="uni207F" unicode="&#x207F;" d="M160 886L160 1386L225 1386Q239 1386 246.50 1380Q254 1374 257 1359L266 1315Q298 1350 336.50 1372Q375 1394 429 1394Q470 1394 501.50 1380Q533 1366 554 1340.50Q575 1315 586 1280.50Q597 1246 597 1204L597 886L473 886L473 1204Q473 1248 453 1272Q433 1296 391 1296Q361 1296 334 1282Q307 1268 284 1245L284 886L160 886Z"  horiz-adv-x="742" vert-adv-y="2048"  />

      
      <glyph glyph-name="uni60" unicode="&#x60;" d="M302 1399Q334 1399 350 1388.50Q366 1378 379 1356L522 1123L422 1123Q402 1123 389 1129Q376 1135 362 1150L136 1399L302 1399Z"  horiz-adv-x="596" vert-adv-y="2048"  />

      
      <glyph glyph-name="unib4" unicode="&#xb4;" d="M473 1399L247 1150Q233 1135 219.50 1129Q206 1123 186 1123L81 1123L224 1356Q237 1378 253 1388.50Q269 1399 301 1399L473 1399Z"  horiz-adv-x="598" vert-adv-y="2048"  />

      
      <glyph glyph-name="uni02C6" unicode="&#x02C6;" d="M703 1128L585 1128Q574 1128 563 1132Q552 1136 541 1147L423 1272Q418 1276 414.50 1281Q411 1286 407 1291L391 1273L272 1147Q254 1128 228 1128L106 1128L323 1383L485 1383L703 1128Z"  horiz-adv-x="809" vert-adv-y="2048"  />

      
      <glyph glyph-name="uni02C7" unicode="&#x02C7;" d="M106 1383L228 1383Q253 1383 267 1369L390 1238Q398 1229 406 1219L423 1238L546 1368Q552 1374 563 1378.50Q574 1383 585 1383L703 1383L485 1128L323 1128L106 1383Z"  horiz-adv-x="809" vert-adv-y="2048"  />

      
      <glyph glyph-name="uni0315" unicode="&#x0315;" d="M332 1424Q353 1424 358.50 1413.50Q364 1403 364 1392Q364 1383 360.50 1367Q357 1351 348 1322.50Q339 1294 323.50 1250.50Q308 1207 284 1143Q276 1121 261 1114Q246 1107 222 1107L161 1107L215 1424L332 1424Z"  horiz-adv-x="511" vert-adv-y="2048"  />

      
      <glyph glyph-name="uni02DC" unicode="&#x02DC;" d="M568 1280Q610 1280 629.50 1300Q649 1320 661 1363L747 1363Q747 1317 734.50 1279Q722 1241 699.50 1213.50Q677 1186 645 1171Q613 1156 574 1156Q541 1156 511.50 1169.50Q482 1183 456 1199.50Q430 1216 406.50 1230Q383 1244 361 1244Q319 1244 296 1221Q273 1198 265 1160L181 1160Q181 1206 194 1244.50Q207 1283 230 1310.50Q253 1338 285 1353Q317 1368 355 1368Q389 1368 418.50 1354Q448 1340 474 1323.50Q500 1307 523 1293.50Q546 1280 568 1280Z"  horiz-adv-x="922" vert-adv-y="2048"  />

      
      <glyph glyph-name="unia8" unicode="&#xa8;" d="M105 1134M327 1244Q327 1221 318 1201Q309 1181 293.50 1166Q278 1151 257.50 1142.50Q237 1134 215 1134Q192 1134 172 1142.50Q152 1151 137 1166Q122 1181 113.50 1201Q105 1221 105 1244Q105 1267 113.50 1287Q122 1307 137 1322Q152 1337 172 1346Q192 1355 215 1355Q237 1355 257.50 1346Q278 1337 293.50 1322Q309 1307 318 1287Q327 1267 327 1244M697 1244Q697 1221 688 1201Q679 1181 663.50 1166Q648 1151 627.50 1142.50Q607 1134 585 1134Q562 1134 542 1142.50Q522 1151 507 1166Q492 1181 483.50 1201Q475 1221 475 1244Q475 1267 483.50 1287Q492 1307 507 1322Q522 1337 542 1346Q562 1355 585 1355Q607 1355 627.50 1346Q648 1337 663.50 1322Q679 1307 688 1287Q697 1267 697 1244Z"  horiz-adv-x="804" vert-adv-y="2048"  />

      
      <glyph glyph-name="uniaf" unicode="&#xaf;" d="M126 1301L681 1301L681 1187L126 1187L126 1301Z"  horiz-adv-x="807" vert-adv-y="2048"  />

      
      <glyph glyph-name="uni02D8" unicode="&#x02D8;" d="M391 1123Q316 1123 265 1144Q214 1165 182.50 1200.50Q151 1236 137.50 1283Q124 1330 124 1383L248 1383Q248 1351 254.50 1324.50Q261 1298 277.50 1278.50Q294 1259 321.50 1248Q349 1237 391 1237Q432 1237 459 1248Q486 1259 502.50 1278.50Q519 1298 525.50 1324.50Q532 1351 532 1383L656 1383Q656 1330 642.50 1283Q629 1236 598 1200.50Q567 1165 516 1144Q465 1123 391 1123Z"  horiz-adv-x="780" vert-adv-y="2048"  />

      
      <glyph glyph-name="uni02DA" unicode="&#x02DA;" d="M135 1269Q135 1309 150.50 1342.50Q166 1376 192.50 1400Q219 1424 254 1437.50Q289 1451 328 1451Q367 1451 402.50 1437.50Q438 1424 465 1400Q492 1376 507.50 1342.50Q523 1309 523 1269Q523 1230 507.50 1197Q492 1164 465 1140.50Q438 1117 402.50 1104Q367 1091 328 1091Q289 1091 254 1104Q219 1117 192.50 1140.50Q166 1164 150.50 1197Q135 1230 135 1269M233 1269Q233 1227 259 1200Q285 1173 330 1173Q372 1173 398.50 1200Q425 1227 425 1269Q425 1313 398.50 1339.50Q372 1366 330 1366Q285 1366 259 1339.50Q233 1313 233 1269Z"  horiz-adv-x="657" vert-adv-y="2048"  />

      
      <glyph glyph-name="uni02DD" unicode="&#x02DD;" d="M599 1399L406 1150Q394 1134 379.50 1128.50Q365 1123 345 1123L272 1123L405 1356Q417 1378 433.50 1388.50Q450 1399 482 1399L599 1399M903 1399L669 1150Q655 1136 642 1129.50Q629 1123 609 1123L525 1123L698 1356Q713 1377 728 1388Q743 1399 775 1399L903 1399Z"  horiz-adv-x="961" vert-adv-y="2048"  />

      
      <glyph glyph-name="uni02D9" unicode="&#x02D9;" d="M355 1291Q355 1266 345 1243.50Q335 1221 317.50 1204.50Q300 1188 277.50 1178Q255 1168 230 1168Q205 1168 183 1178Q161 1188 144.50 1204.50Q128 1221 118 1243.50Q108 1266 108 1291Q108 1317 118 1339.50Q128 1362 144.50 1379Q161 1396 183 1406Q205 1416 230 1416Q255 1416 277.50 1406Q300 1396 317.50 1379Q335 1362 345 1339.50Q355 1317 355 1291Z"  horiz-adv-x="462" vert-adv-y="2048"  />

      
      <glyph glyph-name="unib8" unicode="&#xb8;" d="M201-243Q207-243 214.50-246.50Q222-250 233-254Q244-258 258.50-261.50Q273-265 294-265Q334-265 354.50-249Q375-233 375-208Q375-171 334.50-156.50Q294-142 220-132L272 25L372 25L344-72Q434-90 473.50-124Q513-158 513-210Q513-241 497.50-266Q482-291 454.50-308Q427-325 388-334.50Q349-344 303-344Q264-344 228-336Q192-328 162-314L179-260Q185-243 201-243Z"  horiz-adv-x="629" vert-adv-y="2048"  />

      
      <glyph glyph-name="uni02DB" unicode="&#x02DB;" d="M458-203Q471-203 476-215L503-280Q474-302 429.50-316Q385-330 335-330Q250-330 201.50-292Q153-254 153-190Q153-160 164.50-131.50Q176-103 197-77.50Q218-52 246-29Q274-6 307 12L397 0Q378-11 358.50-25.50Q339-40 322.50-59Q306-78 295.50-100Q285-122 285-147Q285-183 309-204Q333-225 371-225Q393-225 407-221.50Q421-218 431-214Q441-210 447-206.50Q453-203 458-203Z"  horiz-adv-x="639" vert-adv-y="2048"  />

      
      <glyph glyph-name="uni0393" unicode="&#x0393;" d="M800 1172L301 1172L301 0L118 0L118 1314L800 1314L800 1172Z"  horiz-adv-x="851" vert-adv-y="2048"  />

      
      <glyph glyph-name="uni0394" unicode="&#x0394;" d="M25 52Q25 77 30 104Q35 131 47 159L471 1314L657 1314L1079 163Q1101 110 1101 53L1101 0L25 0L25 52M207 146L900 146L599 1017Q577 1070 557 1152Q548 1111 537 1077Q526 1043 515 1016L207 146Z"  horiz-adv-x="1156" vert-adv-y="2048"  />

      
      <glyph glyph-name="uni0398" unicode="&#x0398;" d="M499 738L970 738L970 591L499 591L499 738M1284 657Q1284 509 1240.50 386Q1197 263 1117.50 174Q1038 85 926.50 35.50Q815-14 679-14Q544-14 432 35.50Q320 85 240 174Q160 263 116 386Q72 509 72 657Q72 804 116 927.50Q160 1051 240 1140.50Q320 1230 432 1279.50Q544 1329 679 1329Q815 1329 926.50 1279.50Q1038 1230 1117.50 1140.50Q1197 1051 1240.50 927.50Q1284 804 1284 657M1098 657Q1098 777 1068.50 872.50Q1039 968 984.50 1034.50Q930 1101 852.50 1136.50Q775 1172 679 1172Q583 1172 505.50 1136.50Q428 1101 373 1034.50Q318 968 288.50 872.50Q259 777 259 657Q259 537 288.50 441.50Q318 346 373 279.50Q428 213 505.50 178Q583 143 679 143Q775 143 852.50 178Q930 213 984.50 279.50Q1039 346 1068.50 441.50Q1098 537 1098 657Z"  horiz-adv-x="1356" vert-adv-y="2048"  />

      
      <glyph glyph-name="uni039B" unicode="&#x039B;" d="M1166 0L1009 0Q986 0 971 12Q956 24 948 42L619 963Q607 994 595.50 1030.50Q584 1067 574 1107Q566 1067 555.50 1030Q545 993 533 962L205 43Q198 26 182.50 13Q167 0 144 0L7 0L505 1314L669 1314L1166 0Z"  horiz-adv-x="1173" vert-adv-y="2048"  />

      
      <glyph glyph-name="uni039E" unicode="&#x039E;" d="M943 1314L943 1161L66 1161L66 1314L943 1314M943 153L943 0L66 0L66 153L943 153M267 743L740 743L740 585L267 585L267 743Z"  horiz-adv-x="1007" vert-adv-y="2048"  />

      
      <glyph glyph-name="uni03A0" unicode="&#x03A0;" d="M1136 0L953 0L953 1172L323 1172L323 0L140 0L140 1314L1136 1314L1136 0Z"  horiz-adv-x="1276" vert-adv-y="2048"  />

      
      <glyph glyph-name="uni03A3" unicode="&#x03A3;" d="M627 673Q627 663 625 654Q623 645 617.50 633.50Q612 622 603 608Q594 594 581 575L311 214Q300 197 291.50 184Q283 171 276 161.50Q269 152 262.50 145Q256 138 249 132Q283 137 311.50 139.50Q340 142 365 142L882 142L882 0L58 0L58 68Q58 88 67.50 108.50Q77 129 91 145L476 655L80 1183Q71 1194 64.50 1208Q58 1222 58 1236L58 1314L882 1314L882 1172L387 1172Q345 1172 311 1175Q277 1178 244 1185Q275 1165 293.50 1142.50Q312 1120 335 1087L583 761Q596 741 604.50 728Q613 715 618 705.50Q623 696 625 688.50Q627 681 627 673Z"  horiz-adv-x="939" vert-adv-y="2048"  />

      
      <glyph glyph-name="uni03A6" unicode="&#x03A6;" d="M865 1249Q1009 1248 1124 1201Q1239 1154 1320 1073.50Q1401 993 1444 886.50Q1487 780 1487 660Q1487 539 1444 432.50Q1401 326 1320 246Q1239 166 1124 119.50Q1009 73 865 72L865-104L693-104L693 72Q548 73 432.50 119.50Q317 166 236 246Q155 326 112 432.50Q69 539 69 660Q69 780 112.50 886.50Q156 993 237 1073.50Q318 1154 433.50 1201Q549 1248 693 1249L693 1419L865 1419L865 1249M246 660Q246 569 277.50 488.50Q309 408 367 347Q425 286 507.50 250.50Q590 215 693 214L693 1107Q590 1106 507.50 1070Q425 1034 367 973.50Q309 913 277.50 832Q246 751 246 660M1310 660Q1310 751 1278.50 832Q1247 913 1189.50 973.50Q1132 1034 1049.50 1070Q967 1106 865 1107L865 214Q967 215 1049.50 250.50Q1132 286 1189.50 347Q1247 408 1278.50 488.50Q1310 569 1310 660Z"  horiz-adv-x="1555" vert-adv-y="2048"  />

      
      <glyph glyph-name="uni03A8" unicode="&#x03A8;" d="M220 1314Q249 1314 265.50 1295.50Q282 1277 282 1251L282 845Q282 758 304.50 689.50Q327 621 374.50 573Q422 525 496.50 498Q571 471 675 467L675 1314L859 1314L859 467Q963 471 1037.50 498Q1112 525 1159.50 573Q1207 621 1229.50 689Q1252 757 1252 845L1252 1251Q1252 1277 1269 1295.50Q1286 1314 1315 1314L1437 1314L1437 845Q1437 728 1400 633.50Q1363 539 1290 471Q1217 403 1109 364Q1001 325 859 320L859 0L675 0L675 320Q534 325 426.50 364Q319 403 246 471Q173 539 136 633.50Q99 728 99 845L99 1314L220 1314Z"  horiz-adv-x="1536" vert-adv-y="2048"  />

      
      <glyph glyph-name="uni03A9" unicode="&#x03A9;" d="M779 210Q846 224 904.50 268Q963 312 1005.50 379Q1048 446 1072.50 531.50Q1097 617 1097 713Q1097 827 1063 913Q1029 999 972 1056.50Q915 1114 839.50 1142.50Q764 1171 680 1171Q596 1171 520.50 1142.50Q445 1114 387.50 1056.50Q330 999 296.50 913Q263 827 263 713Q263 617 287.50 531.50Q312 446 355 379Q398 312 456 268Q514 224 581 210L581 0L131 0Q103 0 86 16.50Q69 33 69 59L69 153L304 153Q339 153 376.50 149Q414 145 450 140Q370 168 302.50 222Q235 276 186 351Q137 426 109.50 518.50Q82 611 82 716Q82 807 103 888Q124 969 163 1037Q202 1105 256.50 1159Q311 1213 377.50 1250.50Q444 1288 520.50 1308Q597 1328 680 1328Q804 1328 913 1283.50Q1022 1239 1103 1158.50Q1184 1078 1231 965.50Q1278 853 1278 716Q1278 611 1250.50 518.50Q1223 426 1174 351Q1125 276 1057.50 222Q990 168 910 140Q946 145 983.50 149Q1021 153 1056 153L1291 153L1291 59Q1291 33 1274.50 16.50Q1258 0 1229 0L779 0L779 210Z"  horiz-adv-x="1360" vert-adv-y="2048"  />

      
      <glyph glyph-name="uni03B1" unicode="&#x03B1;" d="M1029-8Q990-8 954.50 2.50Q919 13 889 34.50Q859 56 836 89.50Q813 123 800 169Q769 121 730.50 86Q692 51 649 29Q606 7 561-3.50Q516-14 471-14Q388-14 316 19.50Q244 53 191 115.50Q138 178 107.50 268Q77 358 77 472Q77 592 111 689Q145 786 204.50 854Q264 922 344.50 958.50Q425 995 518 995Q571 995 617.50 983Q664 971 703.50 950.50Q743 930 775 901.50Q807 873 831 840L851 942Q857 978 896 978L1001 978L948 456Q943 408 939.50 362.50Q936 317 936 279Q936 237 948 207.50Q960 178 981 159.50Q1002 141 1030 132Q1058 123 1090 123L1148 123L1148 52Q1148 29 1117 10.50Q1086-8 1029-8M512 127Q562 127 606.50 145.50Q651 164 686.50 202.50Q722 241 746 300Q770 359 778 440L804 685Q790 719 766.50 750.50Q743 782 711 806.50Q679 831 638.50 845.50Q598 860 549 860Q490 860 437.50 837Q385 814 345 767Q305 720 281.50 648Q258 576 258 477Q258 385 278.50 319Q299 253 334 210Q369 167 415 147Q461 127 512 127Z"  horiz-adv-x="1162" vert-adv-y="2048"  />

      
      <glyph glyph-name="uni03B2" unicode="&#x03B2;" d="M588-14Q505-14 439.50 12.50Q374 39 326 96L326-353L150-353L150 880Q150 1129 249 1263Q348 1397 553 1397Q649 1397 719 1369Q789 1341 834.50 1294.50Q880 1248 902.50 1187Q925 1126 925 1061Q925 951 869.50 874Q814 797 715 764Q786 747 841.50 714Q897 681 935.50 634.50Q974 588 994 529.50Q1014 471 1014 403Q1014 319 983.50 243Q953 167 897.50 110Q842 53 763.50 19.50Q685-14 588-14M512 829Q566 829 611.50 840.50Q657 852 690 878Q723 904 741 945Q759 986 759 1045Q759 1154 703 1211Q647 1268 549 1268Q492 1268 450 1246.50Q408 1225 380.50 1178Q353 1131 339.50 1056Q326 981 326 875L326 241Q367 181 418 152Q469 123 545 123Q617 123 671.50 146Q726 169 762 209.50Q798 250 816.50 304Q835 358 835 420Q835 494 811 545.50Q787 597 746 629Q705 661 650 675.50Q595 690 533 690L473 690L473 829L512 829Z"  horiz-adv-x="1088" vert-adv-y="2048"  />

      
      <glyph glyph-name="uni03B3" unicode="&#x03B3;" d="M351-330L351 84Q322 246 289 386.50Q256 527 215.50 631Q175 735 126.50 794.50Q78 854 19 854L-14 854L-14 919Q-14 932-10.50 944Q-7 956 3 965Q13 974 30.50 979.50Q48 985 76 985Q159 985 222.50 936Q286 887 333.50 792.50Q381 698 414.50 559Q448 420 471 241Q512 314 546 396Q580 478 607.50 564.50Q635 651 656 740.50Q677 830 692 918Q698 952 712.50 965Q727 978 746 978L894 978Q870 857 832 739Q794 621 746.50 509Q699 397 643 291.50Q587 186 527 89L527-330L351-330Z"  horiz-adv-x="914" vert-adv-y="2048"  />

      
      <glyph glyph-name="uni03B4" unicode="&#x03B4;" d="M867 1250Q864 1226 852.50 1218.50Q841 1211 818 1211Q806 1211 775 1217.50Q744 1224 704.50 1232.50Q665 1241 620 1247.50Q575 1254 535 1254Q491 1254 461 1247Q431 1240 412.50 1228Q394 1216 385.50 1199.50Q377 1183 377 1165Q377 1131 403.50 1101.50Q430 1072 473.50 1043.50Q517 1015 572.50 984.50Q628 954 686.50 917.50Q745 881 800.50 836Q856 791 899.50 733Q943 675 969.50 602Q996 529 996 437Q996 337 964 254.50Q932 172 872 112.50Q812 53 727.50 20.50Q643-12 538-12Q428-12 342 23Q256 58 197 119.50Q138 181 107 264Q76 347 76 444Q76 606 164.50 720Q253 834 430 895Q385 921 345.50 948Q306 975 276 1007Q246 1039 228.50 1077.50Q211 1116 211 1164Q211 1212 230 1254Q249 1296 290 1327Q331 1358 394 1375.50Q457 1393 546 1393Q579 1393 621.50 1390.50Q664 1388 708.50 1383Q753 1378 797.50 1371.50Q842 1365 880 1357L867 1250M820 431Q820 509 797 569Q774 629 735.50 676Q697 723 647.50 759.50Q598 796 545 828Q488 808 436 776.50Q384 745 344 699.50Q304 654 280.50 592Q257 530 257 449Q257 383 274 323.50Q291 264 326 219.50Q361 175 414 148.50Q467 122 538 122Q601 122 652.50 143.50Q704 165 741.50 204.50Q779 244 799.50 301.50Q820 359 820 431Z"  horiz-adv-x="1072" vert-adv-y="2048"  />

      
      <glyph glyph-name="uni03B5" unicode="&#x03B5;" d="M828 810Q818 794 809.50 789.50Q801 785 788 785Q775 785 756.50 796Q738 807 708 820.50Q678 834 635 845.50Q592 857 530 857Q471 857 427 846Q383 835 354 815.50Q325 796 310.50 770.50Q296 745 296 716Q296 684 313.50 657.50Q331 631 363.50 611.50Q396 592 442 581Q488 570 546 570L717 570L717 453L546 453Q412 453 346 410Q280 367 280 295Q280 257 297.50 225.50Q315 194 347 171Q379 148 425 135Q471 122 528 122Q597 122 643 137Q689 152 720 170Q751 188 771 203Q791 218 809 218Q820 218 828.50 213.50Q837 209 843 201L892 137Q859 98 816 69.50Q773 41 724 23Q675 5 622.50-3.50Q570-12 518-12Q432-12 356.50 8Q281 28 224.50 66Q168 104 135 158Q102 212 102 280Q102 364 155 423.50Q208 483 299 513Q252 531 219.50 556Q187 581 166.50 610Q146 639 136.50 670Q127 701 127 731Q127 782 152 829.50Q177 877 226.50 913.50Q276 950 351 971.50Q426 993 527 993Q643 993 727 961Q811 929 869 877L828 810Z"  horiz-adv-x="933" vert-adv-y="2048"  />

      
      <glyph glyph-name="uni03B6" unicode="&#x03B6;" d="M716 1309Q718 1300 715.50 1289Q713 1278 702.50 1262Q692 1246 671.50 1223Q651 1200 618 1166Q579 1124 535 1076Q491 1028 448.50 974Q406 920 366.50 861.50Q327 803 297.50 739.50Q268 676 250 608.50Q232 541 232 470Q232 405 247 359Q262 313 292 280.50Q322 248 365.50 225Q409 202 466 183Q548 156 599.50 126.50Q651 97 679.50 65Q708 33 718-2Q728-37 728-74Q728-139 707.50-199Q687-259 652-319L516-265Q533-234 548.50-193.50Q564-153 564-111Q564-92 558-73.50Q552-55 532.50-36Q513-17 476.50 2Q440 21 380 41Q303 65 244 97.50Q185 130 144.50 176.50Q104 223 83 285.50Q62 348 62 433Q62 545 97 648.50Q132 752 193.50 852Q255 952 339.50 1051.50Q424 1151 523 1255Q467 1247 406.50 1243Q346 1239 282 1239L182 1239Q162 1239 148 1244.50Q134 1250 125.50 1258.50Q117 1267 113 1277Q109 1287 109 1297L109 1383L700 1383L716 1309Z"  horiz-adv-x="712" vert-adv-y="2048"  />

      
      <glyph glyph-name="uni03B7" unicode="&#x03B7;" d="M982-330L806-330L806 623Q806 732 759.50 793Q713 854 619 854Q549 854 488.50 819Q428 784 376 722L376 0L200 0L200 712Q200 787 170.50 821.50Q141 856 82 856L42 856L42 927Q42 950 63 968.50Q84 987 135 987Q210 987 266 950Q322 913 345 835Q409 907 489.50 950Q570 993 670 993Q746 993 804.50 966.50Q863 940 902.50 891.50Q942 843 962 774.50Q982 706 982 623L982-330Z"  horiz-adv-x="1100" vert-adv-y="2048"  />

      
      <glyph glyph-name="uni03B8" unicode="&#x03B8;" d="M546 1399Q651 1399 735.50 1353.50Q820 1308 880 1218.50Q940 1129 972 997Q1004 865 1004 693Q1004 520 972 387.50Q940 255 880 166Q820 77 735.50 31.50Q651-14 546-14Q440-14 354.50 31.50Q269 77 209 166Q149 255 117 387.50Q85 520 85 693Q85 865 117 997Q149 1129 209 1218.50Q269 1308 354.50 1353.50Q440 1399 546 1399M546 124Q679 124 752.50 250Q826 376 832 642L256 642Q263 376 337 250Q411 124 546 124M546 1262Q414 1262 340 1140Q266 1018 257 764L832 764Q823 1018 749.50 1140Q676 1262 546 1262Z"  horiz-adv-x="1089" vert-adv-y="2048"  />

      
      <glyph glyph-name="uni03B9" unicode="&#x03B9;" d="M147 978L323 978L323 268Q323 195 351.50 157.50Q380 120 444 120L521 120L521 65Q521 47 509 32.50Q497 18 477 8.50Q457-1 431-6Q405-11 376-11Q320-11 277 8.50Q234 28 205 64Q176 100 161.50 149.50Q147 199 147 259L147 978Z"  horiz-adv-x="562" vert-adv-y="2048"  />

      
      <glyph glyph-name="uni03BB" unicode="&#x03BB;" d="M379 894L293 1162Q284 1191 273 1211Q262 1231 246.50 1243Q231 1255 209.50 1260Q188 1265 158 1265L95 1265L95 1330Q95 1344 99.50 1356Q104 1368 116 1377Q128 1386 148.50 1391Q169 1396 201 1396Q238 1396 273.50 1388Q309 1380 340.50 1361Q372 1342 398 1310Q424 1278 441 1230L774 227Q792 171 818.50 146Q845 121 895 121L948 121L948 50Q948 13 926 1.50Q904-10 863-10Q827-10 792-2.50Q757 5 725.50 25.50Q694 46 667.50 81.50Q641 117 621 173L479 622Q471 642 467 658.50Q463 675 461 692Q456 675 451 658.50Q446 642 439 625L237 36Q231 22 218.50 11Q206 0 184 0L34 0L379 894Z"  horiz-adv-x="948" vert-adv-y="2048"  />

      
      <glyph glyph-name="uni03BC" unicode="&#x03BC;" d="M311 978L311 387Q311 278 358.50 214Q406 150 502 150Q586 150 647.50 198Q709 246 750 331L750 978L926 978L926 266Q926 191 961.50 156.50Q997 122 1057 122L1114 122L1114 51Q1114 28 1083 9.50Q1052-9 997-9Q958-9 922 2.50Q886 14 856.50 38Q827 62 805.50 98.50Q784 135 774 186Q720 101 649.50 53.50Q579 6 491 6Q424 6 374.50 27Q325 48 290 88Q295 50 297.50 10.50Q300-29 300-63L300-330L213-330Q175-330 155-310.50Q135-291 135-256L135 978L311 978Z"  horiz-adv-x="1126" vert-adv-y="2048"  />

      
      <glyph glyph-name="uni03BD" unicode="&#x03BD;" d="M885 978Q830 705 726 456.50Q622 208 483 0L374 0L9 978L154 978Q174 978 188 967Q202 956 207 942L417 316Q429 284 437.50 253.50Q446 223 453 192Q498 268 533.50 356Q569 444 596.50 538Q624 632 645 730Q666 828 683 924Q688 954 703 966Q718 978 737 978L885 978Z"  horiz-adv-x="919" vert-adv-y="2048"  />

      
      <glyph glyph-name="uni03BE" unicode="&#x03BE;" d="M747 1310Q747 1278 725 1260Q703 1242 677 1242L591 1242Q525 1242 470.50 1222.50Q416 1203 377 1169Q338 1135 316.50 1089Q295 1043 295 990Q295 899 367 850.50Q439 802 576 802L664 802L664 663L534 663Q460 663 406 646Q352 629 317 598Q282 567 265 523.50Q248 480 248 428Q248 374 267.50 335.50Q287 297 326 266.50Q365 236 423 210.50Q481 185 557 159Q621 137 662.50 113Q704 89 728.50 61.50Q753 34 762.50 2.50Q772-29 772-65Q772-135 750-197Q728-259 691-319L554-265Q572-233 590.50-192.50Q609-152 609-111Q609-90 603-72Q597-54 581-38Q565-22 536-7.50Q507 7 461 20Q385 42 315 72Q245 102 191.50 148Q138 194 106 258Q74 322 74 412Q74 458 86 506.50Q98 555 125 599Q152 643 196 680Q240 717 303 741Q218 776 175 835.50Q132 895 132 978Q132 1024 148 1065Q164 1106 192 1140Q220 1174 258 1202Q296 1230 340 1251Q326 1250 311.50 1250Q297 1250 282 1250L154 1250Q116 1250 99.50 1267.50Q83 1285 83 1317L83 1383L747 1383L747 1310Z"  horiz-adv-x="770" vert-adv-y="2048"  />

      
      <glyph glyph-name="uni03C0" unicode="&#x03C0;" d="M1097 969L1097 886Q1097 863 1082.50 846.50Q1068 830 1040 830L899 830Q898 777 897 731Q896 685 896 639Q896 523 899.50 440Q903 357 910.50 300Q918 243 929.50 208.50Q941 174 956 155Q971 136 990.50 130Q1010 124 1034 124L1072 124L1072 53Q1072 24 1039.50 9Q1007-6 956-6Q841-6 784.50 73.50Q728 153 728 332Q728 375 731.50 425.50Q735 476 740 536.50Q745 597 750 669.50Q755 742 758 830L403 830Q400 664 388.50 537Q377 410 359 317Q341 224 316.50 161.50Q292 99 262 61.50Q232 24 197.50 8.50Q163-7 125-7Q113-7 100-5Q87-3 76 1Q65 5 58 11.50Q51 18 51 27L51 146L71 146Q100 146 129.50 182.50Q159 219 184 300.50Q209 382 227 512.50Q245 643 250 830L40 830L40 904Q40 926 57.50 947.50Q75 969 108 969L1097 969Z"  horiz-adv-x="1132" vert-adv-y="2048"  />

      
      <glyph glyph-name="uni03C1" unicode="&#x03C1;" d="M120 560Q120 659 149 739Q178 819 232 876Q286 933 364 963.50Q442 994 540 994Q629 994 707.50 961Q786 928 844.50 864.50Q903 801 937 708.50Q971 616 971 496Q971 388 943 294.50Q915 201 863 132.50Q811 64 736 25Q661-14 567-14Q485-14 416.50 17Q348 48 296 104L296-330L120-330L120 560M296 254Q342 185 402.50 153.50Q463 122 527 122Q653 122 721.50 219Q790 316 790 496Q790 591 771.50 659Q753 727 720 770.50Q687 814 641 834Q595 854 540 854Q489 854 444.50 834.50Q400 815 367 777.50Q334 740 315 685Q296 630 296 560L296 254Z"  horiz-adv-x="1042" vert-adv-y="2048"  />

      
      <glyph glyph-name="uni03C3" unicode="&#x03C3;" d="M793 838Q859 784 896.50 694Q934 604 934 479Q934 371 904 280.50Q874 190 818 124.50Q762 59 682.50 22.50Q603-14 503-14Q405-14 325 19.50Q245 53 187.50 116.50Q130 180 98.50 271.50Q67 363 67 479Q67 594 100 685.50Q133 777 197 841Q261 905 354 939Q447 973 566 973L1063 973L1063 891Q1063 874 1047.50 856Q1032 838 1005 838L793 838M754 487Q754 550 745.50 607Q737 664 719 710.50Q701 757 674 790Q647 823 610 838L566 838Q481 838 421 814Q361 790 322.50 744Q284 698 266 630Q248 562 248 475Q248 301 312.50 212Q377 123 502 123Q630 123 692 216.50Q754 310 754 487Z"  horiz-adv-x="1089" vert-adv-y="2048"  />

      
      <glyph glyph-name="uni03C2" unicode="&#x03C2;" d="M776 802Q768 791 760.50 785.50Q753 780 739 780Q724 780 707.50 792Q691 804 667 818.50Q643 833 608.50 845Q574 857 523 857Q456 857 405 832.50Q354 808 319.50 764.50Q285 721 267.50 662Q250 603 250 535Q250 441 272.50 381Q295 321 338.50 281Q382 241 445.50 213.50Q509 186 590 158Q649 136 688 112Q727 88 750 61Q773 34 782 2.50Q791-29 791-65Q791-135 770-197Q749-259 713-319L576-265Q593-234 610.50-193Q628-152 628-111Q628-90 622.50-72Q617-54 602-38Q587-22 561-7.50Q535 7 494 20Q407 47 330 81.50Q253 116 195 172Q137 228 103.50 312.50Q70 397 70 524Q70 620 99 705.50Q128 791 184 855Q240 919 322.50 956Q405 993 512 993Q612 993 688 959.50Q764 926 823 866L776 802Z"  horiz-adv-x="841" vert-adv-y="2048"  />

      
      <glyph glyph-name="uni03C4" unicode="&#x03C4;" d="M-34 912Q-34 935-19 952Q-4 969 26 969L811 969L811 899Q811 869 795 852.50Q779 836 749 836L443 836L443 272Q443 200 474.50 162Q506 124 576 124L656 124L656 69Q656 51 644 36.50Q632 22 612 12.50Q592 3 565-2Q538-7 508-7Q449-7 404 12.50Q359 32 328.50 68Q298 104 282.50 153.50Q267 203 267 263L267 836L-34 836L-34 912Z"  horiz-adv-x="793" vert-adv-y="2048"  />

      
      <glyph glyph-name="uni03C5" unicode="&#x03C5;" d="M312 978L312 355Q312 300 330 257Q348 214 380 184.50Q412 155 457.50 139.50Q503 124 558 124Q609 124 659.50 143.50Q710 163 750 209.50Q790 256 815 333Q840 410 840 524Q840 573 834.50 622Q829 671 821 720.50Q813 770 804 819Q795 868 787 918Q785 934 788.50 945.50Q792 957 799.50 964Q807 971 816.50 974.50Q826 978 835 978L955 978Q967 917 977 861.50Q987 806 994.50 751.50Q1002 697 1006.50 641Q1011 585 1011 524Q1011 383 972.50 281Q934 179 869.50 113Q805 47 721.50 16Q638-15 547-15Q450-15 374 10.50Q298 36 245 84Q192 132 164 200.50Q136 269 136 355L136 978L312 978Z"  horiz-adv-x="1109" vert-adv-y="2048"  />

      
      <glyph glyph-name="uni03C6" unicode="&#x03C6;" d="M244 489Q244 410 266 342.50Q288 275 330.50 225.50Q373 176 436 147.50Q499 119 581 118L581 689Q581 847 656.50 920Q732 993 866 993Q955 993 1028.50 956.50Q1102 920 1155 856Q1208 792 1237 705.50Q1266 619 1266 519Q1266 400 1229 302Q1192 204 1124 134.50Q1056 65 960 26Q864-13 746-14L746-330L581-330L581-14Q463-13 368 25.50Q273 64 206.50 131.50Q140 199 104 290.50Q68 382 68 490Q68 577 91 654Q114 731 156 794.50Q198 858 257.50 906.50Q317 955 390 987L435 916Q441 906 442 894.50Q443 883 440 872.50Q437 862 430.50 853.50Q424 845 417 842Q333 794 288.50 701Q244 608 244 489M746 118Q830 119 894.50 148Q959 177 1002.50 229Q1046 281 1068 354.50Q1090 428 1090 519Q1090 595 1071 658Q1052 721 1020.50 766.50Q989 812 948.50 837Q908 862 866 862Q810 862 778 821.50Q746 781 746 689L746 118Z"  horiz-adv-x="1334" vert-adv-y="2048"  />

      
      <glyph glyph-name="uni03C7" unicode="&#x03C7;" d="M403 215Q399 189 392.50 164Q386 139 378 121L200-292Q194-306 181.50-317Q169-328 147-328L22-328L327 359L167 754Q155 783 143 802.50Q131 822 114.50 834Q98 846 76 851.50Q54 857 23 857L-9 857L-9 923Q-9 936-8.50 948Q-8 960-1.50 969Q5 978 20 983Q35 988 64 988Q110 988 148.50 979Q187 970 218 950.50Q249 931 273 899Q297 867 316 822L462 459Q466 486 472.50 511Q479 536 488 556L651 943Q657 957 669 967.50Q681 978 704 978L829 978L537 319L710-107Q732-162 759.50-187.50Q787-213 838-213L871-213L871-284Q871-321 856.50-332.50Q842-344 800-344Q762-344 727.50-337Q693-330 662.50-309.50Q632-289 605-253Q578-217 555-159L403 215Z"  horiz-adv-x="873" vert-adv-y="2048"  />

      
      <glyph glyph-name="uni03C8" unicode="&#x03C8;" d="M830 1383L830 128Q906 135 971 158.50Q1036 182 1084 228Q1132 274 1159.50 346.50Q1187 419 1187 524Q1187 592 1180.50 645.50Q1174 699 1166 744.50Q1158 790 1149.50 831.50Q1141 873 1137 918Q1134 950 1150.50 964Q1167 978 1185 978L1311 978Q1323 917 1332.50 861.50Q1342 806 1348.50 751.50Q1355 697 1359 641Q1363 585 1363 524Q1363 380 1320 281.50Q1277 183 1203.50 121Q1130 59 1033.50 28Q937-3 830-11L830-330L654-330L654-12Q394 4 263 126.50Q132 249 132 461L132 978L253 978Q264 978 274 971.50Q284 965 291.50 954.50Q299 944 303.50 932Q308 920 308 910L308 461Q308 388 332 330.50Q356 273 400.50 231Q445 189 509 163.50Q573 138 654 129L654 1383L830 1383Z"  horiz-adv-x="1449" vert-adv-y="2048"  />

      
      <glyph glyph-name="uni03C9" unicode="&#x03C9;" d="M464 124Q505 124 535.50 143.50Q566 163 586 199Q606 235 615.50 285Q625 335 625 395L625 654L801 654L801 383Q802 325 812 277Q822 229 842 195Q862 161 892 142.50Q922 124 963 124Q995 124 1031 140Q1067 156 1097 196.50Q1127 237 1147 307Q1167 377 1167 485Q1167 543 1154 603.50Q1141 664 1123 720Q1105 776 1085 823Q1065 870 1052 900Q1041 921 1043 935.50Q1045 950 1052.50 959.50Q1060 969 1071.50 973.50Q1083 978 1092 978L1217 978Q1272 865 1307.50 741.50Q1343 618 1343 485Q1343 370 1316.50 277.50Q1290 185 1242 120Q1194 55 1128 20Q1062-15 984-15Q883-15 816 31.50Q749 78 712 152Q674 78 607 31.50Q540-15 443-15Q365-15 299 20Q233 55 185 120Q137 185 110 277.50Q83 370 83 485Q83 618 119 741.50Q155 865 209 978L334 978Q343 978 354.50 973.50Q366 969 373.50 959.50Q381 950 382.50 935.50Q384 921 374 900Q360 870 340.50 823Q321 776 303 720Q285 664 272 603.50Q259 543 259 485Q259 377 279 307Q299 237 329 196.50Q359 156 395 140Q431 124 464 124Z"  horiz-adv-x="1426" vert-adv-y="2048"  />

      
      <glyph glyph-name="uni0384" unicode="&#x0384;" d="M271 1108L335 1442L444 1442Q470 1442 480.50 1425Q491 1408 480 1380L375 1108L271 1108Z"  horiz-adv-x="649" vert-adv-y="2048"  />

      
      <glyph glyph-name="uni0385" unicode="&#x0385;" d="M450 1113L515 1447L624 1447Q650 1447 660 1430Q670 1413 659 1385L555 1113L450 1113M883 1238Q883 1200 855.50 1173.50Q828 1147 790 1147Q771 1147 754 1154Q737 1161 724.50 1173.50Q712 1186 704.50 1202.50Q697 1219 697 1238Q697 1257 704.50 1274Q712 1291 724.50 1304Q737 1317 754 1324.50Q771 1332 790 1332Q809 1332 825.50 1324.50Q842 1317 855 1304Q868 1291 875.50 1274Q883 1257 883 1238M396 1238Q396 1219 388.50 1202.50Q381 1186 368 1173.50Q355 1161 337.50 1154Q320 1147 301 1147Q283 1147 266.50 1154Q250 1161 237.50 1173.50Q225 1186 217.50 1202.50Q210 1219 210 1238Q210 1257 217.50 1274Q225 1291 237.50 1304Q250 1317 266.50 1324.50Q283 1332 301 1332Q320 1332 337.50 1324.50Q355 1317 368 1304Q381 1291 388.50 1274Q396 1257 396 1238Z"  horiz-adv-x="1012" vert-adv-y="2048"  />

      
      <glyph glyph-name="uni0374" unicode="&#x0374;" d="M350 1416Q377 1275 343 1141Q309 1007 204 894L150 929Q134 940 132.50 953.50Q131 967 139 978Q164 1013 184 1047Q204 1081 213 1116.50Q222 1152 218 1189Q214 1226 192 1267L192 1367Q192 1388 203.50 1402Q215 1416 241 1416L350 1416Z"  horiz-adv-x="511" vert-adv-y="2048"  />

      
      <glyph glyph-name="uni0375" unicode="&#x0375;" d="M131 0M350 320Q377 179 343 45Q309-89 204-202L150-167Q134-156 132.50-142.50Q131-129 139-118Q164-83 184-49Q204-15 213 20.50Q222 56 218 93Q214 130 192 171L192 271Q192 292 203.50 306Q215 320 241 320L350 320Z"  horiz-adv-x="511" vert-adv-y="2048"  />

      
      <glyph glyph-name="uni0411" unicode="&#x0411;" d="M943 1171L324 1171L324 750L551 750Q665 750 746.50 723.50Q828 697 881 650Q934 603 959 538Q984 473 984 395Q984 305 955 232Q926 159 870.50 107.50Q815 56 734.50 28Q654 0 551 0L142 0L142 1314L943 1314L943 1171M324 606L324 144L551 144Q620 144 668 161Q716 178 746 209Q776 240 790 283Q804 326 804 377Q804 431 790 474Q776 517 746 546Q716 575 668 590.50Q620 606 551 606L324 606Z"  horiz-adv-x="1101" vert-adv-y="2048"  />

      
      <glyph glyph-name="uni0413" unicode="&#x0413;" d="M825 1172L311 1172L311 0L128 0L128 1314L825 1314L825 1172Z"  horiz-adv-x="880" vert-adv-y="2048"  />

      
      <glyph glyph-name="uni0490" unicode="&#x0490;" d="M830 1172L312 1172L312 0L129 0L129 1314L689 1314L689 1610L830 1610L830 1172Z"  horiz-adv-x="886" vert-adv-y="2048"  />

      
      <glyph glyph-name="uni0414" unicode="&#x0414;" d="M1090 1314L1090 142L1278 142L1278-266Q1278-290 1262-304.50Q1246-319 1220-319L1111-319L1111 0L198 0L198-266Q198-290 182.50-304.50Q167-319 141-319L31-319L31 142L148 142Q173 155 197.50 185Q222 215 245.50 271.50Q269 328 289.50 414.50Q310 501 326.50 627Q343 753 355.50 922.50Q368 1092 374 1314L1090 1314M546 1172Q536 948 517.50 779.50Q499 611 474 487Q449 363 418 279Q387 195 351 142L907 142L907 1172L546 1172Z"  horiz-adv-x="1319" vert-adv-y="2048"  />

      
      <glyph glyph-name="uni0416" unicode="&#x0416;" d="M183 1314Q211 1314 234.50 1299.50Q258 1285 274 1262L524 807Q546 766 571.50 753Q597 740 630 740L734 740L734 1314L905 1314L905 740L1010 740Q1026 740 1040.50 743Q1055 746 1068 753.50Q1081 761 1093 774Q1105 787 1116 807L1366 1261Q1382 1285 1405.50 1299.50Q1429 1314 1457 1314L1599 1314L1297 789Q1273 751 1248 726Q1223 701 1188 687Q1230 673 1261.50 645.50Q1293 618 1322 571L1628 0L1508 0Q1468 0 1440 17.50Q1412 35 1393 63L1142 529Q1120 567 1094 583.50Q1068 600 1029 600L905 600L905 0L734 0L734 600L611 600Q572 600 546 583Q520 566 499 529L248 64Q229 35 200.50 17.50Q172 0 133 0L11 0L318 571Q346 618 378 645.50Q410 673 451 687Q416 701 391 726Q366 751 343 789L40 1314L183 1314Z"  horiz-adv-x="1640" vert-adv-y="2048"  />

      
      <glyph glyph-name="uni0417" unicode="&#x0417;" d="M873 991Q873 891 828 816Q783 741 701 699Q747 678 784.50 647.50Q822 617 849 578.50Q876 540 891 495Q906 450 906 400Q906 313 876.50 238Q847 163 790.50 107Q734 51 652.50 19Q571-13 466-13Q338-13 231.50 33.50Q125 80 52 160L106 246Q119 269 147 269Q166 269 191 248.50Q216 228 253 203.50Q290 179 342.50 158.50Q395 138 470 138Q596 138 665 205Q734 272 734 392Q734 443 716.50 485.50Q699 528 666 558Q633 588 586 605Q539 622 480 622L315 622L314 771L470 771Q522 771 564.50 785Q607 799 637.50 825Q668 851 685 889.50Q702 928 702 977Q702 1022 686 1058.50Q670 1095 639.50 1121.50Q609 1148 565 1162.50Q521 1177 465 1177Q400 1177 354 1161.50Q308 1146 275.50 1127.50Q243 1109 222 1093.50Q201 1078 185 1078Q159 1078 144 1106L99 1191Q168 1257 259.50 1292Q351 1327 466 1327Q560 1327 635 1302Q710 1277 763 1232.50Q816 1188 844.50 1126Q873 1064 873 991Z"  horiz-adv-x="970" vert-adv-y="2048"  />

      
      <glyph glyph-name="uni0418" unicode="&#x0418;" d="M950 1257Q963 1278 984 1296Q1005 1314 1031 1314L1167 1314L1167 0L984 0L984 928Q984 966 986 1009Q988 1052 994 1099Q979 1058 961.50 1022.50Q944 987 927 960L364 57Q351 36 330.50 18Q310 0 283 0L147 0L147 1314L330 1314L330 387Q330 347 327.50 303.50Q325 260 318 212Q334 254 352 290Q370 326 387 354L950 1257Z"  horiz-adv-x="1314" vert-adv-y="2048"  />

      
      <glyph glyph-name="uni041A" unicode="&#x041A;" d="M316 740L432 740Q468 740 494 752.50Q520 765 543 803L830 1264Q845 1285 864.50 1299.50Q884 1314 910 1314L1064 1314L724 774Q702 741 674.50 720Q647 699 615 687Q662 675 694 647Q726 619 758 570L1095 0L930 0Q903 0 885 14.50Q867 29 850 55L565 537Q543 572 519 586Q495 600 453 600L316 600L316 0L133 0L133 1314L316 1314L316 740Z"  horiz-adv-x="1112" vert-adv-y="2048"  />

      
      <glyph glyph-name="uni041B" unicode="&#x041B;" d="M1113 1314L1113 0L930 0L930 1172L556 1172Q545 919 524.50 733Q504 547 475.50 415.50Q447 284 411 200.50Q375 117 332 70Q289 23 239 5.50Q189-12 133-12Q33-12 33 24L33 138L94 138Q125 138 157 152Q189 166 218.50 209Q248 252 274.50 331.50Q301 411 322.50 541.50Q344 672 360 861.50Q376 1051 384 1314L1113 1314Z"  horiz-adv-x="1251" vert-adv-y="2048"  />

      
      <glyph glyph-name="uni0409" unicode="&#x0409;" d="M1113 750L1358 750Q1467 750 1545.50 723.50Q1624 697 1674.50 650Q1725 603 1749 538Q1773 473 1773 395Q1773 305 1745.50 232Q1718 159 1664.50 107.50Q1611 56 1533.50 28Q1456 0 1357 0L930 0L930 1172L556 1172Q545 919 524.50 733Q504 547 475.50 415.50Q447 284 411 200.50Q375 117 332 70Q289 23 239 5.50Q189-12 133-12Q33-12 33 24L33 138L94 138Q125 138 157 152Q189 166 218.50 209Q248 252 274.50 331.50Q301 411 322.50 541.50Q344 672 360 861.50Q376 1051 384 1314L1113 1314L1113 750M1113 606L1113 144L1357 144Q1421 144 1466.50 161Q1512 178 1540 209Q1568 240 1581 283Q1594 326 1594 377Q1594 431 1581 474Q1568 517 1540 546Q1512 575 1467 590.50Q1422 606 1358 606L1113 606Z"  horiz-adv-x="1786" vert-adv-y="2048"  />

      
      <glyph glyph-name="uni040A" unicode="&#x040A;" d="M1136 750L1350 750Q1458 750 1535.50 723.50Q1613 697 1663 650Q1713 603 1736.50 538Q1760 473 1760 395Q1760 305 1732.50 232Q1705 159 1652.50 107.50Q1600 56 1523.50 28Q1447 0 1349 0L953 0L953 596L323 596L323 0L140 0L140 1314L323 1314L323 729L953 729L953 1314L1136 1314L1136 750M1136 606L1136 144L1349 144Q1412 144 1456 161Q1500 178 1527.50 209Q1555 240 1567.50 283Q1580 326 1580 377Q1580 431 1567.50 474Q1555 517 1528 546Q1501 575 1457 590.50Q1413 606 1350 606L1136 606Z"  horiz-adv-x="1795" vert-adv-y="2048"  />

      
      <glyph glyph-name="uni0472" unicode="&#x0472;" d="M1284 657Q1284 509 1240.50 386Q1197 263 1117.50 174Q1038 85 926.50 35.50Q815-14 679-14Q544-14 432 35.50Q320 85 240 174Q160 263 116 386Q72 509 72 657Q72 804 116 927.50Q160 1051 240 1140.50Q320 1230 432 1279.50Q544 1329 679 1329Q815 1329 926.50 1279.50Q1038 1230 1117.50 1140.50Q1197 1051 1240.50 927.50Q1284 804 1284 657M679 143Q769 143 843 174Q917 205 971 264Q1025 323 1057 407.50Q1089 492 1096 600L260 600Q267 492 299.50 407.50Q332 323 386 264Q440 205 514.50 174Q589 143 679 143M679 1172Q591 1172 518.50 1142.50Q446 1113 392.50 1057Q339 1001 305.50 920.50Q272 840 262 738L1094 738Q1084 840 1051 920.50Q1018 1001 964.50 1057Q911 1113 838.50 1142.50Q766 1172 679 1172Z"  horiz-adv-x="1356" vert-adv-y="2048"  />

      
      <glyph glyph-name="uni041F" unicode="&#x041F;" d="M1125 0L942 0L942 1172L331 1172L331 0L148 0L148 1314L1125 1314L1125 0Z"  horiz-adv-x="1273" vert-adv-y="2048"  />

      
      <glyph glyph-name="uni0423" unicode="&#x0423;" d="M285 138Q306 138 326.50 143Q347 148 366.50 160.50Q386 173 403.50 194.50Q421 216 436 249L493 381L3 1314L174 1314Q197 1314 212 1302.50Q227 1291 236 1272L518 683Q552 618 572 551Q582 584 594 617Q606 650 621 682L865 1272Q872 1288 887.50 1301Q903 1314 926 1314L1077 1314L583 172Q559 118 531.50 82.50Q504 47 472 26Q440 5 403.50-3.50Q367-12 325-12Q224-12 224 24L224 138L285 138L285 138Z"  horiz-adv-x="1080" vert-adv-y="2048"  />

      
      <glyph glyph-name="uni0474" unicode="&#x0474;" d="M7 1314L153 1314Q178 1314 193 1302Q208 1290 215 1272L561 351Q573 320 584.50 283.50Q596 247 606 207Q614 247 624 283.50Q634 320 645 352L899 1142Q958 1320 1137 1320Q1187 1320 1205 1312Q1223 1304 1223 1284L1223 1171L1176 1171Q1137 1171 1107.50 1147Q1078 1123 1061 1074L686 0L522 0L7 1314Z"  horiz-adv-x="1208" vert-adv-y="2048"  />

      
      <glyph glyph-name="uni0424" unicode="&#x0424;" d="M801 1219Q923 1216 1024 1173.50Q1125 1131 1197.50 1059Q1270 987 1310 892Q1350 797 1350 690Q1350 582 1310 486.50Q1270 391 1197.50 319Q1125 247 1024 204.50Q923 162 801 159L801 0L628 0L628 159Q505 162 404 205Q303 248 231 319.50Q159 391 119 486.50Q79 582 79 690Q79 797 119.50 892Q160 987 232.50 1058.50Q305 1130 406 1173Q507 1216 628 1219L628 1374L801 1374L801 1219M261 690Q261 610 287.50 540Q314 470 362 417.50Q410 365 477.50 334Q545 303 628 302L628 1078Q545 1076 477.50 1045Q410 1014 362 961.50Q314 909 287.50 839Q261 769 261 690M1167 690Q1167 769 1140.50 839Q1114 909 1066 961.50Q1018 1014 950.50 1045Q883 1076 801 1078L801 302Q883 303 950.50 334Q1018 365 1066 417.50Q1114 470 1140.50 540Q1167 610 1167 690Z"  horiz-adv-x="1428" vert-adv-y="2048"  />

      
      <glyph glyph-name="uni0426" unicode="&#x0426;" d="M139 0L139 1314L322 1314L322 142L901 142L901 1314L1084 1314L1084 142L1266 142L1266-266Q1266-290 1249.50-304.50Q1233-319 1207-319L1098-319L1098 0L139 0Z"  horiz-adv-x="1308" vert-adv-y="2048"  />

      
      <glyph glyph-name="uni040F" unicode="&#x040F;" d="M1122 0L718 0L718-266Q718-290 701.50-304.50Q685-319 659-319L551-319L551 0L147 0L147 1314L330 1314L330 142L939 142L939 1314L1122 1314L1122 0Z"  horiz-adv-x="1269" vert-adv-y="2048"  />

      
      <glyph glyph-name="uni0427" unicode="&#x0427;" d="M1002 0L819 0L819 565Q723 538 633.50 522.50Q544 507 465.50 508Q387 509 322.50 530Q258 551 211.50 595.50Q165 640 139.50 711Q114 782 114 885L114 1314L297 1314L297 885Q297 795 327 739.50Q357 684 420.50 661.50Q484 639 582.50 648.50Q681 658 819 698L819 1314L1002 1314L1002 0Z"  horiz-adv-x="1138" vert-adv-y="2048"  />

      
      <glyph glyph-name="uni0428" unicode="&#x0428;" d="M1641 0L137 0L137 1314L320 1314L320 142L796 142L796 1314L979 1314L979 142L1458 142L1458 1314L1641 1314L1641 0Z"  horiz-adv-x="1778" vert-adv-y="2048"  />

      
      <glyph glyph-name="uni0429" unicode="&#x0429;" d="M133 0L133 1314L316 1314L316 142L777 142L777 1314L960 1314L960 142L1423 142L1423 1314L1606 1314L1606 142L1781 142L1781-266Q1781-290 1764.50-304.50Q1748-319 1722-319L1614-319L1614 0L133 0Z"  horiz-adv-x="1822" vert-adv-y="2048"  />

      
      <glyph glyph-name="uni042A" unicode="&#x042A;" d="M-5 1314L515 1314L515 750L749 750Q865 750 948.50 723.50Q1032 697 1086 650Q1140 603 1165.50 538Q1191 473 1191 395Q1191 305 1161.50 232Q1132 159 1075.50 107.50Q1019 56 936.50 28Q854 0 749 0L333 0L333 1166L-5 1166L-5 1314M515 606L515 144L749 144Q819 144 869 161Q919 178 950.50 209Q982 240 996.50 283Q1011 326 1011 377Q1011 431 996.50 474Q982 517 950.50 546Q919 575 869.50 590.50Q820 606 749 606L515 606Z"  horiz-adv-x="1259" vert-adv-y="2048"  />

      
      <glyph glyph-name="uni042B" unicode="&#x042B;" d="M162 0M344 1314L344 750L578 750Q694 750 777.50 723.50Q861 697 915 650Q969 603 994.50 538Q1020 473 1020 395Q1020 305 990.50 232Q961 159 904.50 107.50Q848 56 765.50 28Q683 0 578 0L162 0L162 1314L344 1314M344 606L344 144L578 144Q648 144 698 161Q748 178 779.50 209Q811 240 825.50 283Q840 326 840 377Q840 431 825.50 474Q811 517 779.50 546Q748 575 698.50 590.50Q649 606 578 606L344 606M1408 0L1226 0L1226 1314L1408 1314L1408 0Z"  horiz-adv-x="1560" vert-adv-y="2048"  />

      
      <glyph glyph-name="uni042C" unicode="&#x042C;" d="M328 1314L328 750L562 750Q678 750 761.50 723.50Q845 697 899 650Q953 603 978.50 538Q1004 473 1004 395Q1004 305 974.50 232Q945 159 888.50 107.50Q832 56 749.50 28Q667 0 562 0L146 0L146 1314L328 1314M328 606L328 144L562 144Q632 144 682 161Q732 178 763.50 209Q795 240 809.50 283Q824 326 824 377Q824 431 809.50 474Q795 517 763.50 546Q732 575 682.50 590.50Q633 606 562 606L328 606Z"  horiz-adv-x="1088" vert-adv-y="2048"  />

      
      </font>
</defs>
</svg>
