<?xml version="1.0" standalone="no"?>
  <!DOCTYPE svg PUBLIC "-//W3C//DTD SVG 1.1//EN" "http://www.w3.org/Graphics/SVG/1.1/DTD/svg11.dtd" >
  <svg>
  <metadata>
  Created by font-carrier
  </metadata>
  <defs>
  <font id="FranklinGothicBookC" horiz-adv-x="2211" vert-adv-y="2211" >
    <font-face
      
      font-family="FranklinGothBookCTT"
      
      font-weight="400"
      
      font-stretch="normal"
      
      units-per-em="2048"
      
      ascent="1841"
      
      descent="-393"
      
    />
      <missing-glyph />

      

      
      <glyph glyph-name="uni21" unicode="&#x21;" d="M407 219L407 0L190 0L190 219L407 219M419 1404L346 350L251 350L178 1404L419 1404Z"  horiz-adv-x="614" vert-adv-y="2048"  />

      
      <glyph glyph-name="uni22" unicode="&#x22;" d="M110 1404L303 1404L247 901L165 901L110 1404M436 1404L628 1404L573 901L491 901L436 1404Z"  horiz-adv-x="739" vert-adv-y="2048"  />

      
      <glyph glyph-name="uni23" unicode="&#x23;" d="M757 0L618 0L700 423L430 423L348 0L208 0L290 423L73 423L73 552L315 552L374 878L149 878L149 1007L401 1007L475 1404L614 1404L540 1007L811 1007L884 1404L1024 1404L950 1007L1155 1007L1155 878L923 878L864 552L1087 552L1087 423L839 423L757 0M724 552L784 878L514 878L454 552L724 552Z"  horiz-adv-x="1228" vert-adv-y="2048"  />

      
      <glyph glyph-name="uni24" unicode="&#x24;" d="M686 1550L686 1380Q817 1376 925 1307.50Q1033 1239 1083 1110L944 1062Q918 1141 851 1190.50Q784 1240 686 1245L686 804Q911 766 1013.50 667Q1116 568 1116 419Q1116 276 1006.50 169Q897 62 688 43L688-153L561-153L561 43Q409 53 289.50 135.50Q170 218 120 366L260 419Q295 316 373.50 249.50Q452 183 561 178L561 663Q364 705 270 789Q176 873 176 1013Q176 1161 281 1266.50Q386 1372 561 1380L561 1550L686 1550M686 634L686 178Q802 176 877 242Q952 308 952 399Q952 501 874 562Q796 623 686 634M561 823L561 1245Q457 1242 392 1180.50Q327 1119 327 1038Q327 953 391 891.50Q455 830 561 823Z"  horiz-adv-x="1193" vert-adv-y="2048"  />

      
      <glyph glyph-name="uni25" unicode="&#x25;" d="M79 1056Q79 1219 153.50 1322Q228 1425 366 1425Q504 1425 578.50 1322Q653 1219 653 1056Q653 893 578.50 790.50Q504 688 366 688Q228 688 153.50 790.50Q79 893 79 1056M526 1056Q526 1186 485 1252Q444 1318 366 1318Q288 1318 247 1252Q206 1186 206 1056Q206 927 247 860.50Q288 794 366 794Q444 794 485 860.50Q526 927 526 1056M1243 1404L393 0L243 0L1093 1404L1243 1404M833 348Q833 510 907.50 613Q982 716 1120 716Q1258 716 1332 613Q1406 510 1406 348Q1406 185 1332 82.50Q1258-20 1120-20Q982-20 907.50 82.50Q833 185 833 348M960 348Q960 218 1001 152Q1042 86 1120 86Q1198 86 1239 152Q1280 218 1280 348Q1280 477 1239 543.50Q1198 610 1120 610Q1042 610 1001 543.50Q960 477 960 348Z"  horiz-adv-x="1486" vert-adv-y="2048"  />

      
      <glyph glyph-name="uni26" unicode="&#x26;" d="M1159 768L1310 737Q1274 580 1211.50 453Q1149 326 1056 227Q1088 184 1120 165.50Q1152 147 1220 147Q1256 147 1281.50 149Q1307 151 1335 157L1335 10Q1170-4 1177-4Q1184-4 1179-4Q1130-4 1091.50 8.50Q1053 21 972 96L948 118Q870 51 775.50 15.50Q681-20 567-20Q366-20 230 94.50Q94 209 94 393Q94 532 184 643.50Q274 755 448 815L419 856Q357 945 330 1007.50Q303 1070 303 1128Q303 1261 396.50 1343Q490 1425 641 1425Q806 1425 908.50 1345.50Q1011 1266 1011 1128Q1011 1004 926.50 914.50Q842 825 667 763L956 331Q1033 419 1083.50 528Q1134 637 1159 768M851 225L524 702Q489 693 458.50 677.50Q428 662 399 641Q342 598 312 543Q282 488 282 415Q282 298 364.50 214.50Q447 131 593 131Q664 131 730 154.50Q796 178 851 225M602 868L643 890Q746 947 764.50 963Q783 979 798 999Q815 1022 825 1051Q835 1080 835 1114Q835 1185 781.50 1229Q728 1273 645 1273Q571 1273 525 1232.50Q479 1192 479 1124Q479 1089 491 1054Q503 1019 575 909L602 868Z"  horiz-adv-x="1415" vert-adv-y="2048"  />

      
      <glyph glyph-name="uni27" unicode="&#x27;" d="M210 1404L403 1404L348 901L266 901L210 1404Z"  horiz-adv-x="614" vert-adv-y="2048"  />

      
      <glyph glyph-name="uni28" unicode="&#x28;" d="M389 1404L495 1404Q373 1217 305 997Q237 777 237 538Q237 293 305.50 67.50Q374-158 497-350L391-350Q236-160 161 65Q86 290 86 530Q86 764 166.50 991Q247 1218 389 1404Z"  horiz-adv-x="569" vert-adv-y="2048"  />

      
      <glyph glyph-name="uni29" unicode="&#x29;" d="M73 1404L180 1404Q322 1218 402.50 991Q483 764 483 530Q483 290 407.50 65Q332-160 178-350L71-350Q195-158 263 67.50Q331 293 331 538Q331 777 263 997Q195 1217 73 1404Z"  horiz-adv-x="569" vert-adv-y="2048"  />

      
      <glyph glyph-name="uni2a" unicode="&#x2a;" d="M499 1404L618 1404L604 1052L905 1241L968 1136L655 972L968 808L905 704L604 892L618 542L499 542L514 892L212 704L149 808L462 972L149 1136L212 1241L514 1052L499 1404Z"  horiz-adv-x="1118" vert-adv-y="2048"  />

      
      <glyph glyph-name="uni2b" unicode="&#x2b;" d="M591 1120L724 1120L724 657L1187 657L1187 524L724 524L724 61L591 61L591 524L129 524L129 657L591 657L591 1120Z"  horiz-adv-x="1316" vert-adv-y="2048"  />

      
      <glyph glyph-name="uni2c" unicode="&#x2c;" d="M376 202L376 26L212-247L135-247L256 0L172 0L172 202L376 202Z"  horiz-adv-x="528" vert-adv-y="2048"  />

      
      <glyph glyph-name="uni2d" unicode="&#x2d;" d="M538 589L538 462L102 462L102 589L538 589Z"  horiz-adv-x="641" vert-adv-y="2048"  />

      
      <glyph glyph-name="uniad" unicode="&#xad;" d="M538 589L538 462L102 462L102 589L538 589Z"  horiz-adv-x="641" vert-adv-y="2048"  />

      
      <glyph glyph-name="uni2e" unicode="&#x2e;" d="M151 231L378 231L378 0L151 0L151 231Z"  horiz-adv-x="530" vert-adv-y="2048"  />

      
      <glyph glyph-name="uni2f" unicode="&#x2f;" d="M1030 1404L182-350L43-350L890 1404L1030 1404Z"  horiz-adv-x="1067" vert-adv-y="2048"  />

      
      <glyph glyph-name="uni30" unicode="&#x30;" d="M610-20Q493-20 387.50 37Q282 94 208 215Q148 313 115.50 440.50Q83 568 83 696Q83 829 114 957Q145 1085 204 1181Q281 1306 384.50 1365.50Q488 1425 610 1425Q732 1425 835 1365.50Q938 1306 1015 1181Q1075 1085 1105.50 957Q1136 829 1136 696Q1136 568 1103.50 440.50Q1071 313 1011 215Q937 94 831.50 37Q726-20 610-20M610 1282Q545 1282 482 1248.50Q419 1215 374 1159Q317 1087 288.50 969Q260 851 260 708Q260 576 281 473Q302 370 344 292Q386 213 453 167.50Q520 122 610 122Q700 122 767 167.50Q834 213 876 292Q918 370 939 473Q960 576 960 708Q960 851 931 969Q902 1087 845 1159Q801 1215 737.50 1248.50Q674 1282 610 1282Z"  horiz-adv-x="1220" vert-adv-y="2048"  />

      
      <glyph glyph-name="uni31" unicode="&#x31;" d="M751 1404L751 151L1138 151L1138 0L155 0L155 151L575 151L575 1191Q485 1097 389 1022.50Q293 948 188 892L188 1067Q321 1133 428.50 1217Q536 1301 618 1404L751 1404Z"  horiz-adv-x="1228" vert-adv-y="2048"  />

      
      <glyph glyph-name="uni32" unicode="&#x32;" d="M282 964L118 1013Q130 1077 156.50 1136Q183 1195 221 1243Q295 1336 397 1380.50Q499 1425 626 1425Q739 1425 816 1400Q893 1375 956 1327Q1035 1266 1074.50 1184.50Q1114 1103 1114 1005Q1114 867 1033 743Q952 619 806 507L342 151L1116 151L1116 0L118 0L118 145L686 591Q816 694 876.50 793Q937 892 937 995Q937 1057 912 1110Q887 1163 839 1202Q797 1236 741 1254.50Q685 1273 618 1273Q531 1273 460 1235Q389 1197 344 1134Q317 1097 301.50 1053Q286 1009 282 964Z"  horiz-adv-x="1228" vert-adv-y="2048"  />

      
      <glyph glyph-name="uni33" unicode="&#x33;" d="M290 1060L126 1105Q158 1182 209.50 1243Q261 1304 325 1345Q386 1384 462 1404.50Q538 1425 626 1425Q710 1425 787.50 1404Q865 1383 927 1343Q1006 1291 1046.50 1215Q1087 1139 1087 1048Q1087 931 1010 847.50Q933 764 817 737Q968 718 1055 620Q1142 522 1142 393Q1142 307 1101 225Q1060 143 983 86Q912 33 810.50 6.50Q709-20 602-20Q523-20 444-1Q365 18 294 59Q220 102 165.50 166.50Q111 231 81 319L245 374Q259 319 288.50 276Q318 233 370 196Q420 161 476.50 143.50Q533 126 612 126Q691 126 757.50 142.50Q824 159 868 190Q912 222 939 272Q966 322 966 387Q966 456 932.50 508.50Q899 561 843 595Q795 625 724.50 640Q654 655 563 655L428 655L428 798L563 798Q642 798 696 807Q750 816 788 835Q849 866 882 918Q915 970 915 1030Q915 1086 892.50 1133Q870 1180 823 1214Q782 1243 729.50 1258Q677 1273 618 1273Q566 1273 513.50 1258Q461 1243 417 1214Q378 1187 345 1147Q312 1107 290 1060Z"  horiz-adv-x="1228" vert-adv-y="2048"  />

      
      <glyph glyph-name="uni34" unicode="&#x34;" d="M937 1404L937 471L1167 471L1167 327L937 327L937 0L761 0L761 327L69 327L69 444L712 1404L937 1404M761 471L761 1267L247 471L761 471Z"  horiz-adv-x="1228" vert-adv-y="2048"  />

      
      <glyph glyph-name="uni35" unicode="&#x35;" d="M1038 1404L1024 1253L333 1253L303 800Q375 874 460.50 913Q546 952 641 952Q729 952 814.50 922.50Q900 893 970 833Q1049 765 1089.50 672Q1130 579 1130 475Q1130 375 1095 287.50Q1060 200 987 129Q910 54 810 17Q710-20 589-20Q481-20 391.50 14Q302 48 231 112Q185 153 151.50 203.50Q118 254 98 311L249 362Q262 325 282 294.50Q302 264 329 237Q383 182 447.50 156.50Q512 131 598 131Q686 131 754 159Q822 187 872 247Q910 292 932 348.50Q954 405 954 466Q954 534 929.50 597.50Q905 661 856 708Q807 754 746.50 777Q686 800 624 800Q531 800 444 754Q357 708 299 620L159 649L206 1404L1038 1404Z"  horiz-adv-x="1228" vert-adv-y="2048"  />

      
      <glyph glyph-name="uni36" unicode="&#x36;" d="M1107 1114L960 1071Q919 1171 839 1222Q759 1273 655 1273Q556 1273 474.50 1223Q393 1173 337 1064Q296 983 274 869.50Q252 756 258 634Q316 762 431.50 839.50Q547 917 688 917Q881 917 1013.50 784Q1146 651 1146 458Q1146 254 998 117Q850-20 638-20Q501-20 390 37Q279 94 208 198Q149 285 115 402.50Q81 520 81 665Q81 813 112 942.50Q143 1072 196 1163Q273 1293 386 1359Q499 1425 651 1425Q830 1425 945 1340Q1060 1255 1107 1114M305 432Q305 368 333 306.50Q361 245 407 206Q450 171 514 151Q578 131 638 131Q778 131 874 222.50Q970 314 970 448Q970 581 879 673Q788 765 655 765Q514 765 409.50 667.50Q305 570 305 432Z"  horiz-adv-x="1228" vert-adv-y="2048"  />

      
      <glyph glyph-name="uni37" unicode="&#x37;" d="M1087 1404L1087 1298Q984 1175 890 1025.50Q796 876 735 731Q658 548 621.50 370Q585 192 587 0L407 0Q408 234 466 449.50Q524 665 630 858Q682 952 752.50 1054Q823 1156 903 1253L141 1253L159 1404L1087 1404Z"  horiz-adv-x="1228" vert-adv-y="2048"  />

      
      <glyph glyph-name="uni38" unicode="&#x38;" d="M405 729Q291 769 216 859Q141 949 141 1062Q141 1219 275 1322Q409 1425 628 1425Q833 1425 964 1329.50Q1095 1234 1095 1077Q1095 962 1023 876.50Q951 791 823 753Q996 685 1076.50 592.50Q1157 500 1157 376Q1157 194 1006.50 87Q856-20 626-20Q365-20 218 93Q71 206 71 360Q71 488 164.50 585Q258 682 405 729M565 829L612 815Q760 846 841.50 908Q923 970 923 1056Q923 1162 840 1222Q757 1282 612 1282Q472 1282 392.50 1221Q313 1160 313 1067Q313 986 379.50 925.50Q446 865 565 829M657 641L600 659Q543 647 485.50 625Q428 603 385 577Q319 538 283 485.50Q247 433 247 374Q247 267 339 194.50Q431 122 610 122Q787 122 883.50 190.50Q980 259 980 362Q980 448 906 516Q832 584 657 641Z"  horiz-adv-x="1228" vert-adv-y="2048"  />

      
      <glyph glyph-name="uni39" unicode="&#x39;" d="M133 262L274 313Q322 220 399.50 175.50Q477 131 573 131Q672 131 746.50 173Q821 215 874 303Q922 381 944.50 477.50Q967 574 970 770Q912 642 796.50 564.50Q681 487 540 487Q347 487 214 620Q81 753 81 944Q81 1152 230.50 1288.50Q380 1425 593 1425Q725 1425 836.50 1372Q948 1319 1019 1216Q1075 1136 1110.50 1005Q1146 874 1146 739Q1146 602 1116.50 468.50Q1087 335 1032 241Q955 111 841.50 45.50Q728-20 577-20Q408-20 295.50 55Q183 130 133 262M581 1273Q521 1273 465.50 1253.50Q410 1234 362 1191Q310 1146 284 1083.50Q258 1021 258 956Q258 897 280.50 838Q303 779 342 737Q386 688 447 663Q508 638 573 638Q717 638 820 734.50Q923 831 923 972Q923 1113 826.50 1193Q730 1273 581 1273Z"  horiz-adv-x="1228" vert-adv-y="2048"  />

      
      <glyph glyph-name="uni3a" unicode="&#x3a;" d="M376 231L376 0L151 0L151 231L376 231M376 1040L376 808L151 808L151 1040L376 1040Z"  horiz-adv-x="528" vert-adv-y="2048"  />

      
      <glyph glyph-name="uni3b" unicode="&#x3b;" d="M376 235L376 24L223-264L135-264L258 0L151 0L151 235L376 235M376 1040L376 808L151 808L151 1040L376 1040Z"  horiz-adv-x="528" vert-adv-y="2048"  />

      
      <glyph glyph-name="uni3c" unicode="&#x3c;" d="M305 589L1114 258L1114 131L112 555L112 624L1114 1048L1114 921L305 589Z"  horiz-adv-x="1228" vert-adv-y="2048"  />

      
      <glyph glyph-name="uni3d" unicode="&#x3d;" d="M129 722L129 856L1187 856L1187 722L129 722M129 325L129 458L1187 458L1187 325L129 325Z"  horiz-adv-x="1316" vert-adv-y="2048"  />

      
      <glyph glyph-name="uni3e" unicode="&#x3e;" d="M915 589L114 921L114 1048L1116 624L1116 555L114 131L114 258L915 589Z"  horiz-adv-x="1228" vert-adv-y="2048"  />

      
      <glyph glyph-name="uni3f" unicode="&#x3f;" d="M196 978L43 1011Q67 1204 197.50 1314.50Q328 1425 524 1425Q731 1425 857 1314.50Q983 1204 983 1030Q983 913 919.50 823Q856 733 722 661Q614 603 583 568Q552 533 552 452L552 348L405 348L405 436Q405 571 434.50 629.50Q464 688 538 731L628 782Q723 836 762.50 896Q802 956 802 1028Q802 1066 790 1104Q778 1142 755 1173Q719 1222 655.50 1251Q592 1280 512 1280Q427 1280 361.50 1244.50Q296 1209 251 1138Q230 1104 216 1062Q202 1020 196 978M583 200L583 0L374 0L374 200L583 200Z"  horiz-adv-x="1069" vert-adv-y="2048"  />

      
      <glyph glyph-name="uni40" unicode="&#x40;" d="M1134 163L1181 49Q1106 14 1015.50-3Q925-20 806-20Q670-20 558 16Q446 52 356 118Q227 214 156.50 351Q86 488 86 665Q86 832 146.50 973.50Q207 1115 319 1220Q432 1327 570.50 1376Q709 1425 872 1425Q1043 1425 1181 1371Q1319 1317 1413 1218Q1485 1142 1526.50 1041Q1568 940 1568 825Q1568 720 1536.50 622Q1505 524 1449 460Q1389 391 1306.50 352Q1224 313 1142 313Q1061 313 1009.50 343Q958 373 940 430Q894 375 833.50 344Q773 313 702 313Q653 313 605 332.50Q557 352 524 385Q486 422 464 482.50Q442 543 442 610Q442 712 494.50 816.50Q547 921 641 991Q689 1027 742.50 1047Q796 1067 851 1067Q932 1067 986 1032Q1040 997 1064 925L1101 1040L1236 1040L1077 544Q1069 520 1068 513.50Q1067 507 1067 501Q1067 459 1087.50 438Q1108 417 1148 417Q1209 417 1263.50 446Q1318 475 1355 524Q1396 576 1416.50 648Q1437 720 1437 792Q1437 873 1413 947Q1389 1021 1349 1077Q1278 1175 1140 1238.50Q1002 1302 829 1302Q709 1302 596.50 1259Q484 1216 399 1130Q315 1046 272 932.50Q229 819 229 673Q229 533 269.50 427.50Q310 322 401 241Q477 174 579.50 138Q682 102 808 102Q901 102 982.50 117.50Q1064 133 1134 163M870 954Q814 954 768 932Q722 910 686 870Q640 820 612.50 742.50Q585 665 585 595Q585 555 595.50 524.50Q606 494 628 468Q651 442 677.50 429.50Q704 417 733 417Q777 417 815.50 437Q854 457 892 507Q945 576 976 666.50Q1007 757 1007 823Q1007 878 969 916Q931 954 870 954Z"  horiz-adv-x="1654" vert-adv-y="2048"  />

      
      <glyph glyph-name="uni41" unicode="&#x41;" d="M681 1404L1138 0L946 0L815 407L311 407L184 0L24 0L479 1404L681 1404M772 550L563 1216L352 550L772 550Z"  horiz-adv-x="1146" vert-adv-y="2048"  />

      
      <glyph glyph-name="uni42" unicode="&#x42;" d="M180 1404L716 1404Q836 1404 904.50 1385.50Q973 1367 1021 1333Q1084 1289 1118.50 1222Q1153 1155 1153 1067Q1153 983 1123.50 919Q1094 855 1044 815Q1018 794 982 776Q946 758 909 747L909 743Q951 735 992 716.50Q1033 698 1069 669Q1134 617 1167 542Q1200 467 1200 380Q1200 293 1164 216.50Q1128 140 1064 90Q1005 42 927.50 21Q850 0 718 0L180 0L180 1404M356 1253L356 806L651 806Q747 806 803.50 822Q860 838 901 872Q940 905 958 947.50Q976 990 976 1040Q976 1097 956 1137.50Q936 1178 894 1206Q859 1230 812 1241.50Q765 1253 679 1253L356 1253M356 663L356 151L706 151Q777 151 831.50 165Q886 179 923 208Q963 240 987 289.50Q1011 339 1011 403Q1011 456 993.50 502Q976 548 942 583Q899 626 841.50 644.50Q784 663 681 663L356 663Z"  horiz-adv-x="1288" vert-adv-y="2048"  />

      
      <glyph glyph-name="uni43" unicode="&#x43;" d="M1179 976L1013 946Q1003 995 984 1042.50Q965 1090 940 1128Q889 1204 823.50 1238.50Q758 1273 669 1273Q562 1273 485 1226Q408 1179 356 1087Q319 1022 298.50 930Q278 838 278 716Q278 604 295 512Q312 420 344 354Q395 245 478 188Q561 131 669 131Q744 131 799 156.50Q854 182 903 235Q945 282 975.50 343Q1006 404 1019 473L1179 438Q1161 349 1121 268Q1081 187 1021 124Q954 53 874 16.50Q794-20 677-20Q520-20 410.50 41Q301 102 223 221Q158 319 124 451.50Q90 584 90 724Q90 888 132.50 1020Q175 1152 249 1239Q328 1331 434.50 1378Q541 1425 673 1425Q783 1425 866.50 1395.50Q950 1366 1019 1300Q1081 1242 1124 1157.50Q1167 1073 1179 976Z"  horiz-adv-x="1236" vert-adv-y="2048"  />

      
      <glyph glyph-name="uni44" unicode="&#x44;" d="M180 1404L645 1404Q795 1404 908 1354Q1021 1304 1107 1206Q1189 1113 1233 985.50Q1277 858 1277 708Q1277 602 1254.50 494.50Q1232 387 1187 301Q1110 151 980.50 75.50Q851 0 655 0L180 0L180 1404M356 151L602 151Q739 151 832.50 194.50Q926 238 989 329Q1040 404 1064.50 505Q1089 606 1089 714Q1089 838 1054.50 940Q1020 1042 962 1110Q901 1180 819 1216.50Q737 1253 616 1253L356 1253L356 151Z"  horiz-adv-x="1368" vert-adv-y="2048"  />

      
      <glyph glyph-name="uni45" unicode="&#x45;" d="M180 1404L1069 1404L1069 1253L356 1253L356 806L921 806L921 663L356 663L356 151L1089 151L1089 0L180 0L180 1404Z"  horiz-adv-x="1161" vert-adv-y="2048"  />

      
      <glyph glyph-name="uni46" unicode="&#x46;" d="M1040 1404L1040 1253L356 1253L356 806L923 806L923 663L356 663L356 0L180 0L180 1404L1040 1404Z"  horiz-adv-x="1077" vert-adv-y="2048"  />

      
      <glyph glyph-name="uni47" unicode="&#x47;" d="M1220 708L1220-10L1112-10L1064 163Q1039 124 1006 94.50Q973 65 933 43Q877 11 811.50-4.50Q746-20 665-20Q535-20 429 30.50Q323 81 243 182Q173 271 131.50 403Q90 535 90 688Q90 812 124 945Q158 1078 223 1173Q306 1296 433.50 1360.50Q561 1425 710 1425Q816 1425 908 1390.50Q1000 1356 1067 1292Q1118 1242 1154.50 1171.50Q1191 1101 1206 1021L1040 980Q1033 1020 1018.50 1056.50Q1004 1093 983 1124Q933 1196 856 1234.50Q779 1273 686 1273Q578 1273 495 1221Q412 1169 360 1079Q321 1011 299.50 909Q278 807 278 688Q278 579 300 488Q322 397 362 329Q419 233 506 182Q593 131 702 131Q773 131 835 156Q897 181 948 233Q998 285 1021 346.50Q1044 408 1044 483L1044 561L690 561L690 708L1220 708Z"  horiz-adv-x="1372" vert-adv-y="2048"  />

      
      <glyph glyph-name="uni48" unicode="&#x48;" d="M1187 1404L1187 0L1011 0L1011 671L356 671L356 0L180 0L180 1404L356 1404L356 815L1011 815L1011 1404L1187 1404Z"  horiz-adv-x="1368" vert-adv-y="2048"  />

      
      <glyph glyph-name="uni49" unicode="&#x49;" d="M356 1404L356 0L180 0L180 1404L356 1404Z"  horiz-adv-x="536" vert-adv-y="2048"  />

      
      <glyph glyph-name="uni4a" unicode="&#x4a;" d="M626 1404L626 458Q626 319 605 247Q584 175 540 120Q483 49 399.50 14.50Q316-20 204-20Q150-20 99-12.50Q48-5 0 8L0 159Q41 145 86.50 138Q132 131 180 131Q239 131 290.50 146.50Q342 162 376 194Q417 231 433.50 281.50Q450 332 450 434L450 1404L626 1404Z"  horiz-adv-x="792" vert-adv-y="2048"  />

      
      <glyph glyph-name="uni4b" unicode="&#x4b;" d="M356 1404L356 591L360 591L985 1404L1179 1404L800 913L1290 0L1095 0L677 774L356 374L356 0L180 0L180 1404L356 1404Z"  horiz-adv-x="1304" vert-adv-y="2048"  />

      
      <glyph glyph-name="uni4c" unicode="&#x4c;" d="M356 1404L356 151L1015 151L1015 0L180 0L180 1404L356 1404Z"  horiz-adv-x="1044" vert-adv-y="2048"  />

      
      <glyph glyph-name="uni4d" unicode="&#x4d;" d="M438 1404L860 280L864 280L1282 1404L1540 1404L1540 0L1363 0L1363 1226L1359 1226L909 0L790 0L329 1226L327 1226L327 0L180 0L180 1404L438 1404Z"  horiz-adv-x="1720" vert-adv-y="2048"  />

      
      <glyph glyph-name="uni4e" unicode="&#x4e;" d="M401 1404L1069 260L1073 260Q1069 282 1066.50 314.50Q1064 347 1064 372L1064 1404L1212 1404L1212 0L1040 0L354 1177L323 1224L319 1224Q323 1192 325 1161Q327 1130 327 1097L327 0L180 0L180 1404L401 1404Z"  horiz-adv-x="1392" vert-adv-y="2048"  />

      
      <glyph glyph-name="uni4f" unicode="&#x4f;" d="M667 1425Q778 1425 873 1388.50Q968 1352 1044 1277Q1137 1186 1191 1039Q1245 892 1245 702Q1245 512 1191 365Q1137 218 1044 126Q968 52 873 16Q778-20 667-20Q557-20 461.50 16Q366 52 290 126Q197 218 143.50 365Q90 512 90 702Q90 892 143.50 1039Q197 1186 290 1277Q366 1352 461.50 1388.50Q557 1425 667 1425M667 1273Q586 1273 516.50 1237.50Q447 1202 395 1134Q340 1063 309 952.50Q278 842 278 702Q278 562 309 451.50Q340 341 395 270Q447 202 516.50 166.50Q586 131 667 131Q748 131 817.50 166.50Q887 202 940 270Q995 341 1025.50 451.50Q1056 562 1056 702Q1056 842 1025.50 952.50Q995 1063 940 1134Q887 1202 817.50 1237.50Q748 1273 667 1273Z"  horiz-adv-x="1335" vert-adv-y="2048"  />

      
      <glyph glyph-name="uni50" unicode="&#x50;" d="M180 1404L645 1404Q774 1404 855.50 1381.50Q937 1359 997 1314Q1068 1261 1107 1180.50Q1146 1100 1146 995Q1146 898 1112 817.50Q1078 737 1015 679Q956 625 877 597Q798 569 651 569L356 569L356 0L180 0L180 1404M356 720L630 720Q731 720 785 738Q839 756 876 790Q913 824 935.50 878.50Q958 933 958 999Q958 1056 937.50 1105.50Q917 1155 876 1189Q839 1220 783 1236.50Q727 1253 647 1253L356 1253L356 720Z"  horiz-adv-x="1198" vert-adv-y="2048"  />

      
      <glyph glyph-name="uni51" unicode="&#x51;" d="M1153-159L1153-307Q1109-320 1068.50-326.50Q1028-333 991-333Q842-333 751-249Q660-165 663-20Q654-20 644.50-20Q635-20 626-20Q541-16 449.50 21.50Q358 59 290 124Q199 212 144.50 361.50Q90 511 90 702Q90 891 143.50 1039Q197 1187 290 1277Q366 1352 461.50 1388.50Q557 1425 667 1425Q778 1425 873 1388.50Q968 1352 1044 1277Q1137 1186 1191 1039Q1245 892 1245 702Q1245 512 1191 365.50Q1137 219 1044 126Q996 79 936.50 45Q877 11 806-6Q803-43 815-77.50Q827-112 851-137Q875-160 906.50-171Q938-182 989-182Q1028-182 1069.50-176Q1111-170 1153-159M667 1273Q586 1273 516.50 1237.50Q447 1202 395 1134Q340 1063 309 952.50Q278 842 278 702Q278 562 309 451.50Q340 341 395 270Q447 202 516.50 166.50Q586 131 667 131Q748 131 817.50 166.50Q887 202 940 270Q995 341 1025.50 451.50Q1056 562 1056 702Q1056 842 1025.50 952.50Q995 1063 940 1134Q887 1202 817.50 1237.50Q748 1273 667 1273Z"  horiz-adv-x="1335" vert-adv-y="2048"  />

      
      <glyph glyph-name="uni52" unicode="&#x52;" d="M180 1404L710 1404Q822 1404 896 1385Q970 1366 1026 1327Q1097 1276 1138 1192.50Q1179 1109 1179 1011Q1179 887 1111.50 785Q1044 683 915 641L1196 0L1007 0L747 604L356 604L356 0L180 0L180 1404M356 1253L356 755L714 755Q787 755 847 782.50Q907 810 944 860Q967 892 979 932.50Q991 973 991 1013Q991 1068 969 1117.50Q947 1167 907 1200Q872 1227 827.50 1240Q783 1253 710 1253L356 1253Z"  horiz-adv-x="1304" vert-adv-y="2048"  />

      
      <glyph glyph-name="uni53" unicode="&#x53;" d="M1112 1081L952 1038Q937 1085 909.50 1127.50Q882 1170 845 1200Q802 1234 740 1253.50Q678 1273 598 1273Q540 1273 493 1262Q446 1251 409 1228Q360 1197 335.50 1149Q311 1101 311 1046Q311 968 371 919.50Q431 871 563 839L772 788Q875 763 932 737Q989 711 1030 677Q1090 628 1124.50 557Q1159 486 1159 401Q1159 303 1116 220Q1073 137 1003 81Q938 30 854 5Q770-20 651-20Q520-20 436.50 2Q353 24 280 73Q203 125 145.50 203.50Q88 282 61 378L219 413Q236 354 271.50 302.50Q307 251 358 212Q410 173 477 152Q544 131 634 131Q792 131 881 194Q970 257 970 372Q970 464 909.50 522Q849 580 737 608L503 665Q311 712 223 806.50Q135 901 135 1038Q135 1227 267 1326Q399 1425 612 1425Q822 1425 947.50 1333.50Q1073 1242 1112 1081Z"  horiz-adv-x="1230" vert-adv-y="2048"  />

      
      <glyph glyph-name="uni54" unicode="&#x54;" d="M22 1404L993 1404L993 1253L595 1253L595 0L419 0L419 1253L22 1253L22 1404Z"  horiz-adv-x="1015" vert-adv-y="2048"  />

      
      <glyph glyph-name="uni55" unicode="&#x55;" d="M157 1404L333 1404L333 520Q333 412 346.50 348Q360 284 389 241Q428 183 496.50 157Q565 131 661 131Q748 131 809.50 157.50Q871 184 911 233Q947 278 963.50 340Q980 402 980 520L980 1404L1128 1404L1128 516Q1128 371 1103.50 285.50Q1079 200 1026 135Q961 57 864 18.50Q767-20 643-20Q508-20 417 14Q326 48 268 114Q209 180 183 269.50Q157 359 157 516L157 1404Z"  horiz-adv-x="1286" vert-adv-y="2048"  />

      
      <glyph glyph-name="uni56" unicode="&#x56;" d="M8 1404L192 1404L581 245L968 1404L1124 1404L649 0L481 0L8 1404Z"  horiz-adv-x="1132" vert-adv-y="2048"  />

      
      <glyph glyph-name="uni57" unicode="&#x57;" d="M40 1404L225 1404L507 266L808 1404L952 1404L1273 266L1536 1404L1691 1404L1349 0L1173 0L868 1089L579 0L403 0L40 1404Z"  horiz-adv-x="1732" vert-adv-y="2048"  />

      
      <glyph glyph-name="uni58" unicode="&#x58;" d="M77 1404L274 1404L579 884L884 1404L1064 1404L669 755L1114 0L917 0L565 598L200 0L20 0L477 733L77 1404Z"  horiz-adv-x="1134" vert-adv-y="2048"  />

      
      <glyph glyph-name="uni59" unicode="&#x59;" d="M1091 1404L622 591L622 0L446 0L446 591L-22 1404L182 1404L555 757L931 1404L1091 1404Z"  horiz-adv-x="1069" vert-adv-y="2048"  />

      
      <glyph glyph-name="uni5a" unicode="&#x5a;" d="M94 1404L1028 1404L1028 1288L256 151L1050 151L1050 0L59 0L59 147L819 1253L94 1253L94 1404Z"  horiz-adv-x="1101" vert-adv-y="2048"  />

      
      <glyph glyph-name="uni5b" unicode="&#x5b;" d="M509 1404L509 1294L286 1294L286-239L509-239L509-350L143-350L143 1404L509 1404Z"  horiz-adv-x="571" vert-adv-y="2048"  />

      
      <glyph glyph-name="uni5c" unicode="&#x5c;" d="M178 1404L1026 0L886 0L38 1404L178 1404Z"  horiz-adv-x="1067" vert-adv-y="2048"  />

      
      <glyph glyph-name="uni5d" unicode="&#x5d;" d="M61 1404L428 1404L428-350L61-350L61-239L284-239L284 1294L61 1294L61 1404Z"  horiz-adv-x="571" vert-adv-y="2048"  />

      
      <glyph glyph-name="uni5e" unicode="&#x5e;" d="M614 1210L335 528L212 528L567 1404L661 1404L1015 528L892 528L614 1210Z"  horiz-adv-x="1226" vert-adv-y="2048"  />

      
      <glyph glyph-name="uni5f" unicode="&#x5f;" d="M1024-133L1024-260L0-260L0-133L1024-133Z"  horiz-adv-x="1024" vert-adv-y="2048"  />

      
      <glyph glyph-name="uni60" unicode="&#x60;" d="M210 1511L622 1267L581 1185L141 1378L210 1511Z"  horiz-adv-x="778" vert-adv-y="2048"  />

      
      <glyph glyph-name="uni61" unicode="&#x61;" d="M260 755L110 780Q139 922 243 993Q347 1064 552 1064Q656 1064 728 1046Q800 1028 849 989Q912 939 938 861.50Q964 784 964 620L964 219Q964 167 971 113Q978 59 991 0L827 0Q820 48 815 96.50Q810 145 808 194Q760 93 667.50 36.50Q575-20 444-20Q360-20 292.50 3Q225 26 176 71Q130 113 105.50 169Q81 225 81 292Q81 379 119 445.50Q157 512 223 557Q292 604 387.50 624.50Q483 645 673 645L808 645L808 688Q808 753 798 794Q788 835 768 862Q739 901 689.50 919Q640 937 550 937Q421 937 347 892Q273 847 260 755M808 518L675 518Q569 518 490 506Q411 494 360 466Q307 438 280 392.50Q253 347 253 292Q253 251 272.50 214.50Q292 178 329 153Q358 134 396 124Q434 114 479 114Q553 114 618 146Q683 178 727 231Q765 278 786.50 343.50Q808 409 808 466L808 518Z"  horiz-adv-x="1114" vert-adv-y="2048"  />

      
      <glyph glyph-name="uni62" unicode="&#x62;" d="M321 1404L321 868Q367 959 448 1011.50Q529 1064 641 1064Q727 1064 797.50 1033Q868 1002 921 944Q980 878 1015 770.50Q1050 663 1050 528Q1050 417 1022 313.50Q994 210 937 135Q877 53 798.50 16.50Q720-20 626-20Q516-20 431.50 32Q347 84 301 176Q282 124 267.50 82.50Q253 41 239 0L165 0L165 1404L321 1404M321 638L321 438Q321 296 400 205Q479 114 598 114Q659 114 714 145Q769 176 806 237Q836 285 853 358.50Q870 432 870 526Q870 619 853.50 692.50Q837 766 808 813Q774 868 721 898.50Q668 929 593 929Q536 929 489 909Q442 889 405 851Q364 811 342.50 759Q321 707 321 638Z"  horiz-adv-x="1132" vert-adv-y="2048"  />

      
      <glyph glyph-name="uni63" unicode="&#x63;" d="M925 706L778 679Q772 723 756.50 766Q741 809 720 837Q690 880 641.50 904.50Q593 929 530 929Q464 929 414 899Q364 869 329 813Q294 756 278 681Q262 606 262 518Q262 426 279 346.50Q296 267 329 219Q363 169 413.50 141.50Q464 114 528 114Q586 114 630.50 135Q675 156 710 200Q737 234 754.50 279Q772 324 778 370L925 344Q915 269 883.50 202.50Q852 136 806 90Q751 33 680.50 6.50Q610-20 524-20Q441-20 367 5Q293 30 237 81Q162 151 121.50 267.50Q81 384 81 520Q81 629 107 722.50Q133 816 190 894Q254 983 340 1023.50Q426 1064 534 1064Q622 1064 693.50 1035.50Q765 1007 819 946Q856 903 885 839Q914 775 925 706Z"  horiz-adv-x="987" vert-adv-y="2048"  />

      
      <glyph glyph-name="uni64" unicode="&#x64;" d="M811 1404L966 1404L966 0L823 0L823 176L819 176Q808 148 791.50 122.50Q775 97 753 75Q708 29 646.50 4.50Q585-20 507-20Q406-20 328.50 20Q251 60 194 135Q138 208 109.50 304Q81 400 81 514Q81 655 118.50 764.50Q156 874 221 944Q276 1003 347.50 1033.50Q419 1064 509 1064Q573 1064 628 1047.50Q683 1031 731 993Q752 976 772.50 953.50Q793 931 811 905L811 1404M811 423L811 643Q811 697 790.50 750Q770 803 737 841Q698 885 646 907Q594 929 536 929Q464 929 412 898.50Q360 868 325 813Q292 760 277 688.50Q262 617 262 526Q262 433 277.50 361.50Q293 290 323 237Q358 177 408.50 145.50Q459 114 528 114Q594 114 650 142.50Q706 171 741 217Q771 255 791 313Q811 371 811 423Z"  horiz-adv-x="1132" vert-adv-y="2048"  />

      
      <glyph glyph-name="uni65" unicode="&#x65;" d="M849 315L1001 284Q978 214 937 157.50Q896 101 831 57Q771 16 705-2Q639-20 563-20Q452-20 363.50 17Q275 54 208 131Q142 206 111.50 302.50Q81 399 81 514Q81 766 219 915Q357 1064 567 1064Q777 1064 898 922.50Q1019 781 1019 536L1019 499L262 499Q260 447 269 394Q278 341 296 296Q334 204 403 159Q472 114 569 114Q638 114 693 138Q748 162 786 204Q806 227 822.50 256Q839 285 849 315M270 626L839 626Q838 676 825.50 727.50Q813 779 790 817Q756 873 700 905Q644 937 569 937Q503 937 443.50 910.50Q384 884 342 831Q309 790 290 736Q271 682 270 626Z"  horiz-adv-x="1091" vert-adv-y="2048"  />

      
      <glyph glyph-name="uni66" unicode="&#x66;" d="M663 1411L663 1284Q626 1291 594 1294.50Q562 1298 530 1298Q483 1298 452.50 1287Q422 1276 401 1255Q379 1233 367.50 1198.50Q356 1164 356 1114L356 1044L602 1044L602 917L356 917L356 0L200 0L200 917L16 917L16 1044L200 1044L200 1073Q200 1184 223.50 1251Q247 1318 294 1359Q330 1391 384 1408Q438 1425 512 1425Q551 1425 589.50 1421Q628 1417 663 1411Z"  horiz-adv-x="612" vert-adv-y="2048"  />

      
      <glyph glyph-name="uni67" unicode="&#x67;" d="M1013 1200L1013 1073L985 1073Q978 1073 965 1074Q952 1075 946 1075Q910 1075 886 1063.50Q862 1052 845 1028Q837 1015 827.50 993.50Q818 972 813 952Q865 900 889 834.50Q913 769 913 696Q913 633 888 571.50Q863 510 813 460Q763 411 692.50 382.50Q622 354 542 354Q525 354 505 356Q485 358 460 362Q403 372 403 372Q403 372 391 372Q364 372 341 366Q318 360 303 350Q284 337 274 317.50Q264 298 264 276Q264 234 297 208.50Q330 183 401 180L618 169Q764 163 810 155Q856 147 892 133Q972 101 1012 40.50Q1052-20 1052-92Q1052-168 1012-230.50Q972-293 897-331Q836-362 744-377.50Q652-393 538-393Q306-393 180.50-323Q55-253 55-122Q55-44 98 10.50Q141 65 212 88Q166 114 139 156Q112 198 112 251Q112 320 152 370Q192 420 256 438L256 442Q193 486 156.50 554.50Q120 623 120 712Q120 783 149 848Q178 913 227 960Q277 1008 351 1036Q425 1064 520 1064Q576 1064 628 1053.50Q680 1043 731 1021Q737 1083 771 1128Q805 1173 864 1191Q885 1198 905 1201Q925 1204 964 1204Q979 1204 986.50 1203.50Q994 1203 1001 1202L1013 1200M520 481Q627 481 686 546.50Q745 612 745 712Q745 761 729.50 802Q714 843 684 874Q652 906 611 921.50Q570 937 522 937Q482 937 452 929.50Q422 922 397 907Q344 875 316 822Q288 769 288 710Q288 663 307 615Q326 567 356 538Q384 511 428 496Q472 481 520 481M575 28L325 40Q272 18 243.50-15.50Q215-49 215-92Q215-178 302-222Q389-266 540-266Q593-266 659.50-258.50Q726-251 765-239Q829-219 860.50-182.50Q892-146 892-106Q892-46 839.50-14Q787 18 575 28Z"  horiz-adv-x="1038" vert-adv-y="2048"  />

      
      <glyph glyph-name="uni68" unicode="&#x68;" d="M321 1404L321 847Q368 947 454.50 1005.50Q541 1064 659 1064Q739 1064 801.50 1038.50Q864 1013 905 968Q944 924 964.50 859Q985 794 985 686L985 0L829 0L829 647Q829 750 818 792Q807 834 786 862Q762 893 722.50 911Q683 929 630 929Q567 929 508.50 902.50Q450 876 405 821Q363 770 342 701Q321 632 321 534L321 0L165 0L165 1404L321 1404Z"  horiz-adv-x="1150" vert-adv-y="2048"  />

      
      <glyph glyph-name="uni69" unicode="&#x69;" d="M321 1044L321 0L165 0L165 1044L321 1044M329 1404L329 1224L157 1224L157 1404L329 1404Z"  horiz-adv-x="487" vert-adv-y="2048"  />

      
      <glyph glyph-name="uni6a" unicode="&#x6a;" d="M319 1044L319-10Q319-139 289-211Q259-283 196-319Q165-337 118-347.50Q71-358 14-358Q-21-358-58.50-353.50Q-96-349-131-339L-131-217Q-98-224-70-227.50Q-42-231-12-231Q41-231 77-216Q113-201 135-169Q149-148 156-112.50Q163-77 163-18L163 1044L319 1044M327 1404L327 1224L155 1224L155 1404L327 1404Z"  horiz-adv-x="485" vert-adv-y="2048"  />

      
      <glyph glyph-name="uni6b" unicode="&#x6b;" d="M321 1404L321 505L802 1044L974 1044L653 679L1017 0L845 0L542 569L321 321L321 0L165 0L165 1404L321 1404Z"  horiz-adv-x="1044" vert-adv-y="2048"  />

      
      <glyph glyph-name="uni6c" unicode="&#x6c;" d="M321 1404L321 0L165 0L165 1404L321 1404Z"  horiz-adv-x="487" vert-adv-y="2048"  />

      
      <glyph glyph-name="uni6d" unicode="&#x6d;" d="M321 0L165 0L165 1040L307 1040L307 839L309 839Q353 941 437.50 1002.50Q522 1064 626 1064Q695 1064 751 1040Q807 1016 845 968Q870 938 888 898Q906 858 915 819Q933 865 960.50 906Q988 947 1019 976Q1069 1024 1125.50 1044Q1182 1064 1251 1064Q1323 1064 1380 1042Q1437 1020 1480 970Q1522 922 1542 854Q1562 786 1562 694L1562 0L1406 0L1406 655Q1406 749 1396.50 790.50Q1387 832 1366 862Q1341 896 1305 912.50Q1269 929 1220 929Q1165 929 1120.50 910.50Q1076 892 1038 856Q989 810 965.50 752.50Q942 695 942 600L942 0L786 0L786 655Q786 737 774 783Q762 829 737 862Q711 896 674 912.50Q637 929 583 929Q535 929 495.50 913.50Q456 898 423 870Q371 824 346 757.50Q321 691 321 600L321 0Z"  horiz-adv-x="1728" vert-adv-y="2048"  />

      
      <glyph glyph-name="uni6e" unicode="&#x6e;" d="M321 0L165 0L165 1040L309 1040L309 847L313 847Q360 949 450 1006.50Q540 1064 659 1064Q739 1064 801.50 1039Q864 1014 905 968Q944 924 964.50 859Q985 794 985 686L985 0L829 0L829 647Q829 750 818 792Q807 834 786 862Q762 893 722 911Q682 929 626 929Q571 929 521 909Q471 889 432 854Q375 802 348 727.50Q321 653 321 550L321 0Z"  horiz-adv-x="1150" vert-adv-y="2048"  />

      
      <glyph glyph-name="uni6f" unicode="&#x6f;" d="M81 522Q81 657 124 767Q167 877 239 946Q299 1003 380 1033.50Q461 1064 552 1064Q644 1064 724.50 1033.50Q805 1003 866 946Q938 877 981 767Q1024 657 1024 522Q1024 386 981 276.50Q938 167 866 98Q805 41 724.50 10.50Q644-20 552-20Q461-20 380 10.50Q299 41 239 98Q167 167 124 276.50Q81 386 81 522M552 114Q611 114 659.50 134Q708 154 743 188Q794 239 818.50 325.50Q843 412 843 522Q843 631 818.50 718Q794 805 743 856Q708 890 659.50 909.50Q611 929 552 929Q494 929 445 909.50Q396 890 362 856Q311 805 286.50 718Q262 631 262 522Q262 412 286.50 325.50Q311 239 362 188Q396 154 445 134Q494 114 552 114Z"  horiz-adv-x="1105" vert-adv-y="2048"  />

      
      <glyph glyph-name="uni70" unicode="&#x70;" d="M321-339L165-339L165 1044L309 1044L309 847L311 849Q353 948 434 1006Q515 1064 622 1064Q715 1064 787 1032.50Q859 1001 911 944Q975 871 1008.50 759Q1042 647 1042 528Q1042 419 1014 313.50Q986 208 931 135Q876 60 798 20Q720-20 622-20Q518-20 443 26Q368 72 327 163L321 163L321-339M321 632L321 413Q321 347 340 294.50Q359 242 395 202Q431 161 482 137.50Q533 114 593 114Q655 114 708.50 145Q762 176 798 237Q829 288 845.50 362.50Q862 437 862 526Q862 619 845.50 692.50Q829 766 800 813Q764 871 711 900Q658 929 595 929Q540 929 493 909Q446 889 407 847Q365 803 343 749.50Q321 696 321 632Z"  horiz-adv-x="1124" vert-adv-y="2048"  />

      
      <glyph glyph-name="uni71" unicode="&#x71;" d="M966-339L811-339L811 176L804 176Q792 143 772.50 115Q753 87 722 61Q676 21 620 0.50Q564-20 489-20Q396-20 322.50 16Q249 52 190 135Q136 210 108.50 312.50Q81 415 81 528Q81 659 117 765.50Q153 872 221 944Q281 1007 353.50 1035.50Q426 1064 512 1064Q581 1064 635.50 1047.50Q690 1031 735 993Q762 970 784.50 940Q807 910 823 880L884 1044L974 1044Q971 1020 968.50 980.50Q966 941 966 919L966-339M811 464L811 612Q811 671 791.50 727Q772 783 739 827Q701 876 650.50 902.50Q600 929 536 929Q469 929 418.50 898.50Q368 868 331 813Q296 759 279 687Q262 615 262 526Q262 444 277 367.50Q292 291 323 237Q357 179 407.50 146.50Q458 114 526 114Q599 114 656.50 150Q714 186 753 251Q782 299 796.50 354Q811 409 811 464Z"  horiz-adv-x="1140" vert-adv-y="2048"  />

      
      <glyph glyph-name="uni72" unicode="&#x72;" d="M165 1044L309 1044L309 796L313 796Q327 857 358.50 911.50Q390 966 430 999Q466 1030 513.50 1048.50Q561 1067 614 1067Q632 1067 646.50 1065.50Q661 1064 673 1062L673 911Q666 911 658 911Q650 911 641 911Q561 909 502 879.50Q443 850 397 792Q358 743 339.50 683Q321 623 321 524L321 0L165 0L165 1044Z"  horiz-adv-x="696" vert-adv-y="2048"  />

      
      <glyph glyph-name="uni73" unicode="&#x73;" d="M905 804L757 774Q732 848 666 892.50Q600 937 503 937Q402 937 343 895Q284 853 284 778Q284 723 322.50 689Q361 655 468 634L610 608Q724 586 777 563.50Q830 541 866 507Q906 470 928 415.50Q950 361 950 292Q950 226 925 169.50Q900 113 847 69Q793 24 717.50 2Q642-20 534-20Q444-20 371.50-6.50Q299 7 245 36Q176 73 128.50 134.50Q81 196 61 276L217 307Q224 268 243 235Q262 202 290 178Q328 145 388 125.50Q448 106 526 106Q585 106 631.50 119Q678 132 708 155Q738 178 754 209.50Q770 241 770 280Q770 346 726 382.50Q682 419 567 442L409 473Q250 504 177 578Q104 652 104 763Q104 825 127.50 879Q151 933 198 974Q252 1021 327 1042.50Q402 1064 501 1064Q609 1064 683 1038.50Q757 1013 811 962Q842 932 866.50 891.50Q891 851 905 804Z"  horiz-adv-x="1001" vert-adv-y="2048"  />

      
      <glyph glyph-name="uni74" unicode="&#x74;" d="M348 1323L348 1044L583 1044L583 917L348 917L348 301Q348 245 359.50 210.50Q371 176 397 153Q418 134 450.50 124Q483 114 524 114Q547 114 576.50 117Q606 120 641 126L641 0Q604-5 566-8.50Q528-12 491-12Q409-12 353 6.50Q297 25 262 61Q226 97 209 150Q192 203 192 278L192 917L10 917L10 1044L192 1044L192 1306L348 1323Z"  horiz-adv-x="647" vert-adv-y="2048"  />

      
      <glyph glyph-name="uni75" unicode="&#x75;" d="M976 1044L976 0L833 0L833 206L829 206Q787 96 700 38Q613-20 507-20Q430-20 368 6Q306 32 262 81Q215 135 190 214Q165 293 165 395L165 1044L321 1044L321 395Q321 324 334 268Q347 212 374 180Q400 148 442.50 131Q485 114 532 114Q652 114 736.50 212.50Q821 311 821 489L821 1044L976 1044Z"  horiz-adv-x="1142" vert-adv-y="2048"  />

      
      <glyph glyph-name="uni76" unicode="&#x76;" d="M923 1044L565 0L397 0L26 1044L206 1044L491 194L495 194L780 1044L923 1044Z"  horiz-adv-x="950" vert-adv-y="2048"  />

      
      <glyph glyph-name="uni77" unicode="&#x77;" d="M1374 1044L1064 0L933 0L704 770L702 772L487 0L356 0L40 1044L212 1044L428 264L432 264L647 1044L778 1044L1003 264L1007 264L1230 1044L1374 1044Z"  horiz-adv-x="1415" vert-adv-y="2048"  />

      
      <glyph glyph-name="uni78" unicode="&#x78;" d="M40 1044L229 1044L448 684L675 1044L831 1044L528 573L886 0L698 0L436 421L163 0L8 0L356 538L40 1044Z"  horiz-adv-x="894" vert-adv-y="2048"  />

      
      <glyph glyph-name="uni79" unicode="&#x79;" d="M894 1044L483-98Q457-170 431.50-211.50Q406-253 372-284Q331-323 284-341.50Q237-360 178-360Q146-360 111.50-354.50Q77-349 47-339L47-219Q74-226 99-229.50Q124-233 159-233Q202-233 228-224.50Q254-216 276-198Q301-177 323-138Q345-99 374-16L387 18L20 1044L200 1044L471 241L751 1044L894 1044Z"  horiz-adv-x="874" vert-adv-y="2048"  />

      
      <glyph glyph-name="uni7a" unicode="&#x7a;" d="M837 1044L837 956L266 126L837 126L837 0L71 0L71 124L624 917L114 917L114 1044L837 1044Z"  horiz-adv-x="894" vert-adv-y="2048"  />

      
      <glyph glyph-name="uni7b" unicode="&#x7b;" d="M573 1425L573 1302L524 1302Q467 1302 439 1278.50Q411 1255 411 1173L411 841Q411 752 373 677Q335 602 262 540L262 538Q334 491 372.50 411Q411 331 411 237L411-94Q411-157 436.50-191Q462-225 518-225L573-225L573-348L479-348Q371-348 314.50-292.50Q258-237 258-112L258 204Q258 342 216.50 409.50Q175 477 108 477L96 477L96 600L106 600Q178 600 218 667.50Q258 735 258 870L258 1191Q258 1318 309 1371.50Q360 1425 473 1425L573 1425Z"  horiz-adv-x="589" vert-adv-y="2048"  />

      
      <glyph glyph-name="uni7c" unicode="&#x7c;" d="M579 1404L579 0L456 0L456 1404L579 1404Z"  horiz-adv-x="1036" vert-adv-y="2048"  />

      
      <glyph glyph-name="uni7d" unicode="&#x7d;" d="M16 1425L129 1425Q224 1425 277.50 1374Q331 1323 331 1191L331 870Q331 735 371 667.50Q411 600 483 600L493 600L493 477L481 477Q414 477 372.50 409.50Q331 342 331 204L331-114Q331-228 279-288Q227-348 110-348L16-348L16-225L71-225Q127-225 152.50-191Q178-157 178-94L178 237Q178 331 216 411Q254 491 327 538L327 540Q254 602 216 677Q178 752 178 841L178 1173Q178 1251 153 1276.50Q128 1302 77 1302L16 1302L16 1425Z"  horiz-adv-x="589" vert-adv-y="2048"  />

      
      <glyph glyph-name="uni7e" unicode="&#x7e;" d="M223 444L129 505Q149 559 181.50 609.50Q214 660 249 690Q284 719 330.50 737Q377 755 423 755Q437 755 453 753Q469 751 489 747Q518 741 546.50 731Q575 721 604 708L661 681Q766 633 801 624.50Q836 616 872 616Q907 616 935 626Q963 636 989 657Q1009 674 1030.50 702.50Q1052 731 1067 759L1163 702Q1139 651 1106 604Q1073 557 1042 530Q1002 495 954.50 476.50Q907 458 860 458Q829 458 794 465.50Q759 473 718 489Q704 495 688.50 501.50Q673 508 620 534L565 561Q525 580 488.50 590Q452 600 417 600Q385 600 357 589.50Q329 579 303 555Q284 537 261.50 505.50Q239 474 223 444Z"  horiz-adv-x="1292" vert-adv-y="2048"  />

      
      <glyph glyph-name="unic0" unicode="&#xc0;" d="M681 1404L1138 0L946 0L815 407L311 407L184 0L24 0L479 1404L681 1404M772 550L563 1216L352 550L772 550Z"  horiz-adv-x="1146" vert-adv-y="2048"  />

      
      <glyph glyph-name="uni0410" unicode="&#x0410;" d="M681 1404L1138 0L946 0L815 407L311 407L184 0L24 0L479 1404L681 1404M772 550L563 1216L352 550L772 550Z"  horiz-adv-x="1146" vert-adv-y="2048"  />

      
      <glyph glyph-name="unic1" unicode="&#xc1;" d="M1058 1404L1058 1253L356 1253L356 821L706 821Q843 821 931.50 797.50Q1020 774 1079 722Q1135 673 1169.50 591.50Q1204 510 1204 417Q1204 334 1176 252.50Q1148 171 1093 112Q1037 52 969 26Q901 0 806 0L180 0L180 1404L1058 1404M356 669L356 151L765 151Q834 151 875.50 166.50Q917 182 948 215Q980 248 997.50 302.50Q1015 357 1015 415Q1015 478 994.50 526.50Q974 575 940 606Q903 638 850 653.50Q797 669 706 669L356 669Z"  horiz-adv-x="1306" vert-adv-y="2048"  />

      
      <glyph glyph-name="uni0411" unicode="&#x0411;" d="M1058 1404L1058 1253L356 1253L356 821L706 821Q843 821 931.50 797.50Q1020 774 1079 722Q1135 673 1169.50 591.50Q1204 510 1204 417Q1204 334 1176 252.50Q1148 171 1093 112Q1037 52 969 26Q901 0 806 0L180 0L180 1404L1058 1404M356 669L356 151L765 151Q834 151 875.50 166.50Q917 182 948 215Q980 248 997.50 302.50Q1015 357 1015 415Q1015 478 994.50 526.50Q974 575 940 606Q903 638 850 653.50Q797 669 706 669L356 669Z"  horiz-adv-x="1306" vert-adv-y="2048"  />

      
      <glyph glyph-name="unic2" unicode="&#xc2;" d="M180 1404L716 1404Q836 1404 904.50 1385.50Q973 1367 1021 1333Q1084 1289 1118.50 1222Q1153 1155 1153 1067Q1153 983 1123.50 919Q1094 855 1044 815Q1018 794 982 776Q946 758 909 747L909 743Q951 735 992 716.50Q1033 698 1069 669Q1134 617 1167 542Q1200 467 1200 380Q1200 293 1164 216.50Q1128 140 1064 90Q1005 42 927.50 21Q850 0 718 0L180 0L180 1404M356 1253L356 806L651 806Q747 806 803.50 822Q860 838 901 872Q940 905 958 947.50Q976 990 976 1040Q976 1097 956 1137.50Q936 1178 894 1206Q859 1230 812 1241.50Q765 1253 679 1253L356 1253M356 663L356 151L706 151Q777 151 831.50 165Q886 179 923 208Q963 240 987 289.50Q1011 339 1011 403Q1011 456 993.50 502Q976 548 942 583Q899 626 841.50 644.50Q784 663 681 663L356 663Z"  horiz-adv-x="1288" vert-adv-y="2048"  />

      
      <glyph glyph-name="uni0412" unicode="&#x0412;" d="M180 1404L716 1404Q836 1404 904.50 1385.50Q973 1367 1021 1333Q1084 1289 1118.50 1222Q1153 1155 1153 1067Q1153 983 1123.50 919Q1094 855 1044 815Q1018 794 982 776Q946 758 909 747L909 743Q951 735 992 716.50Q1033 698 1069 669Q1134 617 1167 542Q1200 467 1200 380Q1200 293 1164 216.50Q1128 140 1064 90Q1005 42 927.50 21Q850 0 718 0L180 0L180 1404M356 1253L356 806L651 806Q747 806 803.50 822Q860 838 901 872Q940 905 958 947.50Q976 990 976 1040Q976 1097 956 1137.50Q936 1178 894 1206Q859 1230 812 1241.50Q765 1253 679 1253L356 1253M356 663L356 151L706 151Q777 151 831.50 165Q886 179 923 208Q963 240 987 289.50Q1011 339 1011 403Q1011 456 993.50 502Q976 548 942 583Q899 626 841.50 644.50Q784 663 681 663L356 663Z"  horiz-adv-x="1288" vert-adv-y="2048"  />

      
      <glyph glyph-name="unic3" unicode="&#xc3;" d="M180 1404L1015 1404L1015 1253L356 1253L356 0L180 0L180 1404Z"  horiz-adv-x="1036" vert-adv-y="2048"  />

      
      <glyph glyph-name="uni0413" unicode="&#x0413;" d="M180 1404L1015 1404L1015 1253L356 1253L356 0L180 0L180 1404Z"  horiz-adv-x="1036" vert-adv-y="2048"  />

      
      <glyph glyph-name="unic4" unicode="&#xc4;" d="M387 1404L1140 1404L1140 151L1304 151L1304-315L1140-315L1140 0L178 0L178-315L14-315L14 151L102 151Q224 379 280 575.50Q336 772 366 1054Q373 1119 373 1119.50Q373 1120 385 1361L387 1404M534 1253L528 1167Q503 820 445.50 591.50Q388 363 278 151L964 151L964 1253L534 1253Z"  horiz-adv-x="1345" vert-adv-y="2048"  />

      
      <glyph glyph-name="uni0414" unicode="&#x0414;" d="M387 1404L1140 1404L1140 151L1304 151L1304-315L1140-315L1140 0L178 0L178-315L14-315L14 151L102 151Q224 379 280 575.50Q336 772 366 1054Q373 1119 373 1119.50Q373 1120 385 1361L387 1404M534 1253L528 1167Q503 820 445.50 591.50Q388 363 278 151L964 151L964 1253L534 1253Z"  horiz-adv-x="1345" vert-adv-y="2048"  />

      
      <glyph glyph-name="unic5" unicode="&#xc5;" d="M180 1404L1069 1404L1069 1253L356 1253L356 806L921 806L921 663L356 663L356 151L1089 151L1089 0L180 0L180 1404Z"  horiz-adv-x="1161" vert-adv-y="2048"  />

      
      <glyph glyph-name="uni0415" unicode="&#x0415;" d="M180 1404L1069 1404L1069 1253L356 1253L356 806L921 806L921 663L356 663L356 151L1089 151L1089 0L180 0L180 1404Z"  horiz-adv-x="1161" vert-adv-y="2048"  />

      
      <glyph glyph-name="unic6" unicode="&#xc6;" d="M854 1404L1030 1404L1030 804L1126 804Q1179 804 1226 822Q1273 840 1310 872Q1339 897 1356.50 927Q1374 957 1390 1021Q1438 1209 1441 1218.50Q1444 1228 1447 1236Q1480 1322 1534 1367.50Q1588 1413 1671 1413Q1690 1413 1709 1411Q1728 1409 1746 1404L1746 1267Q1740 1268 1733.50 1268.50Q1727 1269 1718 1269Q1701 1269 1684.50 1264Q1668 1259 1654 1249Q1637 1236 1622.50 1211.50Q1608 1187 1597 1148Q1593 1134 1574 1055.50Q1555 977 1533 919Q1505 842 1467 807.50Q1429 773 1359 753L1359 747Q1433 740 1489 700.50Q1545 661 1581 585Q1591 563 1601 536Q1611 509 1626 462Q1648 390 1666 325Q1684 260 1695 227Q1714 172 1734 157.50Q1754 143 1785 143Q1805 143 1811 143.50Q1817 144 1822 145L1822 8Q1799 0 1776-4Q1753-8 1730-8Q1672-8 1631 15Q1590 38 1560 81Q1535 118 1503.50 206.50Q1472 295 1449 393Q1424 500 1399.50 546.50Q1375 593 1341 618Q1312 639 1268.50 650Q1225 661 1165 661L1030 661L1030 0L854 0L854 661L718 661Q658 661 614.50 650Q571 639 542 618Q507 592 482.50 545.50Q458 499 434 393Q411 296 380 207Q349 118 323 81Q293 38 252 15Q211-8 153-8Q130-8 107-4Q84 0 61 8L61 145Q66 144 72 143.50Q78 143 98 143Q129 143 149.50 157.50Q170 172 188 227Q199 260 217 325Q235 390 258 462Q272 509 282 536Q292 563 303 585Q339 661 394.50 700.50Q450 740 524 747L524 753Q454 773 416 807.50Q378 842 350 919Q328 977 309 1055.50Q290 1134 286 1148Q275 1187 260.50 1211.50Q246 1236 229 1249Q215 1259 198.50 1264Q182 1269 165 1269Q156 1269 149.50 1268.50Q143 1268 137 1267L137 1404Q155 1409 174 1411Q193 1413 212 1413Q295 1413 349 1367.50Q403 1322 436 1236Q439 1228 442 1218.50Q445 1209 493 1021Q510 957 527 927Q544 897 573 872Q610 840 657 822Q704 804 757 804L854 804L854 1404Z"  horiz-adv-x="1884" vert-adv-y="2048"  />

      
      <glyph glyph-name="uni0416" unicode="&#x0416;" d="M854 1404L1030 1404L1030 804L1126 804Q1179 804 1226 822Q1273 840 1310 872Q1339 897 1356.50 927Q1374 957 1390 1021Q1438 1209 1441 1218.50Q1444 1228 1447 1236Q1480 1322 1534 1367.50Q1588 1413 1671 1413Q1690 1413 1709 1411Q1728 1409 1746 1404L1746 1267Q1740 1268 1733.50 1268.50Q1727 1269 1718 1269Q1701 1269 1684.50 1264Q1668 1259 1654 1249Q1637 1236 1622.50 1211.50Q1608 1187 1597 1148Q1593 1134 1574 1055.50Q1555 977 1533 919Q1505 842 1467 807.50Q1429 773 1359 753L1359 747Q1433 740 1489 700.50Q1545 661 1581 585Q1591 563 1601 536Q1611 509 1626 462Q1648 390 1666 325Q1684 260 1695 227Q1714 172 1734 157.50Q1754 143 1785 143Q1805 143 1811 143.50Q1817 144 1822 145L1822 8Q1799 0 1776-4Q1753-8 1730-8Q1672-8 1631 15Q1590 38 1560 81Q1535 118 1503.50 206.50Q1472 295 1449 393Q1424 500 1399.50 546.50Q1375 593 1341 618Q1312 639 1268.50 650Q1225 661 1165 661L1030 661L1030 0L854 0L854 661L718 661Q658 661 614.50 650Q571 639 542 618Q507 592 482.50 545.50Q458 499 434 393Q411 296 380 207Q349 118 323 81Q293 38 252 15Q211-8 153-8Q130-8 107-4Q84 0 61 8L61 145Q66 144 72 143.50Q78 143 98 143Q129 143 149.50 157.50Q170 172 188 227Q199 260 217 325Q235 390 258 462Q272 509 282 536Q292 563 303 585Q339 661 394.50 700.50Q450 740 524 747L524 753Q454 773 416 807.50Q378 842 350 919Q328 977 309 1055.50Q290 1134 286 1148Q275 1187 260.50 1211.50Q246 1236 229 1249Q215 1259 198.50 1264Q182 1269 165 1269Q156 1269 149.50 1268.50Q143 1268 137 1267L137 1404Q155 1409 174 1411Q193 1413 212 1413Q295 1413 349 1367.50Q403 1322 436 1236Q439 1228 442 1218.50Q445 1209 493 1021Q510 957 527 927Q544 897 573 872Q610 840 657 822Q704 804 757 804L854 804L854 1404Z"  horiz-adv-x="1884" vert-adv-y="2048"  />

      
      <glyph glyph-name="unic7" unicode="&#xc7;" d="M436 661L436 804L614 804Q707 804 759.50 816Q812 828 845 854Q882 881 904.50 932.50Q927 984 927 1044Q927 1098 904 1143.50Q881 1189 837 1220Q802 1245 749 1259Q696 1273 634 1273Q563 1273 498.50 1254.50Q434 1236 385 1200Q341 1168 311 1126Q281 1084 258 1017L100 1060Q124 1143 170 1208Q216 1273 276 1318Q346 1370 432 1397.50Q518 1425 620 1425Q721 1425 801 1405Q881 1385 942 1347Q1018 1299 1060.50 1229Q1103 1159 1103 1075Q1103 1026 1088.50 973.50Q1074 921 1050 882Q1017 828 970.50 797Q924 766 864 753L864 749Q922 744 973 721Q1024 698 1060 663Q1107 619 1133 555Q1159 491 1159 415Q1159 315 1117 229Q1075 143 1009 88Q944 33 855 6.50Q766-20 628-20Q496-20 408 4Q320 28 251 83Q191 132 144 207Q97 282 77 374L247 411Q260 361 286 314Q312 267 350 231Q402 180 471 155.50Q540 131 634 131Q718 131 777.50 150Q837 169 882 208Q928 248 949 296.50Q970 345 970 401Q970 471 944 523.50Q918 576 866 608Q821 635 763.50 648Q706 661 630 661L436 661Z"  horiz-adv-x="1261" vert-adv-y="2048"  />

      
      <glyph glyph-name="uni0417" unicode="&#x0417;" d="M436 661L436 804L614 804Q707 804 759.50 816Q812 828 845 854Q882 881 904.50 932.50Q927 984 927 1044Q927 1098 904 1143.50Q881 1189 837 1220Q802 1245 749 1259Q696 1273 634 1273Q563 1273 498.50 1254.50Q434 1236 385 1200Q341 1168 311 1126Q281 1084 258 1017L100 1060Q124 1143 170 1208Q216 1273 276 1318Q346 1370 432 1397.50Q518 1425 620 1425Q721 1425 801 1405Q881 1385 942 1347Q1018 1299 1060.50 1229Q1103 1159 1103 1075Q1103 1026 1088.50 973.50Q1074 921 1050 882Q1017 828 970.50 797Q924 766 864 753L864 749Q922 744 973 721Q1024 698 1060 663Q1107 619 1133 555Q1159 491 1159 415Q1159 315 1117 229Q1075 143 1009 88Q944 33 855 6.50Q766-20 628-20Q496-20 408 4Q320 28 251 83Q191 132 144 207Q97 282 77 374L247 411Q260 361 286 314Q312 267 350 231Q402 180 471 155.50Q540 131 634 131Q718 131 777.50 150Q837 169 882 208Q928 248 949 296.50Q970 345 970 401Q970 471 944 523.50Q918 576 866 608Q821 635 763.50 648Q706 661 630 661L436 661Z"  horiz-adv-x="1261" vert-adv-y="2048"  />

      
      <glyph glyph-name="unic8" unicode="&#xc8;" d="M180 1404L356 1404L356 460Q356 444 354 403.50Q352 363 350 331Q387 399 392 407.50Q397 416 403 423L1032 1308L1032 1404L1208 1404L1208 0L1032 0L1032 948Q1032 973 1033.50 1014Q1035 1055 1038 1095Q1022 1065 1007 1039Q992 1013 985 1003L356 122L356 0L180 0L180 1404Z"  horiz-adv-x="1388" vert-adv-y="2048"  />

      
      <glyph glyph-name="uni0418" unicode="&#x0418;" d="M180 1404L356 1404L356 460Q356 444 354 403.50Q352 363 350 331Q387 399 392 407.50Q397 416 403 423L1032 1308L1032 1404L1208 1404L1208 0L1032 0L1032 948Q1032 973 1033.50 1014Q1035 1055 1038 1095Q1022 1065 1007 1039Q992 1013 985 1003L356 122L356 0L180 0L180 1404Z"  horiz-adv-x="1388" vert-adv-y="2048"  />

      
      <glyph glyph-name="unic9" unicode="&#xc9;" d="M180 1404L356 1404L356 460Q356 444 354 403.50Q352 363 350 331Q398 416 399 417.50Q400 419 403 423L1032 1308L1032 1404L1208 1404L1208 0L1032 0L1032 913Q1032 964 1033.50 1006Q1035 1048 1038 1095Q1022 1065 1007 1039Q992 1013 985 1003L356 122L356 0L180 0L180 1404M860 1753L1015 1753Q1011 1702 988.50 1654.50Q966 1607 927 1572Q887 1536 827 1516.50Q767 1497 694 1497Q621 1497 561 1516.50Q501 1536 460 1572Q421 1607 399 1654.50Q377 1702 372 1753L528 1753Q530 1689 577 1654Q624 1619 694 1619Q764 1619 811 1654Q858 1689 860 1753Z"  horiz-adv-x="1388" vert-adv-y="2048"  />

      
      <glyph glyph-name="uni0419" unicode="&#x0419;" d="M180 1404L356 1404L356 460Q356 444 354 403.50Q352 363 350 331Q398 416 399 417.50Q400 419 403 423L1032 1308L1032 1404L1208 1404L1208 0L1032 0L1032 913Q1032 964 1033.50 1006Q1035 1048 1038 1095Q1022 1065 1007 1039Q992 1013 985 1003L356 122L356 0L180 0L180 1404M860 1753L1015 1753Q1011 1702 988.50 1654.50Q966 1607 927 1572Q887 1536 827 1516.50Q767 1497 694 1497Q621 1497 561 1516.50Q501 1536 460 1572Q421 1607 399 1654.50Q377 1702 372 1753L528 1753Q530 1689 577 1654Q624 1619 694 1619Q764 1619 811 1654Q858 1689 860 1753Z"  horiz-adv-x="1388" vert-adv-y="2048"  />

      
      <glyph glyph-name="unica" unicode="&#xca;" d="M356 804L550 804Q631 804 684 828.50Q737 853 772 909Q804 962 835 1101.50Q866 1241 886 1286Q917 1352 970 1388.50Q1023 1425 1101 1425Q1116 1425 1132 1423Q1148 1421 1167 1417L1167 1277Q1152 1280 1141.50 1281Q1131 1282 1122 1282Q1101 1282 1080 1268.50Q1059 1255 1044 1236Q1017 1201 992 1079.50Q967 958 952 917Q926 847 883.50 805.50Q841 764 780 753L780 747Q851 737 904.50 695Q958 653 991 581Q1013 532 1039.50 419Q1066 306 1097 217Q1115 166 1136.50 148.50Q1158 131 1189 131Q1204 131 1212.50 132Q1221 133 1228 135L1228 0Q1210-10 1189.50-15Q1169-20 1140-20Q1076-20 1031 7.50Q986 35 954 92Q935 126 919 171.50Q903 217 871 352Q846 457 835 491.50Q824 526 811 550Q778 610 721 635.50Q664 661 548 661L356 661L356 0L180 0L180 1404L356 1404L356 804Z"  horiz-adv-x="1290" vert-adv-y="2048"  />

      
      <glyph glyph-name="uni041A" unicode="&#x041A;" d="M356 804L550 804Q631 804 684 828.50Q737 853 772 909Q804 962 835 1101.50Q866 1241 886 1286Q917 1352 970 1388.50Q1023 1425 1101 1425Q1116 1425 1132 1423Q1148 1421 1167 1417L1167 1277Q1152 1280 1141.50 1281Q1131 1282 1122 1282Q1101 1282 1080 1268.50Q1059 1255 1044 1236Q1017 1201 992 1079.50Q967 958 952 917Q926 847 883.50 805.50Q841 764 780 753L780 747Q851 737 904.50 695Q958 653 991 581Q1013 532 1039.50 419Q1066 306 1097 217Q1115 166 1136.50 148.50Q1158 131 1189 131Q1204 131 1212.50 132Q1221 133 1228 135L1228 0Q1210-10 1189.50-15Q1169-20 1140-20Q1076-20 1031 7.50Q986 35 954 92Q935 126 919 171.50Q903 217 871 352Q846 457 835 491.50Q824 526 811 550Q778 610 721 635.50Q664 661 548 661L356 661L356 0L180 0L180 1404L356 1404L356 804Z"  horiz-adv-x="1290" vert-adv-y="2048"  />

      
      <glyph glyph-name="unicb" unicode="&#xcb;" d="M333 1404L1150 1404L1150 0L974 0L974 1253L495 1253Q495 784 442.50 477.50Q390 171 278 67Q239 31 191 11.50Q143-8 83-8Q62-8 48-6Q34-4 20 0L20 161Q30 159 38.50 158Q47 157 55 157Q111 157 150.50 182Q190 207 221 262Q281 368 307 639.50Q333 911 333 1341L333 1404Z"  horiz-adv-x="1331" vert-adv-y="2048"  />

      
      <glyph glyph-name="uni041B" unicode="&#x041B;" d="M333 1404L1150 1404L1150 0L974 0L974 1253L495 1253Q495 784 442.50 477.50Q390 171 278 67Q239 31 191 11.50Q143-8 83-8Q62-8 48-6Q34-4 20 0L20 161Q30 159 38.50 158Q47 157 55 157Q111 157 150.50 182Q190 207 221 262Q281 368 307 639.50Q333 911 333 1341L333 1404Z"  horiz-adv-x="1331" vert-adv-y="2048"  />

      
      <glyph glyph-name="unicc" unicode="&#xcc;" d="M438 1404L860 280L864 280L1282 1404L1540 1404L1540 0L1363 0L1363 1226L1359 1226L909 0L790 0L329 1226L327 1226L327 0L180 0L180 1404L438 1404Z"  horiz-adv-x="1720" vert-adv-y="2048"  />

      
      <glyph glyph-name="uni041C" unicode="&#x041C;" d="M438 1404L860 280L864 280L1282 1404L1540 1404L1540 0L1363 0L1363 1226L1359 1226L909 0L790 0L329 1226L327 1226L327 0L180 0L180 1404L438 1404Z"  horiz-adv-x="1720" vert-adv-y="2048"  />

      
      <glyph glyph-name="unicd" unicode="&#xcd;" d="M1187 1404L1187 0L1011 0L1011 671L356 671L356 0L180 0L180 1404L356 1404L356 815L1011 815L1011 1404L1187 1404Z"  horiz-adv-x="1368" vert-adv-y="2048"  />

      
      <glyph glyph-name="uni041D" unicode="&#x041D;" d="M1187 1404L1187 0L1011 0L1011 671L356 671L356 0L180 0L180 1404L356 1404L356 815L1011 815L1011 1404L1187 1404Z"  horiz-adv-x="1368" vert-adv-y="2048"  />

      
      <glyph glyph-name="unice" unicode="&#xce;" d="M667 1425Q778 1425 873 1388.50Q968 1352 1044 1277Q1137 1186 1191 1039Q1245 892 1245 702Q1245 512 1191 365Q1137 218 1044 126Q968 52 873 16Q778-20 667-20Q557-20 461.50 16Q366 52 290 126Q197 218 143.50 365Q90 512 90 702Q90 892 143.50 1039Q197 1186 290 1277Q366 1352 461.50 1388.50Q557 1425 667 1425M667 1273Q586 1273 516.50 1237.50Q447 1202 395 1134Q340 1063 309 952.50Q278 842 278 702Q278 562 309 451.50Q340 341 395 270Q447 202 516.50 166.50Q586 131 667 131Q748 131 817.50 166.50Q887 202 940 270Q995 341 1025.50 451.50Q1056 562 1056 702Q1056 842 1025.50 952.50Q995 1063 940 1134Q887 1202 817.50 1237.50Q748 1273 667 1273Z"  horiz-adv-x="1335" vert-adv-y="2048"  />

      
      <glyph glyph-name="uni041E" unicode="&#x041E;" d="M667 1425Q778 1425 873 1388.50Q968 1352 1044 1277Q1137 1186 1191 1039Q1245 892 1245 702Q1245 512 1191 365Q1137 218 1044 126Q968 52 873 16Q778-20 667-20Q557-20 461.50 16Q366 52 290 126Q197 218 143.50 365Q90 512 90 702Q90 892 143.50 1039Q197 1186 290 1277Q366 1352 461.50 1388.50Q557 1425 667 1425M667 1273Q586 1273 516.50 1237.50Q447 1202 395 1134Q340 1063 309 952.50Q278 842 278 702Q278 562 309 451.50Q340 341 395 270Q447 202 516.50 166.50Q586 131 667 131Q748 131 817.50 166.50Q887 202 940 270Q995 341 1025.50 451.50Q1056 562 1056 702Q1056 842 1025.50 952.50Q995 1063 940 1134Q887 1202 817.50 1237.50Q748 1273 667 1273Z"  horiz-adv-x="1335" vert-adv-y="2048"  />

      
      <glyph glyph-name="unicf" unicode="&#xcf;" d="M180 1404L1167 1404L1167 0L991 0L991 1253L356 1253L356 0L180 0L180 1404Z"  horiz-adv-x="1347" vert-adv-y="2048"  />

      
      <glyph glyph-name="uni041F" unicode="&#x041F;" d="M180 1404L1167 1404L1167 0L991 0L991 1253L356 1253L356 0L180 0L180 1404Z"  horiz-adv-x="1347" vert-adv-y="2048"  />

      
      <glyph glyph-name="unid0" unicode="&#xd0;" d="M180 1404L645 1404Q774 1404 855.50 1381.50Q937 1359 997 1314Q1068 1261 1107 1180.50Q1146 1100 1146 995Q1146 898 1112 817.50Q1078 737 1015 679Q956 625 877 597Q798 569 651 569L356 569L356 0L180 0L180 1404M356 720L630 720Q731 720 785 738Q839 756 876 790Q913 824 935.50 878.50Q958 933 958 999Q958 1056 937.50 1105.50Q917 1155 876 1189Q839 1220 783 1236.50Q727 1253 647 1253L356 1253L356 720Z"  horiz-adv-x="1198" vert-adv-y="2048"  />

      
      <glyph glyph-name="uni0420" unicode="&#x0420;" d="M180 1404L645 1404Q774 1404 855.50 1381.50Q937 1359 997 1314Q1068 1261 1107 1180.50Q1146 1100 1146 995Q1146 898 1112 817.50Q1078 737 1015 679Q956 625 877 597Q798 569 651 569L356 569L356 0L180 0L180 1404M356 720L630 720Q731 720 785 738Q839 756 876 790Q913 824 935.50 878.50Q958 933 958 999Q958 1056 937.50 1105.50Q917 1155 876 1189Q839 1220 783 1236.50Q727 1253 647 1253L356 1253L356 720Z"  horiz-adv-x="1198" vert-adv-y="2048"  />

      
      <glyph glyph-name="unid1" unicode="&#xd1;" d="M1179 976L1013 946Q1003 995 984 1042.50Q965 1090 940 1128Q889 1204 823.50 1238.50Q758 1273 669 1273Q562 1273 485 1226Q408 1179 356 1087Q319 1022 298.50 930Q278 838 278 716Q278 604 295 512Q312 420 344 354Q395 245 478 188Q561 131 669 131Q744 131 799 156.50Q854 182 903 235Q945 282 975.50 343Q1006 404 1019 473L1179 438Q1161 349 1121 268Q1081 187 1021 124Q954 53 874 16.50Q794-20 677-20Q520-20 410.50 41Q301 102 223 221Q158 319 124 451.50Q90 584 90 724Q90 888 132.50 1020Q175 1152 249 1239Q328 1331 434.50 1378Q541 1425 673 1425Q783 1425 866.50 1395.50Q950 1366 1019 1300Q1081 1242 1124 1157.50Q1167 1073 1179 976Z"  horiz-adv-x="1236" vert-adv-y="2048"  />

      
      <glyph glyph-name="uni0421" unicode="&#x0421;" d="M1179 976L1013 946Q1003 995 984 1042.50Q965 1090 940 1128Q889 1204 823.50 1238.50Q758 1273 669 1273Q562 1273 485 1226Q408 1179 356 1087Q319 1022 298.50 930Q278 838 278 716Q278 604 295 512Q312 420 344 354Q395 245 478 188Q561 131 669 131Q744 131 799 156.50Q854 182 903 235Q945 282 975.50 343Q1006 404 1019 473L1179 438Q1161 349 1121 268Q1081 187 1021 124Q954 53 874 16.50Q794-20 677-20Q520-20 410.50 41Q301 102 223 221Q158 319 124 451.50Q90 584 90 724Q90 888 132.50 1020Q175 1152 249 1239Q328 1331 434.50 1378Q541 1425 673 1425Q783 1425 866.50 1395.50Q950 1366 1019 1300Q1081 1242 1124 1157.50Q1167 1073 1179 976Z"  horiz-adv-x="1236" vert-adv-y="2048"  />

      
      <glyph glyph-name="unid2" unicode="&#xd2;" d="M22 1404L993 1404L993 1253L595 1253L595 0L419 0L419 1253L22 1253L22 1404Z"  horiz-adv-x="1015" vert-adv-y="2048"  />

      
      <glyph glyph-name="uni0422" unicode="&#x0422;" d="M22 1404L993 1404L993 1253L595 1253L595 0L419 0L419 1253L22 1253L22 1404Z"  horiz-adv-x="1015" vert-adv-y="2048"  />

      
      <glyph glyph-name="unid3" unicode="&#xd3;" d="M20 1404L204 1404L604 559L606 559L935 1404L1091 1404L673 366Q612 214 579 160.50Q546 107 503 69Q456 27 396 5.50Q336-16 276-16Q251-16 228-11.50Q205-7 182 0L182 149Q201 141 220 138Q239 135 260 135Q305 135 347 149.50Q389 164 419 192Q448 218 474 267Q500 316 514 366L20 1404Z"  horiz-adv-x="1095" vert-adv-y="2048"  />

      
      <glyph glyph-name="uni0423" unicode="&#x0423;" d="M20 1404L204 1404L604 559L606 559L935 1404L1091 1404L673 366Q612 214 579 160.50Q546 107 503 69Q456 27 396 5.50Q336-16 276-16Q251-16 228-11.50Q205-7 182 0L182 149Q201 141 220 138Q239 135 260 135Q305 135 347 149.50Q389 164 419 192Q448 218 474 267Q500 316 514 366L20 1404Z"  horiz-adv-x="1095" vert-adv-y="2048"  />

      
      <glyph glyph-name="unid4" unicode="&#xd4;" d="M714 1443L890 1443L890 1239L913 1239Q1049 1239 1153.50 1206.50Q1258 1174 1329 1118Q1420 1046 1467.50 939Q1515 832 1515 714Q1515 598 1474.50 502.50Q1434 407 1366 344Q1286 271 1165.50 234.50Q1045 198 890 198L890-20L714-20L714 198Q559 198 438.50 234.50Q318 271 239 344Q170 407 130 502.50Q90 598 90 714Q90 832 137.50 939Q185 1046 276 1118Q347 1174 451.50 1206.50Q556 1239 692 1239L714 1239L714 1443M720 346L720 1091L700 1091Q600 1091 527 1070Q454 1049 403 1011Q339 963 304.50 890.50Q270 818 270 710Q270 599 312.50 519.50Q355 440 448 393Q497 368 569 355Q641 342 720 346M884 1091L884 346Q963 342 1035.50 355Q1108 368 1157 393Q1250 440 1292.50 519.50Q1335 599 1335 710Q1335 818 1300.50 890.50Q1266 963 1202 1011Q1151 1049 1078 1070Q1005 1091 905 1091L884 1091Z"  horiz-adv-x="1605" vert-adv-y="2048"  />

      
      <glyph glyph-name="uni0424" unicode="&#x0424;" d="M714 1443L890 1443L890 1239L913 1239Q1049 1239 1153.50 1206.50Q1258 1174 1329 1118Q1420 1046 1467.50 939Q1515 832 1515 714Q1515 598 1474.50 502.50Q1434 407 1366 344Q1286 271 1165.50 234.50Q1045 198 890 198L890-20L714-20L714 198Q559 198 438.50 234.50Q318 271 239 344Q170 407 130 502.50Q90 598 90 714Q90 832 137.50 939Q185 1046 276 1118Q347 1174 451.50 1206.50Q556 1239 692 1239L714 1239L714 1443M720 346L720 1091L700 1091Q600 1091 527 1070Q454 1049 403 1011Q339 963 304.50 890.50Q270 818 270 710Q270 599 312.50 519.50Q355 440 448 393Q497 368 569 355Q641 342 720 346M884 1091L884 346Q963 342 1035.50 355Q1108 368 1157 393Q1250 440 1292.50 519.50Q1335 599 1335 710Q1335 818 1300.50 890.50Q1266 963 1202 1011Q1151 1049 1078 1070Q1005 1091 905 1091L884 1091Z"  horiz-adv-x="1605" vert-adv-y="2048"  />

      
      <glyph glyph-name="unid5" unicode="&#xd5;" d="M63 1404L260 1404L565 884L870 1404L1050 1404L655 755L1099 0L903 0L550 598L186 0L6 0L462 733L63 1404Z"  horiz-adv-x="1105" vert-adv-y="2048"  />

      
      <glyph glyph-name="uni0425" unicode="&#x0425;" d="M63 1404L260 1404L565 884L870 1404L1050 1404L655 755L1099 0L903 0L550 598L186 0L6 0L462 733L63 1404Z"  horiz-adv-x="1105" vert-adv-y="2048"  />

      
      <glyph glyph-name="unid6" unicode="&#xd6;" d="M180 1404L356 1404L356 151L991 151L991 1404L1167 1404L1167 151L1331 151L1331-307L1167-307L1167 0L180 0L180 1404Z"  horiz-adv-x="1372" vert-adv-y="2048"  />

      
      <glyph glyph-name="uni0426" unicode="&#x0426;" d="M180 1404L356 1404L356 151L991 151L991 1404L1167 1404L1167 151L1331 151L1331-307L1167-307L1167 0L180 0L180 1404Z"  horiz-adv-x="1372" vert-adv-y="2048"  />

      
      <glyph glyph-name="unid7" unicode="&#xd7;" d="M122 1404L299 1404L299 987Q299 882 329 835.50Q359 789 417 770Q442 761 476.50 757Q511 753 581 753Q661 753 739.50 759.50Q818 766 909 780L909 1404L1085 1404L1085 0L909 0L909 628Q820 616 738 609Q656 602 600 602Q484 602 401.50 616.50Q319 631 262 665Q191 707 156.50 778.50Q122 850 122 948L122 1404Z"  horiz-adv-x="1265" vert-adv-y="2048"  />

      
      <glyph glyph-name="uni0427" unicode="&#x0427;" d="M122 1404L299 1404L299 987Q299 882 329 835.50Q359 789 417 770Q442 761 476.50 757Q511 753 581 753Q661 753 739.50 759.50Q818 766 909 780L909 1404L1085 1404L1085 0L909 0L909 628Q820 616 738 609Q656 602 600 602Q484 602 401.50 616.50Q319 631 262 665Q191 707 156.50 778.50Q122 850 122 948L122 1404Z"  horiz-adv-x="1265" vert-adv-y="2048"  />

      
      <glyph glyph-name="unid8" unicode="&#xd8;" d="M180 1404L356 1404L356 151L841 151L841 1404L1017 1404L1017 151L1503 151L1503 1404L1679 1404L1679 0L180 0L180 1404Z"  horiz-adv-x="1859" vert-adv-y="2048"  />

      
      <glyph glyph-name="uni0428" unicode="&#x0428;" d="M180 1404L356 1404L356 151L841 151L841 1404L1017 1404L1017 151L1503 151L1503 1404L1679 1404L1679 0L180 0L180 1404Z"  horiz-adv-x="1859" vert-adv-y="2048"  />

      
      <glyph glyph-name="unid9" unicode="&#xd9;" d="M180 1404L356 1404L356 151L841 151L841 1404L1017 1404L1017 151L1503 151L1503 1404L1679 1404L1679 151L1843 151L1843-307L1679-307L1679 0L180 0L180 1404Z"  horiz-adv-x="1884" vert-adv-y="2048"  />

      
      <glyph glyph-name="uni0429" unicode="&#x0429;" d="M180 1404L356 1404L356 151L841 151L841 1404L1017 1404L1017 151L1503 151L1503 1404L1679 1404L1679 151L1843 151L1843-307L1679-307L1679 0L180 0L180 1404Z"  horiz-adv-x="1884" vert-adv-y="2048"  />

      
      <glyph glyph-name="unida" unicode="&#xda;" d="M-20 1404L571 1404L571 800L888 800Q1025 800 1113.50 776.50Q1202 753 1261 702Q1317 653 1351.50 571Q1386 489 1386 397Q1386 316 1357.50 238.50Q1329 161 1275 106Q1220 49 1150 24.50Q1080 0 948 0L395 0L395 1253L-20 1253L-20 1404M571 649L571 151L921 151Q1013 151 1056 165Q1099 179 1130 208Q1161 238 1179.50 285.50Q1198 333 1198 393Q1198 462 1179.50 508.50Q1161 555 1122 587Q1086 617 1030.50 633Q975 649 888 649L571 649Z"  horiz-adv-x="1460" vert-adv-y="2048"  />

      
      <glyph glyph-name="uni042A" unicode="&#x042A;" d="M-20 1404L571 1404L571 800L888 800Q1025 800 1113.50 776.50Q1202 753 1261 702Q1317 653 1351.50 571Q1386 489 1386 397Q1386 316 1357.50 238.50Q1329 161 1275 106Q1220 49 1150 24.50Q1080 0 948 0L395 0L395 1253L-20 1253L-20 1404M571 649L571 151L921 151Q1013 151 1056 165Q1099 179 1130 208Q1161 238 1179.50 285.50Q1198 333 1198 393Q1198 462 1179.50 508.50Q1161 555 1122 587Q1086 617 1030.50 633Q975 649 888 649L571 649Z"  horiz-adv-x="1460" vert-adv-y="2048"  />

      
      <glyph glyph-name="unidb" unicode="&#xdb;" d="M180 1404L356 1404L356 800L673 800Q810 800 898.50 776.50Q987 753 1046 702Q1102 653 1136.50 571Q1171 489 1171 397Q1171 318 1143 240Q1115 162 1060 106Q1006 51 936 25.50Q866 0 751 0L180 0L180 1404M356 649L356 151L729 151Q797 151 840.50 165Q884 179 915 208Q949 241 966 291Q983 341 983 399Q983 461 965 507.50Q947 554 907 587Q872 616 817 632.50Q762 649 704 649L356 649M1323 1404L1499 1404L1499 0L1323 0L1323 1404Z"  horiz-adv-x="1679" vert-adv-y="2048"  />

      
      <glyph glyph-name="uni042B" unicode="&#x042B;" d="M180 1404L356 1404L356 800L673 800Q810 800 898.50 776.50Q987 753 1046 702Q1102 653 1136.50 571Q1171 489 1171 397Q1171 318 1143 240Q1115 162 1060 106Q1006 51 936 25.50Q866 0 751 0L180 0L180 1404M356 649L356 151L729 151Q797 151 840.50 165Q884 179 915 208Q949 241 966 291Q983 341 983 399Q983 461 965 507.50Q947 554 907 587Q872 616 817 632.50Q762 649 704 649L356 649M1323 1404L1499 1404L1499 0L1323 0L1323 1404Z"  horiz-adv-x="1679" vert-adv-y="2048"  />

      
      <glyph glyph-name="unidc" unicode="&#xdc;" d="M180 1404L356 1404L356 800L673 800Q810 800 898.50 776.50Q987 753 1046 702Q1102 653 1136.50 571Q1171 489 1171 397Q1171 318 1143 240Q1115 162 1060 106Q1007 52 937 26Q867 0 772 0L180 0L180 1404M356 649L356 151L706 151Q798 151 841 165Q884 179 915 208Q946 238 964.50 285.50Q983 333 983 393Q983 462 964.50 508.50Q946 555 907 587Q870 618 814.50 633.50Q759 649 692 649L356 649Z"  horiz-adv-x="1245" vert-adv-y="2048"  />

      
      <glyph glyph-name="uni042C" unicode="&#x042C;" d="M180 1404L356 1404L356 800L673 800Q810 800 898.50 776.50Q987 753 1046 702Q1102 653 1136.50 571Q1171 489 1171 397Q1171 318 1143 240Q1115 162 1060 106Q1007 52 937 26Q867 0 772 0L180 0L180 1404M356 649L356 151L706 151Q798 151 841 165Q884 179 915 208Q946 238 964.50 285.50Q983 333 983 393Q983 462 964.50 508.50Q946 555 907 587Q870 618 814.50 633.50Q759 649 692 649L356 649Z"  horiz-adv-x="1245" vert-adv-y="2048"  />

      
      <glyph glyph-name="unidd" unicode="&#xdd;" d="M253 983L81 1013Q107 1095 149 1166.50Q191 1238 239 1286Q309 1354 402.50 1389.50Q496 1425 610 1425Q721 1425 815.50 1390Q910 1355 983 1280Q1064 1195 1109.50 1054.50Q1155 914 1155 731Q1155 579 1124 448Q1093 317 1042 233Q967 109 847 44.50Q727-20 577-20Q468-20 381.50 13Q295 46 229 106Q174 155 132 224.50Q90 294 69 376L247 411Q260 366 281.50 327Q303 288 333 253Q385 193 447.50 162Q510 131 587 131Q690 131 771 184Q852 237 901 331Q932 393 949.50 479.50Q967 566 966 655L448 655L448 806L962 806Q963 891 939.50 981Q916 1071 872 1134Q826 1200 759.50 1236.50Q693 1273 604 1273Q534 1273 473 1248Q412 1223 358 1165Q324 1128 297 1081.50Q270 1035 253 983Z"  horiz-adv-x="1245" vert-adv-y="2048"  />

      
      <glyph glyph-name="uni042D" unicode="&#x042D;" d="M253 983L81 1013Q107 1095 149 1166.50Q191 1238 239 1286Q309 1354 402.50 1389.50Q496 1425 610 1425Q721 1425 815.50 1390Q910 1355 983 1280Q1064 1195 1109.50 1054.50Q1155 914 1155 731Q1155 579 1124 448Q1093 317 1042 233Q967 109 847 44.50Q727-20 577-20Q468-20 381.50 13Q295 46 229 106Q174 155 132 224.50Q90 294 69 376L247 411Q260 366 281.50 327Q303 288 333 253Q385 193 447.50 162Q510 131 587 131Q690 131 771 184Q852 237 901 331Q932 393 949.50 479.50Q967 566 966 655L448 655L448 806L962 806Q963 891 939.50 981Q916 1071 872 1134Q826 1200 759.50 1236.50Q693 1273 604 1273Q534 1273 473 1248Q412 1223 358 1165Q324 1128 297 1081.50Q270 1035 253 983Z"  horiz-adv-x="1245" vert-adv-y="2048"  />

      
      <glyph glyph-name="unide" unicode="&#xde;" d="M356 811L610 811Q623 948 678.50 1075Q734 1202 811 1277Q886 1352 981.50 1388.50Q1077 1425 1187 1425Q1298 1425 1393 1388.50Q1488 1352 1564 1277Q1657 1186 1711 1039Q1765 892 1765 702Q1765 512 1711 365Q1657 218 1564 126Q1488 52 1393 16Q1298-20 1187-20Q1077-20 981.50 16Q886 52 811 126Q723 213 666.50 358Q610 503 610 659L356 659L356 0L180 0L180 1404L356 1404L356 811M1187 1273Q1106 1273 1036.50 1237.50Q967 1202 915 1134Q860 1063 829 952.50Q798 842 798 702Q798 562 829 451.50Q860 341 915 270Q967 202 1036.50 166.50Q1106 131 1187 131Q1268 131 1337.50 166.50Q1407 202 1460 270Q1515 341 1545.50 451.50Q1576 562 1576 702Q1576 842 1545.50 952.50Q1515 1063 1460 1134Q1407 1202 1337.50 1237.50Q1268 1273 1187 1273Z"  horiz-adv-x="1855" vert-adv-y="2048"  />

      
      <glyph glyph-name="uni042E" unicode="&#x042E;" d="M356 811L610 811Q623 948 678.50 1075Q734 1202 811 1277Q886 1352 981.50 1388.50Q1077 1425 1187 1425Q1298 1425 1393 1388.50Q1488 1352 1564 1277Q1657 1186 1711 1039Q1765 892 1765 702Q1765 512 1711 365Q1657 218 1564 126Q1488 52 1393 16Q1298-20 1187-20Q1077-20 981.50 16Q886 52 811 126Q723 213 666.50 358Q610 503 610 659L356 659L356 0L180 0L180 1404L356 1404L356 811M1187 1273Q1106 1273 1036.50 1237.50Q967 1202 915 1134Q860 1063 829 952.50Q798 842 798 702Q798 562 829 451.50Q860 341 915 270Q967 202 1036.50 166.50Q1106 131 1187 131Q1268 131 1337.50 166.50Q1407 202 1460 270Q1515 341 1545.50 451.50Q1576 562 1576 702Q1576 842 1545.50 952.50Q1515 1063 1460 1134Q1407 1202 1337.50 1237.50Q1268 1273 1187 1273Z"  horiz-adv-x="1855" vert-adv-y="2048"  />

      
      <glyph glyph-name="unidf" unicode="&#xdf;" d="M1103 1404L1103 0L927 0L927 608L634 608L280 0L71 0L452 618Q390 624 329 649Q268 674 223 716Q172 763 142 834.50Q112 906 112 997Q112 1085 144.50 1161.50Q177 1238 235 1292Q300 1352 384.50 1378Q469 1404 626 1404L1103 1404M927 1253L612 1253Q532 1253 481 1241.50Q430 1230 395 1206Q349 1175 325 1124.50Q301 1074 301 1001Q301 941 321 894.50Q341 848 378 817Q414 787 463 773Q512 759 600 759L927 759L927 1253Z"  horiz-adv-x="1284" vert-adv-y="2048"  />

      
      <glyph glyph-name="uni042F" unicode="&#x042F;" d="M1103 1404L1103 0L927 0L927 608L634 608L280 0L71 0L452 618Q390 624 329 649Q268 674 223 716Q172 763 142 834.50Q112 906 112 997Q112 1085 144.50 1161.50Q177 1238 235 1292Q300 1352 384.50 1378Q469 1404 626 1404L1103 1404M927 1253L612 1253Q532 1253 481 1241.50Q430 1230 395 1206Q349 1175 325 1124.50Q301 1074 301 1001Q301 941 321 894.50Q341 848 378 817Q414 787 463 773Q512 759 600 759L927 759L927 1253Z"  horiz-adv-x="1284" vert-adv-y="2048"  />

      
      <glyph glyph-name="uni2020" unicode="&#x2020;" d="M612 1380L731 1404L643 964L1077 1040L1058 948L1077 856L643 907Q664 884 686 860Q708 836 731 813Q695 689 669 347Q643 5 643-256L643-350L581-350L581-256Q581 5 555 347Q529 689 493 813Q515 836 537.50 860Q560 884 581 907L147 856L165 948L147 1040L581 964L493 1404L612 1380Z"  horiz-adv-x="1224" vert-adv-y="2048"  />

      
      <glyph glyph-name="unib0" unicode="&#xb0;" d="M102 1118Q102 1245 192 1335Q282 1425 409 1425Q537 1425 626.50 1335Q716 1245 716 1118Q716 990 626.50 900.50Q537 811 409 811Q282 811 192 900.50Q102 990 102 1118M225 1118Q225 1041 279 987Q333 933 409 933Q486 933 539.50 987Q593 1041 593 1118Q593 1194 539.50 1248Q486 1302 409 1302Q333 1302 279 1248Q225 1194 225 1118Z"  horiz-adv-x="817" vert-adv-y="2048"  />

      
      <glyph glyph-name="unia5" unicode="&#xa5;" d="M180 1404L858 1404L858 1593L1013 1593L1013 1249L356 1249L356 0L180 0L180 1404Z"  horiz-adv-x="1034" vert-adv-y="2048"  />

      
      <glyph glyph-name="uni0490" unicode="&#x0490;" d="M180 1404L858 1404L858 1593L1013 1593L1013 1249L356 1249L356 0L180 0L180 1404Z"  horiz-adv-x="1034" vert-adv-y="2048"  />

      
      <glyph glyph-name="unia7" unicode="&#xa7;" d="M1044 1150L888 1134Q854 1209 782.50 1249.50Q711 1290 618 1290Q524 1290 459.50 1243Q395 1196 395 1130Q395 1056 447.50 1006Q500 956 671 901L798 860Q953 810 1015 745Q1077 680 1077 577Q1077 493 1034 418.50Q991 344 911 282Q1006 244 1059 164Q1112 84 1112-12Q1112-156 980.50-270.50Q849-385 628-385Q455-385 326.50-309Q198-233 141-79L321-53Q362-147 446.50-198Q531-249 634-249Q761-249 846-187Q931-125 931-34Q931 43 877 92Q823 141 692 176L528 219Q316 274 249 347.50Q182 421 182 526Q182 622 236 703Q290 784 382 833Q302 873 258.50 945Q215 1017 215 1107Q215 1250 319.50 1337.50Q424 1425 608 1425Q767 1425 881.50 1357Q996 1289 1044 1150M696 724L516 788Q441 753 397.50 698.50Q354 644 354 581Q354 512 397 468Q440 424 602 372L755 323Q821 351 863 410.50Q905 470 905 540Q905 599 866.50 638.50Q828 678 696 724Z"  horiz-adv-x="1253" vert-adv-y="2048"  />

      
      <glyph glyph-name="uni2022" unicode="&#x2022;" d="M614 1050Q757 1050 859.50 947.50Q962 845 962 702Q962 559 859.50 456.50Q757 354 614 354Q470 354 368 456.50Q266 559 266 702Q266 845 368 947.50Q470 1050 614 1050Z"  horiz-adv-x="1228" vert-adv-y="2048"  />

      
      <glyph glyph-name="uniF000" unicode="&#xF000;" d="M614 1050Q757 1050 859.50 947.50Q962 845 962 702Q962 559 859.50 456.50Q757 354 614 354Q470 354 368 456.50Q266 559 266 702Q266 845 368 947.50Q470 1050 614 1050Z"  horiz-adv-x="1228" vert-adv-y="2048"  />

      
      <glyph glyph-name="unib6" unicode="&#xb6;" d="M1073 1404L1073 1271L954 1271L954-385L821-385L821 1271L655 1271L655-385L522-385L522 440Q446 442 376.50 470Q307 498 251 548Q181 612 141.50 706.50Q102 801 102 917Q102 1026 143.50 1121Q185 1216 253 1282Q321 1347 402 1375.50Q483 1404 634 1404L1073 1404Z"  horiz-adv-x="1185" vert-adv-y="2048"  />

      
      <glyph glyph-name="unib2" unicode="&#xb2;" d="M356 1404L356 0L180 0L180 1404L356 1404Z"  horiz-adv-x="536" vert-adv-y="2048"  />

      
      <glyph glyph-name="uni0406" unicode="&#x0406;" d="M356 1404L356 0L180 0L180 1404L356 1404Z"  horiz-adv-x="536" vert-adv-y="2048"  />

      
      <glyph glyph-name="uniae" unicode="&#xae;" d="M468 1132L831 1132Q887 1132 936 1119Q985 1106 1024 1079Q1073 1044 1098.50 992.50Q1124 941 1124 888Q1124 848 1106.50 801.50Q1089 755 1058 724Q1041 708 1015.50 693Q990 678 960 667L1136 272L997 272L831 638L595 638L595 272L468 272L468 1132M595 739L817 739Q863 739 894 750Q925 761 950 786Q969 806 979 831Q989 856 989 890Q989 922 978.50 946.50Q968 971 944 991Q922 1008 894 1017Q866 1026 831 1026L595 1026L595 739M47 702Q47 1010 263.50 1226.50Q480 1443 788 1443Q1096 1443 1312.50 1226.50Q1529 1010 1529 702Q1529 394 1312.50 178Q1096-38 788-38Q480-38 263.50 178Q47 394 47 702M1423 702Q1423 963 1236 1150Q1049 1337 788 1337Q527 1337 340 1150Q153 963 153 702Q153 441 340 254Q527 67 788 67Q1049 67 1236 254Q1423 441 1423 702Z"  horiz-adv-x="1576" vert-adv-y="2048"  />

      
      <glyph glyph-name="unia9" unicode="&#xa9;" d="M995 573L1118 546Q1105 493 1080.50 443Q1056 393 1021 356Q976 306 917 281Q858 256 774 256Q695 256 633.50 281.50Q572 307 524 358Q464 420 432.50 516Q401 612 401 722Q401 824 431.50 906.50Q462 989 520 1046Q572 1098 639 1123Q706 1148 782 1148Q864 1148 924.50 1121.50Q985 1095 1030 1046Q1062 1010 1083 966.50Q1104 923 1118 866L991 841Q971 900 961 921Q951 942 937 962Q908 1006 873 1024Q838 1042 780 1042Q726 1042 688.50 1025.50Q651 1009 622 974Q585 931 564.50 854Q544 777 544 696Q544 610 565.50 543Q587 476 622 434Q651 399 689 380.50Q727 362 774 362Q822 362 865.50 382Q909 402 935 436Q947 450 956 467Q965 484 995 573M47 702Q47 1010 263.50 1226.50Q480 1443 788 1443Q1096 1443 1312.50 1226.50Q1529 1010 1529 702Q1529 394 1312.50 178Q1096-38 788-38Q480-38 263.50 178Q47 394 47 702M1423 702Q1423 963 1236 1150Q1049 1337 788 1337Q527 1337 340 1150Q153 963 153 702Q153 441 340 254Q527 67 788 67Q1049 67 1236 254Q1423 441 1423 702Z"  horiz-adv-x="1576" vert-adv-y="2048"  />

      
      <glyph glyph-name="uni2122" unicode="&#x2122;" d="M393 587L266 587L266 1302L20 1302L20 1404L638 1404L638 1302L393 1302L393 587M1589 587L1462 587L1462 1236L1202 587L1112 587L849 1236L849 587L737 587L737 1404L917 1404L1167 784L1411 1404L1589 1404L1589 587Z"  horiz-adv-x="1685" vert-adv-y="2048"  />

      
      <glyph glyph-name="uni80" unicode="&#x80;" d="M22 1404L997 1404L997 1253L577 1253L577 772Q651 801 735 819Q819 837 894 837Q1000 837 1085 805Q1170 773 1236 700Q1295 635 1321 563Q1347 491 1347 401Q1347 301 1326 235.50Q1305 170 1261 116Q1205 48 1124 14Q1043-20 921-20Q868-20 818.50-12.50Q769-5 720 8L759 151Q788 140 818 135.50Q848 131 901 131Q981 131 1032 151.50Q1083 172 1116 210Q1144 244 1157.50 290Q1171 336 1171 389Q1171 451 1156 498.50Q1141 546 1112 583Q1069 636 1005.50 661Q942 686 854 686Q777 686 709 670.50Q641 655 577 624L577 0L401 0L401 1253L22 1253L22 1404Z"  horiz-adv-x="1429" vert-adv-y="2048"  />

      
      <glyph glyph-name="uni0402" unicode="&#x0402;" d="M22 1404L997 1404L997 1253L577 1253L577 772Q651 801 735 819Q819 837 894 837Q1000 837 1085 805Q1170 773 1236 700Q1295 635 1321 563Q1347 491 1347 401Q1347 301 1326 235.50Q1305 170 1261 116Q1205 48 1124 14Q1043-20 921-20Q868-20 818.50-12.50Q769-5 720 8L759 151Q788 140 818 135.50Q848 131 901 131Q981 131 1032 151.50Q1083 172 1116 210Q1144 244 1157.50 290Q1171 336 1171 389Q1171 451 1156 498.50Q1141 546 1112 583Q1069 636 1005.50 661Q942 686 854 686Q777 686 709 670.50Q641 655 577 624L577 0L401 0L401 1253L22 1253L22 1404Z"  horiz-adv-x="1429" vert-adv-y="2048"  />

      
      <glyph glyph-name="uni90" unicode="&#x90;" d="M169 1144L16 1144L16 1261L169 1261L169 1404L325 1404L325 1261L710 1261L710 1144L325 1144L325 813Q372 912 458.50 971Q545 1030 663 1030Q743 1030 806 1004.50Q869 979 909 933Q948 889 968.50 824Q989 759 989 651L989 65Q989-43 972-114Q955-185 923-233Q884-292 821.50-325Q759-358 673-358Q628-358 587.50-353.50Q547-349 505-339L505-206Q538-214 576.50-218.50Q615-223 647-223Q709-223 746-202Q783-181 804-133Q819-100 826-50Q833 0 833 69L833 612Q833 715 822 757Q811 799 790 827Q766 859 726.50 876.50Q687 894 634 894Q588 894 549.50 882Q511 870 477 847Q402 797 363.50 712.50Q325 628 325 499L325 0L169 0L169 1144Z"  horiz-adv-x="1155" vert-adv-y="2048"  />

      
      <glyph glyph-name="uni0452" unicode="&#x0452;" d="M169 1144L16 1144L16 1261L169 1261L169 1404L325 1404L325 1261L710 1261L710 1144L325 1144L325 813Q372 912 458.50 971Q545 1030 663 1030Q743 1030 806 1004.50Q869 979 909 933Q948 889 968.50 824Q989 759 989 651L989 65Q989-43 972-114Q955-185 923-233Q884-292 821.50-325Q759-358 673-358Q628-358 587.50-353.50Q547-349 505-339L505-206Q538-214 576.50-218.50Q615-223 647-223Q709-223 746-202Q783-181 804-133Q819-100 826-50Q833 0 833 69L833 612Q833 715 822 757Q811 799 790 827Q766 859 726.50 876.50Q687 894 634 894Q588 894 549.50 882Q511 870 477 847Q402 797 363.50 712.50Q325 628 325 499L325 0L169 0L169 1144Z"  horiz-adv-x="1155" vert-adv-y="2048"  />

      
      <glyph glyph-name="uni81" unicode="&#x81;" d="M180 1404L1015 1404L1015 1253L356 1253L356 0L180 0L180 1404M734 1841L804 1708L364 1515L323 1597L734 1841Z"  horiz-adv-x="1015" vert-adv-y="2048"  />

      
      <glyph glyph-name="uni0403" unicode="&#x0403;" d="M180 1404L1015 1404L1015 1253L356 1253L356 0L180 0L180 1404M734 1841L804 1708L364 1515L323 1597L734 1841Z"  horiz-adv-x="1015" vert-adv-y="2048"  />

      
      <glyph glyph-name="unie3" unicode="&#xe3;" d="M165 1044L796 1044L796 917L321 917L321 0L165 0L165 1044Z"  horiz-adv-x="819" vert-adv-y="2048"  />

      
      <glyph glyph-name="uni0433" unicode="&#x0433;" d="M165 1044L796 1044L796 917L321 917L321 0L165 0L165 1044Z"  horiz-adv-x="819" vert-adv-y="2048"  />

      
      <glyph glyph-name="uni0192" unicode="&#x0192;" d="M165 1044L796 1044L796 917L321 917L321 0L165 0L165 1044M660 1511L730 1378L290 1185L249 1267L660 1511Z"  horiz-adv-x="818" vert-adv-y="2048"  />

      
      <glyph glyph-name="uni0453" unicode="&#x0453;" d="M165 1044L796 1044L796 917L321 917L321 0L165 0L165 1044M660 1511L730 1378L290 1185L249 1267L660 1511Z"  horiz-adv-x="818" vert-adv-y="2048"  />

      
      <glyph glyph-name="unib1" unicode="&#xb1;" d="M591 1294L724 1294L724 831L1187 831L1187 698L724 698L724 235L591 235L591 698L129 698L129 831L591 831L591 1294M129 0L129 133L1187 133L1187 0L129 0Z"  horiz-adv-x="1316" vert-adv-y="2048"  />

      
      <glyph glyph-name="unib5" unicode="&#xb5;" d="M931 1044L931 0L790 0L790 206L788 208Q742 98 651.50 38.50Q561-21 466-20Q424-19 373.50-7Q323 5 278 28L278-339L122-339L122 1044L278 1044L278 407Q278 268 326 193Q374 118 481 118Q613 118 694.50 224Q776 330 776 487L776 1044L931 1044Z"  horiz-adv-x="1054" vert-adv-y="2048"  />

      
      <glyph glyph-name="unib4" unicode="&#xb4;" d="M165 1044L675 1044L675 1173L796 1173L796 917L321 917L321 0L165 0L165 1044Z"  horiz-adv-x="817" vert-adv-y="2048"  />

      
      <glyph glyph-name="uni0491" unicode="&#x0491;" d="M165 1044L675 1044L675 1173L796 1173L796 917L321 917L321 0L165 0L165 1044Z"  horiz-adv-x="817" vert-adv-y="2048"  />

      
      <glyph glyph-name="unia3" unicode="&#xa3;" d="M626 1404L626 458Q626 319 605 247Q584 175 540 120Q483 49 399.50 14.50Q316-20 204-20Q150-20 99-12.50Q48-5 0 8L0 159Q41 145 86.50 138Q132 131 180 131Q239 131 290.50 146.50Q342 162 376 194Q417 231 433.50 281.50Q450 332 450 434L450 1404L626 1404Z"  horiz-adv-x="792" vert-adv-y="2048"  />

      
      <glyph glyph-name="uni0408" unicode="&#x0408;" d="M626 1404L626 458Q626 319 605 247Q584 175 540 120Q483 49 399.50 14.50Q316-20 204-20Q150-20 99-12.50Q48-5 0 8L0 159Q41 145 86.50 138Q132 131 180 131Q239 131 290.50 146.50Q342 162 376 194Q417 231 433.50 281.50Q450 332 450 434L450 1404L626 1404Z"  horiz-adv-x="792" vert-adv-y="2048"  />

      
      <glyph glyph-name="uniaa" unicode="&#xaa;" d="M1163 1013L991 983Q974 1035 947.50 1081.50Q921 1128 886 1165Q832 1223 771 1248Q710 1273 641 1273Q551 1273 485 1236.50Q419 1200 372 1134Q328 1071 305 981Q282 891 282 806L851 806L851 655L278 655Q277 566 294.50 479.50Q312 393 344 331Q392 237 473 184Q554 131 657 131Q734 131 796.50 162Q859 193 911 253Q941 288 962.50 327Q984 366 997 411L1175 376Q1154 294 1112 224.50Q1070 155 1015 106Q949 46 863 13Q777-20 667-20Q518-20 398 44.50Q278 109 202 233Q151 317 120.50 448Q90 579 90 731Q90 914 135 1054.50Q180 1195 262 1280Q334 1355 428.50 1390Q523 1425 634 1425Q748 1425 841.50 1389.50Q935 1354 1005 1286Q1054 1238 1095.50 1166.50Q1137 1095 1163 1013Z"  horiz-adv-x="1245" vert-adv-y="2048"  />

      
      <glyph glyph-name="uni0404" unicode="&#x0404;" d="M1163 1013L991 983Q974 1035 947.50 1081.50Q921 1128 886 1165Q832 1223 771 1248Q710 1273 641 1273Q551 1273 485 1236.50Q419 1200 372 1134Q328 1071 305 981Q282 891 282 806L851 806L851 655L278 655Q277 566 294.50 479.50Q312 393 344 331Q392 237 473 184Q554 131 657 131Q734 131 796.50 162Q859 193 911 253Q941 288 962.50 327Q984 366 997 411L1175 376Q1154 294 1112 224.50Q1070 155 1015 106Q949 46 863 13Q777-20 667-20Q518-20 398 44.50Q278 109 202 233Q151 317 120.50 448Q90 579 90 731Q90 914 135 1054.50Q180 1195 262 1280Q334 1355 428.50 1390Q523 1425 634 1425Q748 1425 841.50 1389.50Q935 1354 1005 1286Q1054 1238 1095.50 1166.50Q1137 1095 1163 1013Z"  horiz-adv-x="1245" vert-adv-y="2048"  />

      
      <glyph glyph-name="uniba" unicode="&#xba;" d="M944 763L790 737Q780 768 763.50 795Q747 822 727 843Q686 886 631.50 907.50Q577 929 520 929Q446 929 395 899Q344 869 311 811Q287 769 274 716Q261 663 262 610L641 610L641 483L262 483Q260 408 276.50 340Q293 272 321 227Q357 169 407.50 141.50Q458 114 532 114Q591 114 634 130Q677 146 714 178Q745 204 766.50 235.50Q788 267 798 307L960 280Q938 202 890.50 140Q843 78 782 40Q728 8 667.50-6Q607-20 530-20Q410-20 332 17Q254 54 192 141Q139 215 110 319.50Q81 424 81 548Q81 663 111 763Q141 863 198 931Q257 1002 331 1033Q405 1064 507 1064Q602 1064 671.50 1043Q741 1022 798 978Q852 938 889 883.50Q926 829 944 763Z"  horiz-adv-x="1032" vert-adv-y="2048"  />

      
      <glyph glyph-name="uni0454" unicode="&#x0454;" d="M944 763L790 737Q780 768 763.50 795Q747 822 727 843Q686 886 631.50 907.50Q577 929 520 929Q446 929 395 899Q344 869 311 811Q287 769 274 716Q261 663 262 610L641 610L641 483L262 483Q260 408 276.50 340Q293 272 321 227Q357 169 407.50 141.50Q458 114 532 114Q591 114 634 130Q677 146 714 178Q745 204 766.50 235.50Q788 267 798 307L960 280Q938 202 890.50 140Q843 78 782 40Q728 8 667.50-6Q607-20 530-20Q410-20 332 17Q254 54 192 141Q139 215 110 319.50Q81 424 81 548Q81 663 111 763Q141 863 198 931Q257 1002 331 1033Q405 1064 507 1064Q602 1064 671.50 1043Q741 1022 798 978Q852 938 889 883.50Q926 829 944 763Z"  horiz-adv-x="1032" vert-adv-y="2048"  />

      
      <glyph glyph-name="uniaf" unicode="&#xaf;" d="M368 1404L368 0L192 0L192 1404L368 1404M509 1712L509 1517L346 1517L346 1712L509 1712M215 1712L215 1517L51 1517L51 1712L215 1712Z"  horiz-adv-x="561" vert-adv-y="2048"  />

      
      <glyph glyph-name="uni0407" unicode="&#x0407;" d="M368 1404L368 0L192 0L192 1404L368 1404M509 1712L509 1517L346 1517L346 1712L509 1712M215 1712L215 1517L51 1517L51 1712L215 1712Z"  horiz-adv-x="561" vert-adv-y="2048"  />

      
      <glyph glyph-name="unibf" unicode="&#xbf;" d="M358 1044L358 0L202 0L202 1044L358 1044M509 1441L509 1247L346 1247L346 1441L509 1441M215 1441L215 1247L51 1247L51 1441L215 1441Z"  horiz-adv-x="561" vert-adv-y="2048"  />

      
      <glyph glyph-name="uni0457" unicode="&#x0457;" d="M358 1044L358 0L202 0L202 1044L358 1044M509 1441L509 1247L346 1247L346 1441L509 1441M215 1441L215 1247L51 1247L51 1441L215 1441Z"  horiz-adv-x="561" vert-adv-y="2048"  />

      
      <glyph glyph-name="uni0160" unicode="&#x0160;" d="M317 1404L1134 1404L1134 800L1443 800Q1690 800 1815.50 703Q1941 606 1941 397Q1941 209 1829.50 104.50Q1718 0 1503 0L958 0L958 1253L479 1253Q478 1005 464.50 821Q451 637 423 471Q382 215 294 104.50Q206-6 67-6Q51-6 35-4.50Q19-3 4 0L4 161L36 157Q175 140 246 369.50Q317 599 317 1341L317 1404M1134 649L1134 151L1488 151Q1634 151 1699.50 207.50Q1765 264 1765 393Q1765 530 1685.50 589.50Q1606 649 1456 649L1134 649Z"  horiz-adv-x="2015" vert-adv-y="2048"  />

      
      <glyph glyph-name="uni0409" unicode="&#x0409;" d="M317 1404L1134 1404L1134 800L1443 800Q1690 800 1815.50 703Q1941 606 1941 397Q1941 209 1829.50 104.50Q1718 0 1503 0L958 0L958 1253L479 1253Q478 1005 464.50 821Q451 637 423 471Q382 215 294 104.50Q206-6 67-6Q51-6 35-4.50Q19-3 4 0L4 161L36 157Q175 140 246 369.50Q317 599 317 1341L317 1404M1134 649L1134 151L1488 151Q1634 151 1699.50 207.50Q1765 264 1765 393Q1765 530 1685.50 589.50Q1606 649 1456 649L1134 649Z"  horiz-adv-x="2015" vert-adv-y="2048"  />

      
      <glyph glyph-name="uni0161" unicode="&#x0161;" d="M249 1044L878 1044L878 632L1169 632Q1265 632 1325.50 612Q1386 592 1427 552Q1465 516 1488 458Q1511 400 1511 323Q1511 245 1486 181.50Q1461 118 1406 71Q1366 36 1316 18Q1266 0 1196 0L722 0L722 917L387 917Q374 576 360 434.50Q346 293 321 219Q284 109 207 54.50Q130 0 18 0Q16 0 14 0Q12 0 10 0L10 135Q14 134 18 134Q22 134 26 135Q111 140 159.50 207Q208 274 221 382Q230 463 237 598.50Q244 734 247 927L249 1044M878 505L878 126L1122 126Q1187 126 1219 137Q1251 148 1275 169Q1305 195 1322 234.50Q1339 274 1339 325Q1339 376 1320.50 413.50Q1302 451 1269 473Q1245 488 1207.50 496.50Q1170 505 1128 505L878 505Z"  horiz-adv-x="1593" vert-adv-y="2048"  />

      
      <glyph glyph-name="uni0459" unicode="&#x0459;" d="M249 1044L878 1044L878 632L1169 632Q1265 632 1325.50 612Q1386 592 1427 552Q1465 516 1488 458Q1511 400 1511 323Q1511 245 1486 181.50Q1461 118 1406 71Q1366 36 1316 18Q1266 0 1196 0L722 0L722 917L387 917Q374 576 360 434.50Q346 293 321 219Q284 109 207 54.50Q130 0 18 0Q16 0 14 0Q12 0 10 0L10 135Q14 134 18 134Q22 134 26 135Q111 140 159.50 207Q208 274 221 382Q230 463 237 598.50Q244 734 247 927L249 1044M878 505L878 126L1122 126Q1187 126 1219 137Q1251 148 1275 169Q1305 195 1322 234.50Q1339 274 1339 325Q1339 376 1320.50 413.50Q1302 451 1269 473Q1245 488 1207.50 496.50Q1170 505 1128 505L878 505Z"  horiz-adv-x="1593" vert-adv-y="2048"  />

      
      <glyph glyph-name="uni0152" unicode="&#x0152;" d="M180 1404L356 1404L356 815L1011 815L1011 1404L1187 1404L1187 800L1497 800Q1744 800 1869 703Q1994 606 1994 397Q1994 209 1883 104.50Q1772 0 1556 0L1011 0L1011 671L356 671L356 0L180 0L180 1404M1187 649L1187 151L1542 151Q1688 151 1753 207.50Q1818 264 1818 393Q1818 530 1738.50 589.50Q1659 649 1509 649L1187 649Z"  horiz-adv-x="2068" vert-adv-y="2048"  />

      
      <glyph glyph-name="uni040A" unicode="&#x040A;" d="M180 1404L356 1404L356 815L1011 815L1011 1404L1187 1404L1187 800L1497 800Q1744 800 1869 703Q1994 606 1994 397Q1994 209 1883 104.50Q1772 0 1556 0L1011 0L1011 671L356 671L356 0L180 0L180 1404M1187 649L1187 151L1542 151Q1688 151 1753 207.50Q1818 264 1818 393Q1818 530 1738.50 589.50Q1659 649 1509 649L1187 649Z"  horiz-adv-x="2068" vert-adv-y="2048"  />

      
      <glyph glyph-name="uni0153" unicode="&#x0153;" d="M804 606L804 1044L960 1044L960 632L1251 632Q1347 632 1407.50 612Q1468 592 1509 552Q1547 516 1570 458Q1593 400 1593 323Q1593 245 1568 181.50Q1543 118 1488 71Q1448 36 1398 18Q1348 0 1277 0L804 0L804 479L321 479L321 0L165 0L165 1044L321 1044L321 606L804 606M960 505L960 126L1204 126Q1269 126 1301 137Q1333 148 1357 169Q1387 195 1404 234.50Q1421 274 1421 325Q1421 376 1402.50 413.50Q1384 451 1351 473Q1327 488 1289.50 496.50Q1252 505 1210 505L960 505Z"  horiz-adv-x="1675" vert-adv-y="2048"  />

      
      <glyph glyph-name="uni045A" unicode="&#x045A;" d="M804 606L804 1044L960 1044L960 632L1251 632Q1347 632 1407.50 612Q1468 592 1509 552Q1547 516 1570 458Q1593 400 1593 323Q1593 245 1568 181.50Q1543 118 1488 71Q1448 36 1398 18Q1348 0 1277 0L804 0L804 479L321 479L321 0L165 0L165 1044L321 1044L321 606L804 606M960 505L960 126L1204 126Q1269 126 1301 137Q1333 148 1357 169Q1387 195 1404 234.50Q1421 274 1421 325Q1421 376 1402.50 413.50Q1384 451 1351 473Q1327 488 1289.50 496.50Q1252 505 1210 505L960 505Z"  horiz-adv-x="1675" vert-adv-y="2048"  />

      
      <glyph glyph-name="unibc" unicode="&#xbc;" d="M319 1044L319-10Q319-139 289-211Q259-283 196-319Q165-337 118-347.50Q71-358 14-358Q-21-358-58.50-353.50Q-96-349-131-339L-131-217Q-98-224-70-227.50Q-42-231-12-231Q41-231 77-216Q113-201 135-169Q149-148 156-112.50Q163-77 163-18L163 1044L319 1044M327 1404L327 1224L155 1224L155 1404L327 1404Z"  horiz-adv-x="485" vert-adv-y="2048"  />

      
      <glyph glyph-name="uni0458" unicode="&#x0458;" d="M319 1044L319-10Q319-139 289-211Q259-283 196-319Q165-337 118-347.50Q71-358 14-358Q-21-358-58.50-353.50Q-96-349-131-339L-131-217Q-98-224-70-227.50Q-42-231-12-231Q41-231 77-216Q113-201 135-169Q149-148 156-112.50Q163-77 163-18L163 1044L319 1044M327 1404L327 1224L155 1224L155 1404L327 1404Z"  horiz-adv-x="485" vert-adv-y="2048"  />

      
      <glyph glyph-name="unibd" unicode="&#xbd;" d="M1112 1081L952 1038Q937 1085 909.50 1127.50Q882 1170 845 1200Q802 1234 740 1253.50Q678 1273 598 1273Q540 1273 493 1262Q446 1251 409 1228Q360 1197 335.50 1149Q311 1101 311 1046Q311 968 371 919.50Q431 871 563 839L772 788Q875 763 932 737Q989 711 1030 677Q1090 628 1124.50 557Q1159 486 1159 401Q1159 303 1116 220Q1073 137 1003 81Q938 30 854 5Q770-20 651-20Q520-20 436.50 2Q353 24 280 73Q203 125 145.50 203.50Q88 282 61 378L219 413Q236 354 271.50 302.50Q307 251 358 212Q410 173 477 152Q544 131 634 131Q792 131 881 194Q970 257 970 372Q970 464 909.50 522Q849 580 737 608L503 665Q311 712 223 806.50Q135 901 135 1038Q135 1227 267 1326Q399 1425 612 1425Q822 1425 947.50 1333.50Q1073 1242 1112 1081Z"  horiz-adv-x="1230" vert-adv-y="2048"  />

      
      <glyph glyph-name="uni0405" unicode="&#x0405;" d="M1112 1081L952 1038Q937 1085 909.50 1127.50Q882 1170 845 1200Q802 1234 740 1253.50Q678 1273 598 1273Q540 1273 493 1262Q446 1251 409 1228Q360 1197 335.50 1149Q311 1101 311 1046Q311 968 371 919.50Q431 871 563 839L772 788Q875 763 932 737Q989 711 1030 677Q1090 628 1124.50 557Q1159 486 1159 401Q1159 303 1116 220Q1073 137 1003 81Q938 30 854 5Q770-20 651-20Q520-20 436.50 2Q353 24 280 73Q203 125 145.50 203.50Q88 282 61 378L219 413Q236 354 271.50 302.50Q307 251 358 212Q410 173 477 152Q544 131 634 131Q792 131 881 194Q970 257 970 372Q970 464 909.50 522Q849 580 737 608L503 665Q311 712 223 806.50Q135 901 135 1038Q135 1227 267 1326Q399 1425 612 1425Q822 1425 947.50 1333.50Q1073 1242 1112 1081Z"  horiz-adv-x="1230" vert-adv-y="2048"  />

      
      <glyph glyph-name="uniac" unicode="&#xac;" d="M1144 790L1144 237L1011 237L1011 657L83 657L83 790L1144 790Z"  horiz-adv-x="1228" vert-adv-y="2048"  />

      
      <glyph glyph-name="uniab" unicode="&#xab;" d="M245 526L354 227L264 227L86 526L264 817L354 817L245 526M514 526L622 227L532 227L354 526L532 817L622 817L514 526Z"  horiz-adv-x="722" vert-adv-y="2048"  />

      
      <glyph glyph-name="unibb" unicode="&#xbb;" d="M208 526L100 817L190 817L368 526L190 227L100 227L208 526M477 526L368 817L458 817L636 526L458 227L368 227L477 526Z"  horiz-adv-x="722" vert-adv-y="2048"  />

      
      <glyph glyph-name="uni2026" unicode="&#x2026;" d="M376 231L376 0L151 0L151 231L376 231M1058 231L1058 0L833 0L833 231L1058 231M1740 231L1740 0L1515 0L1515 231L1740 231Z"  horiz-adv-x="1892" vert-adv-y="2048"  />

      
      <glyph glyph-name="uni8e" unicode="&#x8e;" d="M22 1404L997 1404L997 1253L577 1253L577 772Q657 799 740.50 814Q824 829 894 829Q1012 829 1093 802Q1174 775 1228 722Q1284 669 1312.50 595Q1341 521 1341 432L1341 0L1165 0L1165 389Q1165 541 1089.50 609Q1014 677 862 677Q791 677 719 664Q647 651 577 624L577 0L401 0L401 1253L22 1253L22 1404Z"  horiz-adv-x="1484" vert-adv-y="2048"  />

      
      <glyph glyph-name="uni040B" unicode="&#x040B;" d="M22 1404L997 1404L997 1253L577 1253L577 772Q657 799 740.50 814Q824 829 894 829Q1012 829 1093 802Q1174 775 1228 722Q1284 669 1312.50 595Q1341 521 1341 432L1341 0L1165 0L1165 389Q1165 541 1089.50 609Q1014 677 862 677Q791 677 719 664Q647 651 577 624L577 0L401 0L401 1253L22 1253L22 1404Z"  horiz-adv-x="1484" vert-adv-y="2048"  />

      
      <glyph glyph-name="uni9e" unicode="&#x9e;" d="M325 1404L325 1261L710 1261L710 1144L325 1144L325 813Q372 912 458.50 971Q545 1030 663 1030Q743 1030 806 1004.50Q869 979 909 933Q948 889 968.50 824Q989 759 989 651L989 0L833 0L833 612Q833 715 822 757Q811 799 790 827Q766 859 726.50 876.50Q687 894 634 894Q588 894 549.50 882Q511 870 477 847Q402 797 363.50 712.50Q325 628 325 499L325 0L169 0L169 1144L16 1144L16 1261L169 1261L169 1404L325 1404Z"  horiz-adv-x="1155" vert-adv-y="2048"  />

      
      <glyph glyph-name="uni045B" unicode="&#x045B;" d="M325 1404L325 1261L710 1261L710 1144L325 1144L325 813Q372 912 458.50 971Q545 1030 663 1030Q743 1030 806 1004.50Q869 979 909 933Q948 889 968.50 824Q989 759 989 651L989 0L833 0L833 612Q833 715 822 757Q811 799 790 827Q766 859 726.50 876.50Q687 894 634 894Q588 894 549.50 882Q511 870 477 847Q402 797 363.50 712.50Q325 628 325 499L325 0L169 0L169 1144L16 1144L16 1261L169 1261L169 1404L325 1404Z"  horiz-adv-x="1155" vert-adv-y="2048"  />

      
      <glyph glyph-name="uni8d" unicode="&#x8d;" d="M356 804L550 804Q631 804 684 828.50Q737 853 772 909Q804 962 835 1101.50Q866 1241 886 1286Q917 1352 970 1388.50Q1023 1425 1101 1425Q1116 1425 1132 1423Q1148 1421 1167 1417L1167 1277Q1152 1280 1141.50 1281Q1131 1282 1122 1282Q1101 1282 1080 1268.50Q1059 1255 1044 1236Q1017 1201 992 1079.50Q967 958 952 917Q926 847 883.50 805.50Q841 764 780 753L780 747Q851 737 904.50 695Q958 653 991 581Q1013 532 1039.50 419Q1066 306 1097 217Q1115 166 1136.50 148.50Q1158 131 1189 131Q1204 131 1212.50 132Q1221 133 1228 135L1228 0Q1210-10 1189.50-15Q1169-20 1140-20Q1076-20 1031 7.50Q986 35 954 92Q935 126 919 171.50Q903 217 871 352Q846 457 835 491.50Q824 526 811 550Q778 610 721 635.50Q664 661 548 661L356 661L356 0L180 0L180 1404L356 1404L356 804M822 1841L892 1708L452 1515L411 1597L822 1841Z"  horiz-adv-x="1289" vert-adv-y="2048"  />

      
      <glyph glyph-name="uni040C" unicode="&#x040C;" d="M356 804L550 804Q631 804 684 828.50Q737 853 772 909Q804 962 835 1101.50Q866 1241 886 1286Q917 1352 970 1388.50Q1023 1425 1101 1425Q1116 1425 1132 1423Q1148 1421 1167 1417L1167 1277Q1152 1280 1141.50 1281Q1131 1282 1122 1282Q1101 1282 1080 1268.50Q1059 1255 1044 1236Q1017 1201 992 1079.50Q967 958 952 917Q926 847 883.50 805.50Q841 764 780 753L780 747Q851 737 904.50 695Q958 653 991 581Q1013 532 1039.50 419Q1066 306 1097 217Q1115 166 1136.50 148.50Q1158 131 1189 131Q1204 131 1212.50 132Q1221 133 1228 135L1228 0Q1210-10 1189.50-15Q1169-20 1140-20Q1076-20 1031 7.50Q986 35 954 92Q935 126 919 171.50Q903 217 871 352Q846 457 835 491.50Q824 526 811 550Q778 610 721 635.50Q664 661 548 661L356 661L356 0L180 0L180 1404L356 1404L356 804M822 1841L892 1708L452 1515L411 1597L822 1841Z"  horiz-adv-x="1289" vert-adv-y="2048"  />

      
      <glyph glyph-name="uniea" unicode="&#xea;" d="M321 608L460 608Q582 608 633 656.50Q684 705 712 829Q733 921 745.50 949Q758 977 774 995Q798 1023 833.50 1036.50Q869 1050 917 1050Q929 1050 941.50 1049Q954 1048 966 1046L966 923Q959 924 951 924Q943 924 933 923Q908 921 893 913.50Q878 906 868 892Q858 880 849.50 855Q841 830 835 798L821 724Q806 651 766 604.50Q726 558 663 548L663 544Q725 539 763.50 504.50Q802 470 827 403Q846 352 870 269.50Q894 187 907 163Q919 139 934.50 129.50Q950 120 985 120Q999 120 1007 120.50Q1015 121 1021 122L1021-2Q1007-4 991.50-5Q976-6 954-6Q859-6 814.50 26.50Q770 59 729 192Q690 318 679.50 346Q669 374 659 393Q633 438 590.50 459.50Q548 481 473 481L321 481L321 0L165 0L165 1044L321 1044L321 608Z"  horiz-adv-x="1052" vert-adv-y="2048"  />

      
      </font>
</defs>
</svg>
