<svg width="55" height="55" viewBox="0 0 55 55" fill="none" xmlns="http://www.w3.org/2000/svg">
<path d="M53.5268 17.1875C54.3371 17.1875 55 16.6074 55 15.8984V11.6016C55 10.8926 54.3371 10.3125 53.5268 10.3125H51.0714V5.15625C51.0714 2.30957 48.4319 0 45.1786 0H5.89286C2.63951 0 0 2.30957 0 5.15625V49.8438C0 52.6904 2.63951 55 5.89286 55H45.1786C48.4319 55 51.0714 52.6904 51.0714 49.8438V44.6875H53.5268C54.3371 44.6875 55 44.1074 55 43.3984V39.1016C55 38.3926 54.3371 37.8125 53.5268 37.8125H51.0714V30.9375H53.5268C54.3371 30.9375 55 30.3574 55 29.6484V25.3516C55 24.6426 54.3371 24.0625 53.5268 24.0625H51.0714V17.1875H53.5268ZM25.5357 13.75C29.8694 13.75 33.3929 16.833 33.3929 20.625C33.3929 24.417 29.8694 27.5 25.5357 27.5C21.202 27.5 17.6786 24.417 17.6786 20.625C17.6786 16.833 21.202 13.75 25.5357 13.75ZM39.2857 39.1875C39.2857 40.3262 38.058 41.25 36.5357 41.25H14.5357C13.0134 41.25 11.7857 40.3262 11.7857 39.1875V37.125C11.7857 33.709 15.481 30.9375 20.0357 30.9375H20.6496C22.1596 31.4854 23.8047 31.7969 25.5357 31.7969C27.2667 31.7969 28.9241 31.4854 30.4219 30.9375H31.0357C35.5904 30.9375 39.2857 33.709 39.2857 37.125V39.1875Z" fill="#2B515B"/>
</svg>
